<?xml version="1.0" encoding="utf-8" standalone="no"?>
<!DOCTYPE svg PUBLIC "-//W3C//DTD SVG 1.1//EN"
  "http://www.w3.org/Graphics/SVG/1.1/DTD/svg11.dtd">
<!-- Created with matplotlib (https://matplotlib.org/) -->
<svg height="340.7075pt" version="1.1" viewBox="0 0 701.56125 340.7075" width="701.56125pt" xmlns="http://www.w3.org/2000/svg" xmlns:xlink="http://www.w3.org/1999/xlink">
 <defs>
  <style type="text/css">
*{stroke-linecap:butt;stroke-linejoin:round;}
  </style>
 </defs>
 <g id="figure_1">
  <g id="patch_1">
   <path d="M 0 340.7075 
L 701.56125 340.7075 
L 701.56125 0 
L 0 0 
z
" style="fill:#ffffff;"/>
  </g>
  <g id="axes_1">
   <g id="patch_2">
    <path d="M 52.71875 299.28 
L 694.36125 299.28 
L 694.36125 7.2 
L 52.71875 7.2 
z
" style="fill:#ffffff;"/>
   </g>
   <g id="matplotlib.axis_1">
    <g id="xtick_1">
     <g id="line2d_1">
      <defs>
       <path d="M 0 0 
L 0 3.5 
" id="mf369eaa588" style="stroke:#000000;stroke-width:0.8;"/>
      </defs>
      <g>
       <use style="stroke:#000000;stroke-width:0.8;" x="75.992284" xlink:href="#mf369eaa588" y="299.28"/>
      </g>
     </g>
     <g id="text_1">
      <!-- 0 -->
      <defs>
       <path d="M 31.78125 66.40625 
Q 24.171875 66.40625 20.328125 58.90625 
Q 16.5 51.421875 16.5 36.375 
Q 16.5 21.390625 20.328125 13.890625 
Q 24.171875 6.390625 31.78125 6.390625 
Q 39.453125 6.390625 43.28125 13.890625 
Q 47.125 21.390625 47.125 36.375 
Q 47.125 51.421875 43.28125 58.90625 
Q 39.453125 66.40625 31.78125 66.40625 
z
M 31.78125 74.21875 
Q 44.046875 74.21875 50.515625 64.515625 
Q 56.984375 54.828125 56.984375 36.375 
Q 56.984375 17.96875 50.515625 8.265625 
Q 44.046875 -1.421875 31.78125 -1.421875 
Q 19.53125 -1.421875 13.0625 8.265625 
Q 6.59375 17.96875 6.59375 36.375 
Q 6.59375 54.828125 13.0625 64.515625 
Q 19.53125 74.21875 31.78125 74.21875 
z
" id="DejaVuSans-48"/>
      </defs>
      <g transform="translate(72.174784 315.398125)scale(0.12 -0.12)">
       <use xlink:href="#DejaVuSans-48"/>
      </g>
     </g>
    </g>
    <g id="xtick_2">
     <g id="line2d_2">
      <g>
       <use style="stroke:#000000;stroke-width:0.8;" x="193.832964" xlink:href="#mf369eaa588" y="299.28"/>
      </g>
     </g>
     <g id="text_2">
      <!-- 20 -->
      <defs>
       <path d="M 19.1875 8.296875 
L 53.609375 8.296875 
L 53.609375 0 
L 7.328125 0 
L 7.328125 8.296875 
Q 12.9375 14.109375 22.625 23.890625 
Q 32.328125 33.6875 34.8125 36.53125 
Q 39.546875 41.84375 41.421875 45.53125 
Q 43.3125 49.21875 43.3125 52.78125 
Q 43.3125 58.59375 39.234375 62.25 
Q 35.15625 65.921875 28.609375 65.921875 
Q 23.96875 65.921875 18.8125 64.3125 
Q 13.671875 62.703125 7.8125 59.421875 
L 7.8125 69.390625 
Q 13.765625 71.78125 18.9375 73 
Q 24.125 74.21875 28.421875 74.21875 
Q 39.75 74.21875 46.484375 68.546875 
Q 53.21875 62.890625 53.21875 53.421875 
Q 53.21875 48.921875 51.53125 44.890625 
Q 49.859375 40.875 45.40625 35.40625 
Q 44.1875 33.984375 37.640625 27.21875 
Q 31.109375 20.453125 19.1875 8.296875 
z
" id="DejaVuSans-50"/>
      </defs>
      <g transform="translate(186.197964 315.398125)scale(0.12 -0.12)">
       <use xlink:href="#DejaVuSans-50"/>
       <use x="63.623047" xlink:href="#DejaVuSans-48"/>
      </g>
     </g>
    </g>
    <g id="xtick_3">
     <g id="line2d_3">
      <g>
       <use style="stroke:#000000;stroke-width:0.8;" x="311.673643" xlink:href="#mf369eaa588" y="299.28"/>
      </g>
     </g>
     <g id="text_3">
      <!-- 40 -->
      <defs>
       <path d="M 37.796875 64.3125 
L 12.890625 25.390625 
L 37.796875 25.390625 
z
M 35.203125 72.90625 
L 47.609375 72.90625 
L 47.609375 25.390625 
L 58.015625 25.390625 
L 58.015625 17.1875 
L 47.609375 17.1875 
L 47.609375 0 
L 37.796875 0 
L 37.796875 17.1875 
L 4.890625 17.1875 
L 4.890625 26.703125 
z
" id="DejaVuSans-52"/>
      </defs>
      <g transform="translate(304.038643 315.398125)scale(0.12 -0.12)">
       <use xlink:href="#DejaVuSans-52"/>
       <use x="63.623047" xlink:href="#DejaVuSans-48"/>
      </g>
     </g>
    </g>
    <g id="xtick_4">
     <g id="line2d_4">
      <g>
       <use style="stroke:#000000;stroke-width:0.8;" x="429.514323" xlink:href="#mf369eaa588" y="299.28"/>
      </g>
     </g>
     <g id="text_4">
      <!-- 60 -->
      <defs>
       <path d="M 33.015625 40.375 
Q 26.375 40.375 22.484375 35.828125 
Q 18.609375 31.296875 18.609375 23.390625 
Q 18.609375 15.53125 22.484375 10.953125 
Q 26.375 6.390625 33.015625 6.390625 
Q 39.65625 6.390625 43.53125 10.953125 
Q 47.40625 15.53125 47.40625 23.390625 
Q 47.40625 31.296875 43.53125 35.828125 
Q 39.65625 40.375 33.015625 40.375 
z
M 52.59375 71.296875 
L 52.59375 62.3125 
Q 48.875 64.0625 45.09375 64.984375 
Q 41.3125 65.921875 37.59375 65.921875 
Q 27.828125 65.921875 22.671875 59.328125 
Q 17.53125 52.734375 16.796875 39.40625 
Q 19.671875 43.65625 24.015625 45.921875 
Q 28.375 48.1875 33.59375 48.1875 
Q 44.578125 48.1875 50.953125 41.515625 
Q 57.328125 34.859375 57.328125 23.390625 
Q 57.328125 12.15625 50.6875 5.359375 
Q 44.046875 -1.421875 33.015625 -1.421875 
Q 20.359375 -1.421875 13.671875 8.265625 
Q 6.984375 17.96875 6.984375 36.375 
Q 6.984375 53.65625 15.1875 63.9375 
Q 23.390625 74.21875 37.203125 74.21875 
Q 40.921875 74.21875 44.703125 73.484375 
Q 48.484375 72.75 52.59375 71.296875 
z
" id="DejaVuSans-54"/>
      </defs>
      <g transform="translate(421.879323 315.398125)scale(0.12 -0.12)">
       <use xlink:href="#DejaVuSans-54"/>
       <use x="63.623047" xlink:href="#DejaVuSans-48"/>
      </g>
     </g>
    </g>
    <g id="xtick_5">
     <g id="line2d_5">
      <g>
       <use style="stroke:#000000;stroke-width:0.8;" x="547.355002" xlink:href="#mf369eaa588" y="299.28"/>
      </g>
     </g>
     <g id="text_5">
      <!-- 80 -->
      <defs>
       <path d="M 31.78125 34.625 
Q 24.75 34.625 20.71875 30.859375 
Q 16.703125 27.09375 16.703125 20.515625 
Q 16.703125 13.921875 20.71875 10.15625 
Q 24.75 6.390625 31.78125 6.390625 
Q 38.8125 6.390625 42.859375 10.171875 
Q 46.921875 13.96875 46.921875 20.515625 
Q 46.921875 27.09375 42.890625 30.859375 
Q 38.875 34.625 31.78125 34.625 
z
M 21.921875 38.8125 
Q 15.578125 40.375 12.03125 44.71875 
Q 8.5 49.078125 8.5 55.328125 
Q 8.5 64.0625 14.71875 69.140625 
Q 20.953125 74.21875 31.78125 74.21875 
Q 42.671875 74.21875 48.875 69.140625 
Q 55.078125 64.0625 55.078125 55.328125 
Q 55.078125 49.078125 51.53125 44.71875 
Q 48 40.375 41.703125 38.8125 
Q 48.828125 37.15625 52.796875 32.3125 
Q 56.78125 27.484375 56.78125 20.515625 
Q 56.78125 9.90625 50.3125 4.234375 
Q 43.84375 -1.421875 31.78125 -1.421875 
Q 19.734375 -1.421875 13.25 4.234375 
Q 6.78125 9.90625 6.78125 20.515625 
Q 6.78125 27.484375 10.78125 32.3125 
Q 14.796875 37.15625 21.921875 38.8125 
z
M 18.3125 54.390625 
Q 18.3125 48.734375 21.84375 45.5625 
Q 25.390625 42.390625 31.78125 42.390625 
Q 38.140625 42.390625 41.71875 45.5625 
Q 45.3125 48.734375 45.3125 54.390625 
Q 45.3125 60.0625 41.71875 63.234375 
Q 38.140625 66.40625 31.78125 66.40625 
Q 25.390625 66.40625 21.84375 63.234375 
Q 18.3125 60.0625 18.3125 54.390625 
z
" id="DejaVuSans-56"/>
      </defs>
      <g transform="translate(539.720002 315.398125)scale(0.12 -0.12)">
       <use xlink:href="#DejaVuSans-56"/>
       <use x="63.623047" xlink:href="#DejaVuSans-48"/>
      </g>
     </g>
    </g>
    <g id="xtick_6">
     <g id="line2d_6">
      <g>
       <use style="stroke:#000000;stroke-width:0.8;" x="665.195682" xlink:href="#mf369eaa588" y="299.28"/>
      </g>
     </g>
     <g id="text_6">
      <!-- 100 -->
      <defs>
       <path d="M 12.40625 8.296875 
L 28.515625 8.296875 
L 28.515625 63.921875 
L 10.984375 60.40625 
L 10.984375 69.390625 
L 28.421875 72.90625 
L 38.28125 72.90625 
L 38.28125 8.296875 
L 54.390625 8.296875 
L 54.390625 0 
L 12.40625 0 
z
" id="DejaVuSans-49"/>
      </defs>
      <g transform="translate(653.743182 315.398125)scale(0.12 -0.12)">
       <use xlink:href="#DejaVuSans-49"/>
       <use x="63.623047" xlink:href="#DejaVuSans-48"/>
       <use x="127.246094" xlink:href="#DejaVuSans-48"/>
      </g>
     </g>
    </g>
    <g id="text_7">
     <!-- Experiment -->
     <defs>
      <path d="M 9.8125 72.90625 
L 55.90625 72.90625 
L 55.90625 64.59375 
L 19.671875 64.59375 
L 19.671875 43.015625 
L 54.390625 43.015625 
L 54.390625 34.71875 
L 19.671875 34.71875 
L 19.671875 8.296875 
L 56.78125 8.296875 
L 56.78125 0 
L 9.8125 0 
z
" id="DejaVuSans-69"/>
      <path d="M 54.890625 54.6875 
L 35.109375 28.078125 
L 55.90625 0 
L 45.3125 0 
L 29.390625 21.484375 
L 13.484375 0 
L 2.875 0 
L 24.125 28.609375 
L 4.6875 54.6875 
L 15.28125 54.6875 
L 29.78125 35.203125 
L 44.28125 54.6875 
z
" id="DejaVuSans-120"/>
      <path d="M 18.109375 8.203125 
L 18.109375 -20.796875 
L 9.078125 -20.796875 
L 9.078125 54.6875 
L 18.109375 54.6875 
L 18.109375 46.390625 
Q 20.953125 51.265625 25.265625 53.625 
Q 29.59375 56 35.59375 56 
Q 45.5625 56 51.78125 48.09375 
Q 58.015625 40.1875 58.015625 27.296875 
Q 58.015625 14.40625 51.78125 6.484375 
Q 45.5625 -1.421875 35.59375 -1.421875 
Q 29.59375 -1.421875 25.265625 0.953125 
Q 20.953125 3.328125 18.109375 8.203125 
z
M 48.6875 27.296875 
Q 48.6875 37.203125 44.609375 42.84375 
Q 40.53125 48.484375 33.40625 48.484375 
Q 26.265625 48.484375 22.1875 42.84375 
Q 18.109375 37.203125 18.109375 27.296875 
Q 18.109375 17.390625 22.1875 11.75 
Q 26.265625 6.109375 33.40625 6.109375 
Q 40.53125 6.109375 44.609375 11.75 
Q 48.6875 17.390625 48.6875 27.296875 
z
" id="DejaVuSans-112"/>
      <path d="M 56.203125 29.59375 
L 56.203125 25.203125 
L 14.890625 25.203125 
Q 15.484375 15.921875 20.484375 11.0625 
Q 25.484375 6.203125 34.421875 6.203125 
Q 39.59375 6.203125 44.453125 7.46875 
Q 49.3125 8.734375 54.109375 11.28125 
L 54.109375 2.78125 
Q 49.265625 0.734375 44.1875 -0.34375 
Q 39.109375 -1.421875 33.890625 -1.421875 
Q 20.796875 -1.421875 13.15625 6.1875 
Q 5.515625 13.8125 5.515625 26.8125 
Q 5.515625 40.234375 12.765625 48.109375 
Q 20.015625 56 32.328125 56 
Q 43.359375 56 49.78125 48.890625 
Q 56.203125 41.796875 56.203125 29.59375 
z
M 47.21875 32.234375 
Q 47.125 39.59375 43.09375 43.984375 
Q 39.0625 48.390625 32.421875 48.390625 
Q 24.90625 48.390625 20.390625 44.140625 
Q 15.875 39.890625 15.1875 32.171875 
z
" id="DejaVuSans-101"/>
      <path d="M 41.109375 46.296875 
Q 39.59375 47.171875 37.8125 47.578125 
Q 36.03125 48 33.890625 48 
Q 26.265625 48 22.1875 43.046875 
Q 18.109375 38.09375 18.109375 28.8125 
L 18.109375 0 
L 9.078125 0 
L 9.078125 54.6875 
L 18.109375 54.6875 
L 18.109375 46.1875 
Q 20.953125 51.171875 25.484375 53.578125 
Q 30.03125 56 36.53125 56 
Q 37.453125 56 38.578125 55.875 
Q 39.703125 55.765625 41.0625 55.515625 
z
" id="DejaVuSans-114"/>
      <path d="M 9.421875 54.6875 
L 18.40625 54.6875 
L 18.40625 0 
L 9.421875 0 
z
M 9.421875 75.984375 
L 18.40625 75.984375 
L 18.40625 64.59375 
L 9.421875 64.59375 
z
" id="DejaVuSans-105"/>
      <path d="M 52 44.1875 
Q 55.375 50.25 60.0625 53.125 
Q 64.75 56 71.09375 56 
Q 79.640625 56 84.28125 50.015625 
Q 88.921875 44.046875 88.921875 33.015625 
L 88.921875 0 
L 79.890625 0 
L 79.890625 32.71875 
Q 79.890625 40.578125 77.09375 44.375 
Q 74.3125 48.1875 68.609375 48.1875 
Q 61.625 48.1875 57.5625 43.546875 
Q 53.515625 38.921875 53.515625 30.90625 
L 53.515625 0 
L 44.484375 0 
L 44.484375 32.71875 
Q 44.484375 40.625 41.703125 44.40625 
Q 38.921875 48.1875 33.109375 48.1875 
Q 26.21875 48.1875 22.15625 43.53125 
Q 18.109375 38.875 18.109375 30.90625 
L 18.109375 0 
L 9.078125 0 
L 9.078125 54.6875 
L 18.109375 54.6875 
L 18.109375 46.1875 
Q 21.1875 51.21875 25.484375 53.609375 
Q 29.78125 56 35.6875 56 
Q 41.65625 56 45.828125 52.96875 
Q 50 49.953125 52 44.1875 
z
" id="DejaVuSans-109"/>
      <path d="M 54.890625 33.015625 
L 54.890625 0 
L 45.90625 0 
L 45.90625 32.71875 
Q 45.90625 40.484375 42.875 44.328125 
Q 39.84375 48.1875 33.796875 48.1875 
Q 26.515625 48.1875 22.3125 43.546875 
Q 18.109375 38.921875 18.109375 30.90625 
L 18.109375 0 
L 9.078125 0 
L 9.078125 54.6875 
L 18.109375 54.6875 
L 18.109375 46.1875 
Q 21.34375 51.125 25.703125 53.5625 
Q 30.078125 56 35.796875 56 
Q 45.21875 56 50.046875 50.171875 
Q 54.890625 44.34375 54.890625 33.015625 
z
" id="DejaVuSans-110"/>
      <path d="M 18.3125 70.21875 
L 18.3125 54.6875 
L 36.8125 54.6875 
L 36.8125 47.703125 
L 18.3125 47.703125 
L 18.3125 18.015625 
Q 18.3125 11.328125 20.140625 9.421875 
Q 21.96875 7.515625 27.59375 7.515625 
L 36.8125 7.515625 
L 36.8125 0 
L 27.59375 0 
Q 17.1875 0 13.234375 3.875 
Q 9.28125 7.765625 9.28125 18.015625 
L 9.28125 47.703125 
L 2.6875 47.703125 
L 2.6875 54.6875 
L 9.28125 54.6875 
L 9.28125 70.21875 
z
" id="DejaVuSans-116"/>
     </defs>
     <g transform="translate(338.872187 331.011875)scale(0.12 -0.12)">
      <use xlink:href="#DejaVuSans-69"/>
      <use x="63.183594" xlink:href="#DejaVuSans-120"/>
      <use x="122.363281" xlink:href="#DejaVuSans-112"/>
      <use x="185.839844" xlink:href="#DejaVuSans-101"/>
      <use x="247.363281" xlink:href="#DejaVuSans-114"/>
      <use x="288.476562" xlink:href="#DejaVuSans-105"/>
      <use x="316.259766" xlink:href="#DejaVuSans-109"/>
      <use x="413.671875" xlink:href="#DejaVuSans-101"/>
      <use x="475.195312" xlink:href="#DejaVuSans-110"/>
      <use x="538.574219" xlink:href="#DejaVuSans-116"/>
     </g>
    </g>
   </g>
   <g id="matplotlib.axis_2">
    <g id="ytick_1">
     <g id="line2d_7">
      <defs>
       <path d="M 0 0 
L -3.5 0 
" id="m86942d8bb8" style="stroke:#000000;stroke-width:0.8;"/>
      </defs>
      <g>
       <use style="stroke:#000000;stroke-width:0.8;" x="52.71875" xlink:href="#m86942d8bb8" y="286.003636"/>
      </g>
     </g>
     <g id="text_8">
      <!-- 0 -->
      <g transform="translate(38.08375 290.562699)scale(0.12 -0.12)">
       <use xlink:href="#DejaVuSans-48"/>
      </g>
     </g>
    </g>
    <g id="ytick_2">
     <g id="line2d_8">
      <g>
       <use style="stroke:#000000;stroke-width:0.8;" x="52.71875" xlink:href="#m86942d8bb8" y="232.898182"/>
      </g>
     </g>
     <g id="text_9">
      <!-- 20 -->
      <g transform="translate(30.44875 237.457244)scale(0.12 -0.12)">
       <use xlink:href="#DejaVuSans-50"/>
       <use x="63.623047" xlink:href="#DejaVuSans-48"/>
      </g>
     </g>
    </g>
    <g id="ytick_3">
     <g id="line2d_9">
      <g>
       <use style="stroke:#000000;stroke-width:0.8;" x="52.71875" xlink:href="#m86942d8bb8" y="179.792727"/>
      </g>
     </g>
     <g id="text_10">
      <!-- 40 -->
      <g transform="translate(30.44875 184.35179)scale(0.12 -0.12)">
       <use xlink:href="#DejaVuSans-52"/>
       <use x="63.623047" xlink:href="#DejaVuSans-48"/>
      </g>
     </g>
    </g>
    <g id="ytick_4">
     <g id="line2d_10">
      <g>
       <use style="stroke:#000000;stroke-width:0.8;" x="52.71875" xlink:href="#m86942d8bb8" y="126.687273"/>
      </g>
     </g>
     <g id="text_11">
      <!-- 60 -->
      <g transform="translate(30.44875 131.246335)scale(0.12 -0.12)">
       <use xlink:href="#DejaVuSans-54"/>
       <use x="63.623047" xlink:href="#DejaVuSans-48"/>
      </g>
     </g>
    </g>
    <g id="ytick_5">
     <g id="line2d_11">
      <g>
       <use style="stroke:#000000;stroke-width:0.8;" x="52.71875" xlink:href="#m86942d8bb8" y="73.581818"/>
      </g>
     </g>
     <g id="text_12">
      <!-- 80 -->
      <g transform="translate(30.44875 78.140881)scale(0.12 -0.12)">
       <use xlink:href="#DejaVuSans-56"/>
       <use x="63.623047" xlink:href="#DejaVuSans-48"/>
      </g>
     </g>
    </g>
    <g id="ytick_6">
     <g id="line2d_12">
      <g>
       <use style="stroke:#000000;stroke-width:0.8;" x="52.71875" xlink:href="#m86942d8bb8" y="20.476364"/>
      </g>
     </g>
     <g id="text_13">
      <!-- 100 -->
      <g transform="translate(22.81375 25.035426)scale(0.12 -0.12)">
       <use xlink:href="#DejaVuSans-49"/>
       <use x="63.623047" xlink:href="#DejaVuSans-48"/>
       <use x="127.246094" xlink:href="#DejaVuSans-48"/>
      </g>
     </g>
    </g>
    <g id="text_14">
     <!-- %Yield -->
     <defs>
      <path d="M 72.703125 32.078125 
Q 68.453125 32.078125 66.03125 28.46875 
Q 63.625 24.859375 63.625 18.40625 
Q 63.625 12.0625 66.03125 8.421875 
Q 68.453125 4.78125 72.703125 4.78125 
Q 76.859375 4.78125 79.265625 8.421875 
Q 81.6875 12.0625 81.6875 18.40625 
Q 81.6875 24.8125 79.265625 28.4375 
Q 76.859375 32.078125 72.703125 32.078125 
z
M 72.703125 38.28125 
Q 80.421875 38.28125 84.953125 32.90625 
Q 89.5 27.546875 89.5 18.40625 
Q 89.5 9.28125 84.9375 3.921875 
Q 80.375 -1.421875 72.703125 -1.421875 
Q 64.890625 -1.421875 60.34375 3.921875 
Q 55.8125 9.28125 55.8125 18.40625 
Q 55.8125 27.59375 60.375 32.9375 
Q 64.9375 38.28125 72.703125 38.28125 
z
M 22.3125 68.015625 
Q 18.109375 68.015625 15.6875 64.375 
Q 13.28125 60.75 13.28125 54.390625 
Q 13.28125 47.953125 15.671875 44.328125 
Q 18.0625 40.71875 22.3125 40.71875 
Q 26.5625 40.71875 28.96875 44.328125 
Q 31.390625 47.953125 31.390625 54.390625 
Q 31.390625 60.6875 28.953125 64.34375 
Q 26.515625 68.015625 22.3125 68.015625 
z
M 66.40625 74.21875 
L 74.21875 74.21875 
L 28.609375 -1.421875 
L 20.796875 -1.421875 
z
M 22.3125 74.21875 
Q 30.03125 74.21875 34.609375 68.875 
Q 39.203125 63.53125 39.203125 54.390625 
Q 39.203125 45.171875 34.640625 39.84375 
Q 30.078125 34.515625 22.3125 34.515625 
Q 14.546875 34.515625 10.03125 39.859375 
Q 5.515625 45.21875 5.515625 54.390625 
Q 5.515625 63.484375 10.046875 68.84375 
Q 14.59375 74.21875 22.3125 74.21875 
z
" id="DejaVuSans-37"/>
      <path d="M -0.203125 72.90625 
L 10.40625 72.90625 
L 30.609375 42.921875 
L 50.6875 72.90625 
L 61.28125 72.90625 
L 35.5 34.71875 
L 35.5 0 
L 25.59375 0 
L 25.59375 34.71875 
z
" id="DejaVuSans-89"/>
      <path d="M 9.421875 75.984375 
L 18.40625 75.984375 
L 18.40625 0 
L 9.421875 0 
z
" id="DejaVuSans-108"/>
      <path d="M 45.40625 46.390625 
L 45.40625 75.984375 
L 54.390625 75.984375 
L 54.390625 0 
L 45.40625 0 
L 45.40625 8.203125 
Q 42.578125 3.328125 38.25 0.953125 
Q 33.9375 -1.421875 27.875 -1.421875 
Q 17.96875 -1.421875 11.734375 6.484375 
Q 5.515625 14.40625 5.515625 27.296875 
Q 5.515625 40.1875 11.734375 48.09375 
Q 17.96875 56 27.875 56 
Q 33.9375 56 38.25 53.625 
Q 42.578125 51.265625 45.40625 46.390625 
z
M 14.796875 27.296875 
Q 14.796875 17.390625 18.875 11.75 
Q 22.953125 6.109375 30.078125 6.109375 
Q 37.203125 6.109375 41.296875 11.75 
Q 45.40625 17.390625 45.40625 27.296875 
Q 45.40625 37.203125 41.296875 42.84375 
Q 37.203125 48.484375 30.078125 48.484375 
Q 22.953125 48.484375 18.875 42.84375 
Q 14.796875 37.203125 14.796875 27.296875 
z
" id="DejaVuSans-100"/>
     </defs>
     <g transform="translate(16.318125 173.4375)rotate(-90)scale(0.12 -0.12)">
      <use xlink:href="#DejaVuSans-37"/>
      <use x="95.019531" xlink:href="#DejaVuSans-89"/>
      <use x="156.056641" xlink:href="#DejaVuSans-105"/>
      <use x="183.839844" xlink:href="#DejaVuSans-101"/>
      <use x="245.363281" xlink:href="#DejaVuSans-108"/>
      <use x="273.146484" xlink:href="#DejaVuSans-100"/>
     </g>
    </g>
   </g>
   <g id="line2d_13">
    <path clip-path="url(#p54342d156d)" d="M 81.884318 271.479295 
L 87.776352 285.817767 
L 93.668386 273.417644 
L 99.56042 240.625025 
L 105.452454 237.040407 
L 111.344488 215.267171 
L 117.236522 242.350953 
L 123.128556 286.003636 
L 129.02059 278.436109 
L 134.912624 286.003636 
L 140.804658 279.604429 
L 146.696692 245.749702 
L 152.588726 126.899695 
L 158.48076 222.277091 
L 164.372794 247.475629 
L 170.264828 278.037818 
L 176.156862 147.345295 
L 182.048896 143.60136 
L 187.94093 114.419913 
L 193.832964 143.973098 
L 199.724998 199.149665 
L 205.617032 103.161556 
L 211.509066 286.003636 
L 217.4011 239.430153 
L 223.293134 236.296931 
L 229.185168 122.146756 
L 235.077202 92.434255 
L 240.969236 71.537258 
L 246.86127 102.099447 
L 252.753303 173.6856 
L 258.645337 62.509331 
L 264.537371 94.266393 
L 270.429405 141.238167 
L 276.321439 212.187055 
L 282.213473 267.363622 
L 288.105507 81.521084 
L 293.997541 286.003636 
L 299.889575 267.363622 
L 305.781609 269.461287 
L 311.673643 67.713665 
" style="fill:none;stroke:#440154;stroke-linecap:square;stroke-opacity:0.8;stroke-width:3;"/>
   </g>
   <g id="line2d_14">
    <path clip-path="url(#p54342d156d)" d="M 81.884318 279.604429 
L 87.776352 285.685004 
L 93.668386 286.003636 
L 99.56042 180.164465 
L 105.452454 285.313265 
L 111.344488 286.003636 
L 117.236522 281.091382 
L 123.128556 205.787847 
L 129.02059 222.197433 
L 134.912624 155.28456 
L 140.804658 223.525069 
L 146.696692 282.551782 
L 152.588726 217.842785 
L 158.48076 246.599389 
L 164.372794 233.323025 
L 170.264828 180.297229 
L 176.156862 271.665164 
L 182.048896 175.305316 
L 187.94093 83.565644 
L 193.832964 197.290975 
L 199.724998 77.2992 
L 205.617032 81.521084 
L 211.509066 218.692473 
L 217.4011 286.003636 
L 223.293134 96.337505 
L 229.185168 77.724044 
L 235.077202 122.252967 
L 240.969236 217.577258 
L 246.86127 160.409236 
L 252.753303 171.242749 
L 258.645337 284.038735 
L 264.537371 253.237571 
L 270.429405 217.842785 
L 276.321439 130.723287 
" style="fill:none;stroke:#46085c;stroke-linecap:square;stroke-opacity:0.8;stroke-width:3;"/>
   </g>
   <g id="line2d_15">
    <path clip-path="url(#p54342d156d)" d="M 81.884318 271.479295 
L 87.776352 86.274022 
L 93.668386 174.747709 
L 99.56042 264.150742 
L 105.452454 211.257709 
L 111.344488 177.137455 
L 117.236522 151.806153 
L 123.128556 286.003636 
L 129.02059 251.193011 
L 134.912624 76.369855 
L 140.804658 208.177593 
L 146.696692 133.776851 
L 152.588726 82.636298 
L 158.48076 269.036444 
L 164.372794 269.620604 
L 170.264828 286.003636 
L 176.156862 103.559847 
L 182.048896 161.12616 
L 187.94093 72.572815 
L 193.832964 112.428458 
" style="fill:none;stroke:#471063;stroke-linecap:square;stroke-opacity:0.8;stroke-width:3;"/>
   </g>
   <g id="line2d_16">
    <path clip-path="url(#p54342d156d)" d="M 81.884318 286.003636 
L 87.776352 266.726356 
L 93.668386 72.572815 
L 99.56042 86.274022 
L 105.452454 211.257709 
L 111.344488 47.666356 
L 117.236522 64.952182 
L 123.128556 140.839876 
L 129.02059 176.208109 
L 134.912624 191.475927 
L 140.804658 44.081738 
L 146.696692 62.881069 
L 152.588726 41.214044 
L 158.48076 41.638887 
L 164.372794 112.561222 
L 170.264828 140.415033 
L 176.156862 104.993695 
L 182.048896 259.55712 
L 187.94093 271.001345 
L 193.832964 286.003636 
L 199.724998 157.647753 
L 205.617032 258.149825 
L 211.509066 20.476364 
" style="fill:none;stroke:#481769;stroke-linecap:square;stroke-opacity:0.8;stroke-width:3;"/>
   </g>
   <g id="line2d_17">
    <path clip-path="url(#p54342d156d)" d="M 81.884318 271.479295 
L 87.776352 112.428458 
L 93.668386 251.193011 
L 99.56042 86.274022 
L 105.452454 174.747709 
L 111.344488 80.458975 
L 117.236522 151.806153 
L 123.128556 177.137455 
L 129.02059 86.539549 
L 134.912624 59.747847 
L 140.804658 230.986385 
L 146.696692 268.797469 
L 152.588726 265.080087 
L 158.48076 83.565644 
L 164.372794 122.252967 
L 170.264828 274.585964 
L 176.156862 82.636298 
L 182.048896 254.379338 
L 187.94093 148.380851 
L 193.832964 266.089091 
L 199.724998 271.001345 
L 205.617032 157.647753 
L 211.509066 49.312625 
L 217.4011 80.007578 
L 223.293134 24.777905 
L 229.185168 20.980865 
L 235.077202 22.547476 
L 240.969236 71.298284 
L 246.86127 146.681476 
L 252.753303 125.917244 
L 258.645337 41.214044 
L 264.537371 71.855891 
L 270.429405 164.578015 
L 276.321439 167.923658 
L 282.213473 215.134407 
" style="fill:none;stroke:#481d6f;stroke-linecap:square;stroke-opacity:0.8;stroke-width:3;"/>
   </g>
   <g id="line2d_18">
    <path clip-path="url(#p54342d156d)" d="M 81.884318 286.003636 
L 87.776352 138.874975 
L 93.668386 213.036742 
L 99.56042 228.809062 
L 105.452454 208.575884 
L 111.344488 104.037796 
L 117.236522 188.687891 
L 123.128556 74.219084 
L 129.02059 102.497738 
L 134.912624 127.191775 
L 140.804658 199.707273 
L 146.696692 195.857127 
L 152.588726 286.003636 
L 158.48076 85.796073 
L 164.372794 141.158509 
L 170.264828 286.003636 
L 176.156862 262.238945 
L 182.048896 286.003636 
L 187.94093 279.285796 
L 193.832964 168.109527 
L 199.724998 286.003636 
L 205.617032 237.704225 
L 211.509066 241.102975 
L 217.4011 188.475469 
L 223.293134 286.003636 
L 229.185168 201.937702 
L 235.077202 217.922444 
L 240.969236 235.686218 
L 246.86127 147.3984 
L 252.753303 186.776095 
L 258.645337 132.847505 
L 264.537371 144.982102 
L 270.429405 255.17592 
L 276.321439 202.920153 
L 282.213473 146.097316 
L 288.105507 179.633411 
L 293.997541 271.319978 
L 299.889575 89.699324 
L 305.781609 194.529491 
L 311.673643 167.897105 
L 317.565677 91.292487 
L 323.457711 67.527796 
L 329.349745 156.267011 
L 335.241779 85.822625 
L 341.133813 143.973098 
L 347.025847 181.598313 
L 352.917881 82.530087 
L 358.809915 69.174065 
L 364.701949 61.314458 
L 370.593983 61.686196 
L 376.486017 52.791033 
L 382.378051 62.509331 
L 388.270085 60.809956 
L 394.162119 51.250975 
L 400.054153 49.232967 
L 405.946187 75.360851 
L 411.838221 57.278444 
L 417.730255 61.659644 
L 423.622289 64.952182 
L 429.514323 165.958756 
L 435.406357 43.338262 
L 441.298391 32.478196 
L 447.190425 182.979055 
L 453.082459 20.476364 
L 458.974493 169.59648 
" style="fill:none;stroke:#482576;stroke-linecap:square;stroke-opacity:0.8;stroke-width:3;"/>
   </g>
   <g id="line2d_19">
    <path clip-path="url(#p54342d156d)" d="M 81.884318 286.003636 
L 87.776352 286.003636 
L 93.668386 259.55712 
L 99.56042 249.148451 
L 105.452454 130.935709 
L 111.344488 157.647753 
L 117.236522 104.993695 
L 123.128556 258.149825 
L 129.02059 41.214044 
L 134.912624 140.415033 
L 140.804658 24.777905 
L 146.696692 20.980865 
L 152.588726 22.547476 
L 158.48076 235.208269 
L 164.372794 95.328502 
L 170.264828 225.861709 
L 176.156862 24.485825 
L 182.048896 164.578015 
L 187.94093 53.428298 
L 193.832964 47.161855 
" style="fill:none;stroke:#472c7a;stroke-linecap:square;stroke-opacity:0.8;stroke-width:3;"/>
   </g>
   <g id="line2d_20">
    <path clip-path="url(#p54342d156d)" d="M 81.884318 286.003636 
L 87.776352 112.428458 
L 93.668386 72.572815 
L 99.56042 266.726356 
L 105.452454 211.257709 
L 111.344488 86.274022 
L 117.236522 251.193011 
L 123.128556 76.369855 
L 129.02059 250.980589 
L 134.912624 65.03184 
L 140.804658 191.475927 
L 146.696692 106.586858 
L 152.588726 149.602276 
L 158.48076 172.835913 
L 164.372794 132.422662 
L 170.264828 146.681476 
L 176.156862 22.547476 
L 182.048896 180.934495 
L 187.94093 266.27496 
L 193.832964 200.477302 
L 199.724998 41.214044 
" style="fill:none;stroke:#46327e;stroke-linecap:square;stroke-opacity:0.8;stroke-width:3;"/>
   </g>
   <g id="line2d_21">
    <path clip-path="url(#p54342d156d)" d="M 81.884318 286.003636 
L 87.776352 251.193011 
L 93.668386 86.274022 
L 99.56042 76.369855 
L 105.452454 174.747709 
L 111.344488 286.003636 
L 117.236522 211.257709 
L 123.128556 174.747709 
L 129.02059 251.193011 
L 134.912624 72.572815 
L 140.804658 264.602138 
L 146.696692 228.809062 
L 152.588726 242.297847 
L 158.48076 200.052458 
L 164.372794 104.515745 
L 170.264828 258.282589 
L 176.156862 209.956625 
L 182.048896 69.253724 
L 187.94093 140.839876 
L 193.832964 176.208109 
L 199.724998 72.572815 
L 205.617032 71.74968 
L 211.509066 32.478196 
L 217.4011 208.177593 
L 223.293134 24.777905 
L 229.185168 22.547476 
L 235.077202 29.39808 
L 240.969236 125.917244 
L 246.86127 65.03184 
L 252.753303 250.980589 
L 258.645337 20.529469 
L 264.537371 120.500487 
L 270.429405 43.869316 
L 276.321439 169.59648 
L 282.213473 20.476364 
" style="fill:none;stroke:#453882;stroke-linecap:square;stroke-opacity:0.8;stroke-width:3;"/>
   </g>
   <g id="line2d_22">
    <path clip-path="url(#p54342d156d)" d="M 81.884318 278.436109 
L 87.776352 259.796095 
L 93.668386 174.747709 
L 99.56042 200.928698 
L 105.452454 181.412444 
L 111.344488 115.747549 
L 117.236522 90.602116 
L 123.128556 114.844756 
L 129.02059 84.149804 
L 134.912624 216.196516 
L 140.804658 154.833164 
L 146.696692 162.984851 
L 152.588726 137.414575 
L 158.48076 245.006225 
L 164.372794 146.097316 
L 170.264828 285.817767 
L 176.156862 286.003636 
L 182.048896 209.956625 
L 187.94093 258.282589 
L 193.832964 118.376269 
L 199.724998 80.458975 
L 205.617032 262.504473 
L 211.509066 151.806153 
L 217.4011 47.666356 
L 223.293134 286.003636 
L 229.185168 45.993535 
L 235.077202 24.485825 
L 240.969236 123.793025 
L 246.86127 119.385273 
L 252.753303 138.104945 
L 258.645337 20.980865 
L 264.537371 53.428298 
L 270.429405 47.161855 
L 276.321439 65.03184 
L 282.213473 24.777905 
L 288.105507 22.547476 
L 293.997541 41.214044 
L 299.889575 24.777905 
L 305.781609 72.546262 
L 311.673643 76.42296 
L 317.565677 71.855891 
L 323.457711 164.578015 
L 329.349745 167.923658 
L 335.241779 125.917244 
L 341.133813 146.681476 
L 347.025847 71.298284 
L 352.917881 32.478196 
L 358.809915 69.253724 
L 364.701949 64.952182 
L 370.593983 20.476364 
" style="fill:none;stroke:#423f85;stroke-linecap:square;stroke-opacity:0.8;stroke-width:3;"/>
   </g>
   <g id="line2d_23">
    <path clip-path="url(#p54342d156d)" d="M 81.884318 211.257709 
L 87.776352 269.434735 
L 93.668386 276.949156 
L 99.56042 280.533775 
L 105.452454 119.199404 
L 111.344488 118.376269 
L 117.236522 147.796691 
L 123.128556 52.791033 
L 129.02059 286.003636 
L 134.912624 251.936487 
L 140.804658 62.509331 
L 146.696692 60.809956 
L 152.588726 49.232967 
L 158.48076 61.686196 
L 164.372794 273.417644 
L 170.264828 94.903658 
L 176.156862 231.80952 
L 182.048896 286.003636 
L 187.94093 43.338262 
L 193.832964 173.340415 
" style="fill:none;stroke:#404588;stroke-linecap:square;stroke-opacity:0.8;stroke-width:3;"/>
   </g>
   <g id="line2d_24">
    <path clip-path="url(#p54342d156d)" d="M 81.884318 231.305018 
L 87.776352 286.003636 
L 93.668386 286.003636 
L 99.56042 286.003636 
L 105.452454 248.139447 
L 111.344488 269.461287 
L 117.236522 143.654465 
L 123.128556 286.003636 
L 129.02059 224.135782 
L 134.912624 212.426029 
L 140.804658 273.072458 
L 146.696692 120.500487 
L 152.588726 281.224145 
L 158.48076 253.768625 
L 164.372794 240.439156 
L 170.264828 22.547476 
L 176.156862 20.980865 
L 182.048896 202.548415 
L 187.94093 230.003935 
L 193.832964 164.578015 
L 199.724998 24.777905 
L 205.617032 41.214044 
L 211.509066 71.855891 
L 217.4011 167.923658 
L 223.293134 123.793025 
L 229.185168 47.161855 
L 235.077202 47.666356 
L 240.969236 76.42296 
L 246.86127 123.15576 
L 252.753303 283.640444 
" style="fill:none;stroke:#3e4a89;stroke-linecap:square;stroke-opacity:0.8;stroke-width:3;"/>
   </g>
   <g id="line2d_25">
    <path clip-path="url(#p54342d156d)" d="M 81.884318 112.428458 
L 87.776352 185.023615 
L 93.668386 51.250975 
L 99.56042 138.901527 
L 105.452454 156.267011 
L 111.344488 71.962102 
L 117.236522 60.809956 
L 123.128556 125.412742 
L 129.02059 272.647615 
L 134.912624 86.539549 
L 140.804658 90.283484 
L 146.696692 135.794858 
L 152.588726 265.531484 
L 158.48076 65.03184 
L 164.372794 276.471207 
L 170.264828 68.032298 
L 176.156862 245.059331 
L 182.048896 82.636298 
L 187.94093 76.369855 
L 193.832964 239.722233 
" style="fill:none;stroke:#3c508b;stroke-linecap:square;stroke-opacity:0.8;stroke-width:3;"/>
   </g>
   <g id="line2d_26">
    <path clip-path="url(#p54342d156d)" d="M 81.884318 270.204764 
L 87.776352 274.585964 
L 93.668386 82.636298 
L 99.56042 254.379338 
L 105.452454 148.380851 
L 111.344488 61.181695 
L 117.236522 147.717033 
L 123.128556 266.089091 
L 129.02059 248.670502 
L 134.912624 59.747847 
L 140.804658 24.777905 
L 146.696692 278.621978 
L 152.588726 286.003636 
L 158.48076 277.161578 
L 164.372794 277.161578 
L 170.264828 20.980865 
L 176.156862 22.547476 
L 182.048896 41.214044 
L 187.94093 71.298284 
L 193.832964 146.681476 
" style="fill:none;stroke:#39558c;stroke-linecap:square;stroke-opacity:0.8;stroke-width:3;"/>
   </g>
   <g id="line2d_27">
    <path clip-path="url(#p54342d156d)" d="M 81.884318 47.666356 
L 87.776352 258.282589 
L 93.668386 80.458975 
L 99.56042 286.003636 
L 105.452454 286.003636 
L 111.344488 72.572815 
L 117.236522 24.485825 
L 123.128556 53.428298 
L 129.02059 20.980865 
L 134.912624 102.258764 
L 140.804658 202.840495 
L 146.696692 199.893142 
L 152.588726 72.546262 
" style="fill:none;stroke:#365c8d;stroke-linecap:square;stroke-opacity:0.8;stroke-width:3;"/>
   </g>
   <g id="line2d_28">
    <path clip-path="url(#p54342d156d)" d="M 81.884318 86.274022 
L 87.776352 286.003636 
L 93.668386 264.150742 
L 99.56042 177.137455 
L 105.452454 280.905513 
L 111.344488 240.625025 
L 117.236522 247.87392 
L 123.128556 197.476844 
L 129.02059 273.417644 
L 134.912624 191.475927 
L 140.804658 86.274022 
L 146.696692 286.003636 
L 152.588726 264.150742 
L 158.48076 177.137455 
L 164.372794 280.905513 
L 170.264828 240.625025 
L 176.156862 247.87392 
L 182.048896 197.476844 
L 187.94093 273.417644 
L 193.832964 191.475927 
L 199.724998 59.747847 
L 205.617032 49.312625 
L 211.509066 227.906269 
L 217.4011 272.302429 
L 223.293134 271.665164 
L 229.185168 251.193011 
L 235.077202 94.186735 
L 240.969236 53.34864 
L 246.86127 72.572815 
L 252.753303 24.777905 
L 258.645337 29.39808 
L 264.537371 86.274022 
L 270.429405 286.003636 
L 276.321439 264.150742 
L 282.213473 177.137455 
L 288.105507 280.905513 
L 293.997541 240.625025 
L 299.889575 247.87392 
L 305.781609 197.476844 
L 311.673643 273.417644 
L 317.565677 191.475927 
L 323.457711 59.747847 
L 329.349745 49.312625 
L 335.241779 227.906269 
L 341.133813 272.302429 
L 347.025847 271.665164 
L 352.917881 251.193011 
L 358.809915 94.186735 
L 364.701949 53.34864 
L 370.593983 72.572815 
L 376.486017 24.777905 
L 382.378051 29.39808 
L 388.270085 106.586858 
L 394.162119 50.162313 
L 400.054153 149.602276 
L 405.946187 132.422662 
L 411.838221 69.253724 
L 417.730255 119.438378 
L 423.622289 161.869636 
L 429.514323 24.777905 
L 435.406357 209.266255 
L 441.298391 250.980589 
L 447.190425 24.777905 
L 453.082459 24.777905 
L 458.974493 24.777905 
L 464.866527 24.777905 
L 470.758561 24.777905 
" style="fill:none;stroke:#34618d;stroke-linecap:square;stroke-opacity:0.8;stroke-width:3;"/>
   </g>
   <g id="line2d_29">
    <path clip-path="url(#p54342d156d)" d="M 81.884318 270.204764 
L 87.776352 274.585964 
L 93.668386 82.636298 
L 99.56042 254.379338 
L 105.452454 148.380851 
L 111.344488 61.181695 
L 117.236522 147.717033 
L 123.128556 266.089091 
L 129.02059 248.670502 
L 134.912624 59.747847 
L 140.804658 24.777905 
L 146.696692 278.621978 
L 152.588726 72.546262 
L 158.48076 61.659644 
L 164.372794 157.647753 
L 170.264828 54.994909 
L 176.156862 209.266255 
L 182.048896 65.03184 
L 187.94093 29.39808 
L 193.832964 125.917244 
L 199.724998 71.298284 
L 205.617032 146.681476 
L 211.509066 20.980865 
L 217.4011 22.547476 
L 223.293134 41.214044 
L 229.185168 71.855891 
L 235.077202 164.578015 
L 240.969236 167.923658 
L 246.86127 119.385273 
L 252.753303 47.666356 
L 258.645337 53.428298 
L 264.537371 47.161855 
L 270.429405 24.485825 
L 276.321439 254.990051 
L 282.213473 226.791055 
" style="fill:none;stroke:#31668e;stroke-linecap:square;stroke-opacity:0.8;stroke-width:3;"/>
   </g>
   <g id="line2d_30">
    <path clip-path="url(#p54342d156d)" d="M 81.884318 271.426189 
L 87.776352 270.204764 
L 93.668386 270.735818 
L 99.56042 254.990051 
L 105.452454 148.380851 
L 111.344488 78.387862 
L 117.236522 201.4332 
L 123.128556 269.381629 
L 129.02059 266.27496 
L 134.912624 180.934495 
L 140.804658 88.716873 
L 146.696692 233.85408 
L 152.588726 248.139447 
L 158.48076 254.59176 
L 164.372794 47.79912 
L 170.264828 110.038713 
L 176.156862 279.816851 
L 182.048896 43.656895 
L 187.94093 61.261353 
L 193.832964 151.381309 
L 199.724998 63.969731 
L 205.617032 241.474713 
L 211.509066 32.478196 
L 217.4011 191.449375 
L 223.293134 108.525207 
" style="fill:none;stroke:#2f6b8e;stroke-linecap:square;stroke-opacity:0.8;stroke-width:3;"/>
   </g>
   <g id="line2d_31">
    <path clip-path="url(#p54342d156d)" d="M 81.884318 112.428458 
L 87.776352 80.458975 
L 93.668386 273.417644 
L 99.56042 286.003636 
L 105.452454 211.257709 
L 111.344488 76.369855 
L 117.236522 138.901527 
L 123.128556 156.267011 
L 129.02059 86.274022 
L 134.912624 51.250975 
L 140.804658 67.926087 
L 146.696692 243.333404 
L 152.588726 275.488756 
L 158.48076 121.190858 
L 164.372794 67.926087 
L 170.264828 262.371709 
L 176.156862 49.312625 
L 182.048896 80.007578 
" style="fill:none;stroke:#2d718e;stroke-linecap:square;stroke-opacity:0.8;stroke-width:3;"/>
   </g>
   <g id="line2d_32">
    <path clip-path="url(#p54342d156d)" d="M 81.884318 272.647615 
L 87.776352 51.250975 
L 93.668386 265.531484 
L 99.56042 245.059331 
L 105.452454 65.03184 
L 111.344488 53.428298 
L 117.236522 69.253724 
L 123.128556 71.962102 
L 129.02059 60.809956 
L 134.912624 185.023615 
L 140.804658 135.794858 
L 146.696692 90.283484 
L 152.588726 107.994153 
L 158.48076 98.780356 
L 164.372794 172.835913 
L 170.264828 61.181695 
L 176.156862 20.980865 
L 182.048896 82.636298 
L 187.94093 254.379338 
L 193.832964 148.380851 
L 199.724998 41.214044 
L 205.617032 95.328502 
L 211.509066 215.134407 
L 217.4011 235.208269 
L 223.293134 202.840495 
L 229.185168 59.747847 
L 235.077202 278.621978 
L 240.969236 147.717033 
L 246.86127 266.089091 
L 252.753303 72.546262 
L 258.645337 171.508276 
L 264.537371 180.934495 
L 270.429405 271.001345 
L 276.321439 265.080087 
L 282.213473 230.986385 
L 288.105507 20.529469 
L 293.997541 120.500487 
L 299.889575 43.869316 
L 305.781609 125.917244 
L 311.673643 146.681476 
" style="fill:none;stroke:#2b758e;stroke-linecap:square;stroke-opacity:0.8;stroke-width:3;"/>
   </g>
   <g id="line2d_33">
    <path clip-path="url(#p54342d156d)" d="M 81.884318 285.817767 
L 87.776352 258.282589 
L 93.668386 80.458975 
L 99.56042 90.602116 
L 105.452454 118.376269 
L 111.344488 151.806153 
L 117.236522 286.003636 
L 123.128556 209.956625 
L 129.02059 208.575884 
L 134.912624 139.51224 
L 140.804658 285.817767 
L 146.696692 80.458975 
L 152.588726 118.376269 
L 158.48076 286.003636 
L 164.372794 151.806153 
L 170.264828 139.51224 
L 176.156862 71.962102 
L 182.048896 124.032 
L 187.94093 67.527796 
L 193.832964 112.428458 
L 199.724998 157.647753 
L 205.617032 96.337505 
L 211.509066 156.134247 
L 217.4011 120.978436 
L 223.293134 61.659644 
L 229.185168 286.003636 
L 235.077202 262.504473 
L 240.969236 47.666356 
L 246.86127 209.956625 
L 252.753303 184.704982 
L 258.645337 20.980865 
L 264.537371 22.547476 
L 270.429405 20.529469 
L 276.321439 120.500487 
L 282.213473 43.869316 
" style="fill:none;stroke:#297a8e;stroke-linecap:square;stroke-opacity:0.8;stroke-width:3;"/>
   </g>
   <g id="line2d_34">
    <path clip-path="url(#p54342d156d)" d="M 81.884318 286.003636 
L 87.776352 286.003636 
L 93.668386 286.003636 
L 99.56042 286.003636 
L 105.452454 273.099011 
L 111.344488 156.134247 
L 117.236522 88.716873 
L 123.128556 279.816851 
L 129.02059 179.102356 
L 134.912624 250.608851 
L 140.804658 24.777905 
L 146.696692 239.377047 
L 152.588726 233.030945 
L 158.48076 227.375215 
L 164.372794 260.486465 
L 170.264828 200.477302 
L 176.156862 75.360851 
L 182.048896 61.659644 
L 187.94093 200.477302 
L 193.832964 180.934495 
L 199.724998 72.572815 
L 205.617032 29.39808 
L 211.509066 209.266255 
L 217.4011 147.717033 
L 223.293134 61.181695 
L 229.185168 22.547476 
L 235.077202 20.980865 
L 240.969236 167.923658 
L 246.86127 125.917244 
L 252.753303 43.869316 
L 258.645337 53.428298 
L 264.537371 24.485825 
L 270.429405 164.578015 
L 276.321439 120.500487 
L 282.213473 41.214044 
" style="fill:none;stroke:#277f8e;stroke-linecap:square;stroke-opacity:0.8;stroke-width:3;"/>
   </g>
   <g id="line2d_35">
    <path clip-path="url(#p54342d156d)" d="M 81.884318 286.003636 
L 87.776352 228.809062 
L 93.668386 208.549331 
L 99.56042 285.817767 
L 105.452454 155.311113 
L 111.344488 200.052458 
L 117.236522 256.848742 
L 123.128556 259.716436 
L 129.02059 90.602116 
L 134.912624 251.936487 
L 140.804658 284.543236 
L 146.696692 258.282589 
L 152.588726 286.003636 
L 158.48076 286.003636 
L 164.372794 260.645782 
L 170.264828 286.003636 
L 176.156862 262.504473 
L 182.048896 286.003636 
L 187.94093 286.003636 
L 193.832964 211.257709 
L 199.724998 280.533775 
L 205.617032 118.376269 
L 211.509066 282.259702 
L 217.4011 274.639069 
L 223.293134 286.003636 
L 229.185168 286.003636 
L 235.077202 246.386967 
L 240.969236 192.883222 
L 246.86127 192.883222 
L 252.753303 192.883222 
L 258.645337 280.905513 
L 264.537371 237.65112 
L 270.429405 270.125105 
L 276.321439 286.003636 
L 282.213473 225.596182 
L 288.105507 157.886727 
L 293.997541 232.340575 
L 299.889575 189.803105 
L 305.781609 286.003636 
L 311.673643 184.704982 
L 317.565677 47.666356 
L 323.457711 151.806153 
L 329.349745 285.817767 
L 335.241779 209.956625 
L 341.133813 209.956625 
L 347.025847 76.369855 
L 352.917881 265.770458 
L 358.809915 208.177593 
L 364.701949 269.036444 
L 370.593983 245.749702 
L 376.486017 119.385273 
L 382.378051 45.993535 
L 388.270085 47.161855 
L 394.162119 53.428298 
L 400.054153 138.104945 
L 405.946187 123.793025 
L 411.838221 24.485825 
L 417.730255 20.980865 
L 423.622289 41.214044 
L 429.514323 22.547476 
" style="fill:none;stroke:#25838e;stroke-linecap:square;stroke-opacity:0.8;stroke-width:3;"/>
   </g>
   <g id="line2d_36">
    <path clip-path="url(#p54342d156d)" d="M 81.884318 221.985011 
L 87.776352 75.971564 
L 93.668386 72.546262 
L 99.56042 286.003636 
L 105.452454 278.993716 
L 111.344488 65.03184 
L 117.236522 51.250975 
L 123.128556 60.809956 
L 129.02059 24.777905 
L 134.912624 69.253724 
" style="fill:none;stroke:#23898e;stroke-linecap:square;stroke-opacity:0.8;stroke-width:3;"/>
   </g>
   <g id="line2d_37">
    <path clip-path="url(#p54342d156d)" d="M 81.884318 242.350953 
L 87.776352 242.350953 
L 93.668386 286.003636 
L 99.56042 269.036444 
L 105.452454 286.003636 
L 111.344488 169.808902 
L 117.236522 283.79976 
L 123.128556 271.771375 
L 129.02059 286.003636 
L 134.912624 286.003636 
L 140.804658 112.428458 
L 146.696692 160.409236 
L 152.588726 114.419913 
L 158.48076 211.36392 
L 164.372794 90.283484 
L 170.264828 109.454553 
L 176.156862 278.595425 
L 182.048896 147.345295 
L 187.94093 278.037818 
L 193.832964 126.899695 
L 199.724998 143.973098 
L 205.617032 83.565644 
L 211.509066 146.681476 
L 217.4011 251.166458 
L 223.293134 286.003636 
L 229.185168 266.089091 
L 235.077202 61.181695 
L 240.969236 77.2992 
L 246.86127 122.252967 
L 252.753303 61.659644 
" style="fill:none;stroke:#218e8d;stroke-linecap:square;stroke-opacity:0.8;stroke-width:3;"/>
   </g>
   <g id="line2d_38">
    <path clip-path="url(#p54342d156d)" d="M 81.884318 47.666356 
L 87.776352 82.397324 
L 93.668386 189.803105 
L 99.56042 200.052458 
L 105.452454 151.806153 
L 111.344488 138.104945 
L 117.236522 53.428298 
L 123.128556 45.993535 
L 129.02059 119.385273 
L 134.912624 47.161855 
L 140.804658 24.485825 
L 146.696692 123.793025 
L 152.588726 20.980865 
L 158.48076 80.166895 
L 164.372794 81.945927 
L 170.264828 71.855891 
L 176.156862 164.578015 
L 182.048896 167.923658 
L 187.94093 235.208269 
L 193.832964 215.134407 
" style="fill:none;stroke:#20928c;stroke-linecap:square;stroke-opacity:0.8;stroke-width:3;"/>
   </g>
   <g id="line2d_39">
    <path clip-path="url(#p54342d156d)" d="M 81.884318 213.036742 
L 87.776352 208.549331 
L 93.668386 111.578771 
L 99.56042 176.208109 
L 105.452454 264.469375 
L 111.344488 251.193011 
L 117.236522 267.018436 
L 123.128556 286.003636 
L 129.02059 243.014771 
L 134.912624 90.602116 
L 140.804658 286.003636 
L 146.696692 285.074291 
L 152.588726 119.199404 
L 158.48076 269.434735 
L 164.372794 286.003636 
L 170.264828 286.003636 
L 176.156862 286.003636 
L 182.048896 286.003636 
L 187.94093 286.003636 
L 193.832964 286.003636 
L 199.724998 208.177593 
L 205.617032 245.749702 
L 211.509066 143.60136 
L 217.4011 114.419913 
L 223.293134 44.081738 
L 229.185168 114.791651 
L 235.077202 271.479295 
L 240.969236 200.052458 
L 246.86127 166.489811 
L 252.753303 263.566582 
L 258.645337 244.262749 
L 264.537371 154.833164 
L 270.429405 280.905513 
L 276.321439 284.251156 
L 282.213473 269.036444 
L 288.105507 269.036444 
L 293.997541 136.936625 
L 299.889575 107.648967 
L 305.781609 80.458975 
L 311.673643 160.409236 
L 317.565677 118.376269 
L 323.457711 286.003636 
L 329.349745 208.575884 
L 335.241779 47.666356 
L 341.133813 154.833164 
L 347.025847 151.275098 
L 352.917881 118.1904 
L 358.809915 104.515745 
L 364.701949 225.250996 
L 370.593983 95.965767 
L 376.486017 284.941527 
L 382.378051 191.369716 
L 388.270085 205.256793 
L 394.162119 65.03184 
L 400.054153 82.397324 
L 405.946187 225.861709 
L 411.838221 20.980865 
L 417.730255 167.923658 
L 423.622289 278.595425 
L 429.514323 75.360851 
L 435.406357 22.547476 
L 441.298391 24.777905 
L 447.190425 41.214044 
L 453.082459 24.485825 
L 458.974493 72.546262 
L 464.866527 53.428298 
L 470.758561 47.161855 
L 476.650595 76.42296 
L 482.542629 157.647753 
L 488.434663 61.181695 
" style="fill:none;stroke:#1f978b;stroke-linecap:square;stroke-opacity:0.8;stroke-width:3;"/>
   </g>
   <g id="line2d_40">
    <path clip-path="url(#p54342d156d)" d="M 81.884318 236.748327 
L 87.776352 267.337069 
L 93.668386 260.194385 
L 99.56042 107.994153 
L 105.452454 286.003636 
L 111.344488 286.003636 
L 117.236522 266.27496 
L 123.128556 270.895135 
L 129.02059 286.003636 
L 134.912624 161.869636 
L 140.804658 272.647615 
L 146.696692 265.531484 
L 152.588726 68.032298 
L 158.48076 220.790138 
L 164.372794 51.250975 
L 170.264828 125.412742 
L 176.156862 245.059331 
L 182.048896 86.539549 
L 187.94093 65.03184 
L 193.832964 276.471207 
L 199.724998 208.336909 
L 205.617032 286.003636 
L 211.509066 263.699345 
L 217.4011 280.799302 
L 223.293134 135.794858 
L 229.185168 249.121898 
L 235.077202 227.42832 
L 240.969236 232.68576 
L 246.86127 106.586858 
L 252.753303 286.003636 
L 258.645337 71.962102 
L 264.537371 60.809956 
L 270.429405 158.152255 
L 276.321439 80.007578 
L 282.213473 61.181695 
L 288.105507 53.428298 
L 293.997541 69.253724 
L 299.889575 63.359018 
L 305.781609 29.39808 
L 311.673643 24.777905 
L 317.565677 149.602276 
L 323.457711 265.239404 
L 329.349745 90.283484 
L 335.241779 286.003636 
L 341.133813 229.340116 
L 347.025847 99.444175 
L 352.917881 106.427542 
L 358.809915 250.263665 
L 364.701949 49.312625 
L 370.593983 59.747847 
L 376.486017 104.568851 
L 382.378051 119.783564 
L 388.270085 239.722233 
L 394.162119 49.976444 
L 400.054153 82.636298 
L 405.946187 20.980865 
L 411.838221 22.547476 
L 417.730255 41.214044 
L 423.622289 54.994909 
L 429.514323 209.266255 
" style="fill:none;stroke:#1e9d89;stroke-linecap:square;stroke-opacity:0.8;stroke-width:3;"/>
   </g>
   <g id="line2d_41">
    <path clip-path="url(#p54342d156d)" d="M 81.884318 272.143113 
L 87.776352 248.059789 
L 93.668386 273.125564 
L 99.56042 185.023615 
L 105.452454 164.206276 
L 111.344488 286.003636 
L 117.236522 250.980589 
L 123.128556 283.189047 
L 129.02059 260.539571 
L 134.912624 281.46312 
L 140.804658 164.206276 
L 146.696692 276.683629 
L 152.588726 241.076422 
L 158.48076 282.657993 
L 164.372794 265.292509 
L 170.264828 164.206276 
L 176.156862 232.97784 
L 182.048896 272.860036 
L 187.94093 274.240778 
L 193.832964 94.186735 
L 199.724998 94.186735 
L 205.617032 187.838204 
L 211.509066 53.34864 
L 217.4011 49.312625 
L 223.293134 49.312625 
L 229.185168 277.66608 
L 235.077202 80.007578 
L 240.969236 227.906269 
L 246.86127 272.302429 
L 252.753303 271.665164 
L 258.645337 232.68576 
L 264.537371 227.906269 
L 270.429405 49.312625 
L 276.321439 67.926087 
L 282.213473 69.652015 
L 288.105507 227.401767 
L 293.997541 250.263665 
L 299.889575 53.34864 
L 305.781609 94.186735 
L 311.673643 49.312625 
L 317.565677 86.539549 
L 323.457711 86.274022 
L 329.349745 53.34864 
" style="fill:none;stroke:#1fa187;stroke-linecap:square;stroke-opacity:0.8;stroke-width:3;"/>
   </g>
   <g id="line2d_42">
    <path clip-path="url(#p54342d156d)" d="M 81.884318 167.206735 
L 87.776352 254.963498 
L 93.668386 186.802647 
L 99.56042 209.186596 
L 105.452454 107.648967 
L 111.344488 62.509331 
L 117.236522 278.595425 
L 123.128556 60.809956 
L 129.02059 158.152255 
L 134.912624 137.839418 
L 140.804658 61.659644 
L 146.696692 51.250975 
L 152.588726 106.427542 
L 158.48076 275.170124 
L 164.372794 69.253724 
" style="fill:none;stroke:#21a685;stroke-linecap:square;stroke-opacity:0.8;stroke-width:3;"/>
   </g>
   <g id="line2d_43">
    <path clip-path="url(#p54342d156d)" d="M 81.884318 218.294182 
L 87.776352 185.023615 
L 93.668386 215.638909 
L 99.56042 211.36392 
L 105.452454 169.808902 
L 111.344488 112.428458 
L 117.236522 51.250975 
L 123.128556 107.994153 
L 129.02059 107.648967 
L 134.912624 192.883222 
L 140.804658 80.007578 
L 146.696692 61.181695 
L 152.588726 272.647615 
L 158.48076 220.790138 
L 164.372794 245.059331 
L 170.264828 65.03184 
L 176.156862 265.531484 
L 182.048896 89.407244 
L 187.94093 86.539549 
L 193.832964 68.032298 
" style="fill:none;stroke:#25ab82;stroke-linecap:square;stroke-opacity:0.8;stroke-width:3;"/>
   </g>
   <g id="line2d_44">
    <path clip-path="url(#p54342d156d)" d="M 81.884318 76.369855 
L 87.776352 174.747709 
L 93.668386 266.726356 
L 99.56042 211.257709 
L 105.452454 286.003636 
L 111.344488 112.428458 
L 117.236522 271.479295 
L 123.128556 86.274022 
L 129.02059 269.036444 
L 134.912624 286.003636 
L 140.804658 269.620604 
L 146.696692 103.559847 
L 152.588726 133.776851 
L 158.48076 68.032298 
L 164.372794 208.177593 
L 170.264828 209.956625 
L 176.156862 161.12616 
L 182.048896 86.539549 
L 187.94093 232.68576 
L 193.832964 267.337069 
" style="fill:none;stroke:#29af7f;stroke-linecap:square;stroke-opacity:0.8;stroke-width:3;"/>
   </g>
   <g id="line2d_45">
    <path clip-path="url(#p54342d156d)" d="M 81.884318 151.806153 
L 87.776352 184.704982 
L 93.668386 90.602116 
L 99.56042 285.817767 
L 105.452454 47.666356 
L 111.344488 138.104945 
L 117.236522 53.428298 
L 123.128556 45.993535 
L 129.02059 24.485825 
L 134.912624 200.052458 
L 140.804658 20.980865 
L 146.696692 20.476364 
L 152.588726 54.994909 
L 158.48076 20.476364 
L 164.372794 199.893142 
L 170.264828 20.980865 
" style="fill:none;stroke:#31b57b;stroke-linecap:square;stroke-opacity:0.8;stroke-width:3;"/>
   </g>
   <g id="line2d_46">
    <path clip-path="url(#p54342d156d)" d="M 81.884318 165.958756 
L 87.776352 166.489811 
L 93.668386 251.936487 
L 99.56042 63.412124 
L 105.452454 285.074291 
L 111.344488 114.791651 
L 117.236522 81.521084 
L 123.128556 98.010327 
L 129.02059 77.724044 
L 134.912624 96.337505 
L 140.804658 92.434255 
L 146.696692 286.003636 
L 152.588726 215.134407 
L 158.48076 270.390633 
L 164.372794 197.476844 
L 170.264828 56.508415 
L 176.156862 52.791033 
L 182.048896 112.428458 
L 187.94093 80.458975 
L 193.832964 126.899695 
L 199.724998 61.659644 
L 205.617032 49.232967 
L 211.509066 62.509331 
L 217.4011 107.648967 
L 223.293134 143.60136 
L 229.185168 51.250975 
L 235.077202 75.360851 
L 240.969236 124.032 
L 246.86127 205.787847 
L 252.753303 183.828742 
L 258.645337 188.687891 
L 264.537371 92.460807 
L 270.429405 94.266393 
L 276.321439 202.335993 
L 282.213473 225.277549 
" style="fill:none;stroke:#38b977;stroke-linecap:square;stroke-opacity:0.8;stroke-width:3;"/>
   </g>
   <g id="line2d_47">
    <path clip-path="url(#p54342d156d)" d="M 81.884318 270.204764 
L 87.776352 61.181695 
L 93.668386 59.747847 
L 99.56042 82.636298 
L 105.452454 274.585964 
L 111.344488 187.838204 
L 117.236522 171.508276 
L 123.128556 180.934495 
L 129.02059 271.001345 
L 134.912624 116.384815 
L 140.804658 230.986385 
L 146.696692 268.797469 
L 152.588726 265.080087 
L 158.48076 267.337069 
L 164.372794 271.665164 
L 170.264828 24.777905 
L 176.156862 147.717033 
L 182.048896 248.670502 
L 187.94093 148.380851 
L 193.832964 278.621978 
L 199.724998 54.994909 
L 205.617032 209.266255 
L 211.509066 232.924735 
L 217.4011 71.298284 
L 223.293134 20.529469 
L 229.185168 95.328502 
L 235.077202 120.500487 
L 240.969236 43.869316 
L 246.86127 95.328502 
L 252.753303 215.134407 
L 258.645337 235.208269 
" style="fill:none;stroke:#40bd72;stroke-linecap:square;stroke-opacity:0.8;stroke-width:3;"/>
   </g>
   <g id="line2d_48">
    <path clip-path="url(#p54342d156d)" d="M 81.884318 61.659644 
L 87.776352 179.102356 
L 93.668386 236.589011 
L 99.56042 200.477302 
L 105.452454 284.649447 
L 111.344488 61.181695 
L 117.236522 72.546262 
L 123.128556 157.647753 
L 129.02059 60.809956 
L 134.912624 61.686196 
L 140.804658 266.27496 
L 146.696692 180.934495 
L 152.588726 22.547476 
L 158.48076 81.521084 
L 164.372794 269.461287 
L 170.264828 20.529469 
L 176.156862 120.500487 
L 182.048896 43.869316 
L 187.94093 41.214044 
L 193.832964 20.980865 
" style="fill:none;stroke:#4ac16d;stroke-linecap:square;stroke-opacity:0.8;stroke-width:3;"/>
   </g>
   <g id="line2d_49">
    <path clip-path="url(#p54342d156d)" d="M 81.884318 157.992938 
L 87.776352 114.791651 
L 93.668386 102.444633 
L 99.56042 223.604727 
L 105.452454 265.584589 
L 111.344488 50.162313 
L 117.236522 98.780356 
L 123.128556 106.586858 
L 129.02059 95.965767 
L 134.912624 151.275098 
L 140.804658 69.253724 
L 146.696692 132.422662 
L 152.588726 119.438378 
L 158.48076 263.93832 
L 164.372794 229.127695 
L 170.264828 286.003636 
L 176.156862 265.584589 
L 182.048896 275.9136 
L 187.94093 251.246116 
L 193.832964 249.493636 
" style="fill:none;stroke:#56c667;stroke-linecap:square;stroke-opacity:0.8;stroke-width:3;"/>
   </g>
   <g id="line2d_50">
    <path clip-path="url(#p54342d156d)" d="M 81.884318 270.204764 
L 87.776352 274.585964 
L 93.668386 82.636298 
L 99.56042 254.379338 
L 105.452454 148.380851 
L 111.344488 61.181695 
L 117.236522 147.717033 
L 123.128556 266.089091 
L 129.02059 248.670502 
L 134.912624 59.747847 
L 140.804658 24.777905 
L 146.696692 278.621978 
L 152.588726 171.508276 
L 158.48076 180.934495 
L 164.372794 271.001345 
L 170.264828 20.980865 
L 176.156862 22.547476 
L 182.048896 41.214044 
L 187.94093 71.298284 
L 193.832964 146.681476 
L 199.724998 71.855891 
L 205.617032 164.578015 
L 211.509066 167.923658 
L 217.4011 47.161855 
L 223.293134 53.428298 
L 229.185168 123.793025 
L 235.077202 24.485825 
L 240.969236 119.385273 
L 246.86127 45.993535 
L 252.753303 138.104945 
L 258.645337 230.986385 
L 264.537371 268.797469 
L 270.429405 265.080087 
L 276.321439 86.539549 
L 282.213473 49.312625 
" style="fill:none;stroke:#60ca60;stroke-linecap:square;stroke-opacity:0.8;stroke-width:3;"/>
   </g>
   <g id="line2d_51">
    <path clip-path="url(#p54342d156d)" d="M 81.884318 24.777905 
L 87.776352 54.994909 
L 93.668386 209.266255 
L 99.56042 20.980865 
L 105.452454 22.547476 
L 111.344488 41.214044 
L 117.236522 63.359018 
L 123.128556 41.638887 
L 129.02059 85.636756 
L 134.912624 95.328502 
" style="fill:none;stroke:#6ccd5a;stroke-linecap:square;stroke-opacity:0.8;stroke-width:3;"/>
   </g>
   <g id="line2d_52">
    <path clip-path="url(#p54342d156d)" d="M 81.884318 286.003636 
L 87.776352 211.841869 
L 93.668386 83.326669 
L 99.56042 158.152255 
L 105.452454 286.003636 
L 111.344488 54.145222 
L 117.236522 56.428756 
L 123.128556 89.407244 
L 129.02059 196.813025 
L 134.912624 147.796691 
L 140.804658 241.819898 
L 146.696692 251.246116 
L 152.588726 272.886589 
L 158.48076 47.79912 
L 164.372794 78.387862 
L 170.264828 56.428756 
L 176.156862 69.652015 
L 182.048896 77.2992 
L 187.94093 237.783884 
L 193.832964 108.525207 
L 199.724998 32.478196 
L 205.617032 47.161855 
L 211.509066 69.253724 
L 217.4011 22.547476 
L 223.293134 53.428298 
L 229.185168 20.980865 
" style="fill:none;stroke:#77d153;stroke-linecap:square;stroke-opacity:0.8;stroke-width:3;"/>
   </g>
   <g id="line2d_53">
    <path clip-path="url(#p54342d156d)" d="M 81.884318 280.905513 
L 87.776352 286.003636 
L 93.668386 286.003636 
L 99.56042 274.798385 
L 105.452454 274.108015 
L 111.344488 286.003636 
L 117.236522 49.312625 
L 123.128556 279.498218 
L 129.02059 266.301513 
L 134.912624 243.572378 
L 140.804658 227.906269 
L 146.696692 272.302429 
L 152.588726 271.665164 
L 158.48076 53.34864 
L 164.372794 59.747847 
L 170.264828 69.652015 
L 176.156862 227.401767 
L 182.048896 94.186735 
L 187.94093 187.838204 
L 193.832964 164.206276 
L 199.724998 94.903658 
L 205.617032 180.934495 
L 211.509066 86.539549 
L 217.4011 271.001345 
L 223.293134 260.72544 
L 229.185168 67.926087 
L 235.077202 142.43304 
L 240.969236 171.508276 
L 246.86127 254.990051 
L 252.753303 99.444175 
L 258.645337 121.270516 
L 264.537371 164.259382 
L 270.429405 254.113811 
L 276.321439 49.976444 
L 282.213473 277.66608 
L 288.105507 80.007578 
L 293.997541 277.161578 
L 299.889575 280.347905 
L 305.781609 29.39808 
L 311.673643 249.175004 
L 317.565677 107.542756 
L 323.457711 205.256793 
L 329.349745 24.777905 
L 335.241779 54.994909 
L 341.133813 47.161855 
" style="fill:none;stroke:#84d44b;stroke-linecap:square;stroke-opacity:0.8;stroke-width:3;"/>
   </g>
   <g id="line2d_54">
    <path clip-path="url(#p54342d156d)" d="M 81.884318 71.962102 
L 87.776352 285.313265 
L 93.668386 159.66576 
L 99.56042 99.444175 
L 105.452454 210.248705 
L 111.344488 150.770596 
L 117.236522 109.454553 
L 123.128556 167.206735 
L 129.02059 158.152255 
L 134.912624 51.250975 
L 140.804658 60.809956 
L 146.696692 138.901527 
L 152.588726 156.267011 
L 158.48076 112.428458 
L 164.372794 80.007578 
L 170.264828 61.181695 
" style="fill:none;stroke:#93d741;stroke-linecap:square;stroke-opacity:0.8;stroke-width:3;"/>
   </g>
   <g id="line2d_55">
    <path clip-path="url(#p54342d156d)" d="M 81.884318 277.480211 
L 87.776352 119.199404 
L 93.668386 274.798385 
L 99.56042 258.123273 
L 105.452454 147.796691 
L 111.344488 52.791033 
L 117.236522 273.417644 
L 123.128556 208.177593 
L 129.02059 177.137455 
L 134.912624 165.958756 
L 140.804658 62.509331 
L 146.696692 60.809956 
L 152.588726 49.232967 
L 158.48076 61.686196 
L 164.372794 112.428458 
" style="fill:none;stroke:#a0da39;stroke-linecap:square;stroke-opacity:0.8;stroke-width:3;"/>
   </g>
   <g id="line2d_56">
    <path clip-path="url(#p54342d156d)" d="M 81.884318 284.543236 
L 87.776352 246.254204 
L 93.668386 258.123273 
L 99.56042 107.648967 
L 105.452454 286.003636 
L 111.344488 104.515745 
L 117.236522 52.791033 
L 123.128556 63.412124 
L 129.02059 56.508415 
L 134.912624 179.713069 
L 140.804658 112.428458 
L 146.696692 80.458975 
L 152.588726 208.575884 
L 158.48076 62.509331 
L 164.372794 60.809956 
L 170.264828 51.250975 
L 176.156862 61.659644 
L 182.048896 61.686196 
L 187.94093 49.232967 
L 193.832964 57.278444 
L 199.724998 75.360851 
L 205.617032 173.340415 
L 211.509066 281.091382 
L 217.4011 94.903658 
L 223.293134 168.507818 
L 229.185168 231.80952 
L 235.077202 252.520647 
L 240.969236 43.338262 
L 246.86127 286.003636 
L 252.753303 286.003636 
L 258.645337 105.843382 
L 264.537371 183.695978 
L 270.429405 176.871927 
L 276.321439 64.952182 
L 282.213473 20.476364 
" style="fill:none;stroke:#addc30;stroke-linecap:square;stroke-opacity:0.8;stroke-width:3;"/>
   </g>
   <g id="line2d_57">
    <path clip-path="url(#p54342d156d)" d="M 81.884318 242.271295 
L 87.776352 268.90368 
L 93.668386 151.142335 
L 99.56042 98.780356 
L 105.452454 150.770596 
L 111.344488 95.965767 
L 117.236522 71.855891 
L 123.128556 85.636756 
L 129.02059 256.317687 
L 134.912624 102.258764 
" style="fill:none;stroke:#bade28;stroke-linecap:square;stroke-opacity:0.8;stroke-width:3;"/>
   </g>
   <g id="line2d_58">
    <path clip-path="url(#p54342d156d)" d="M 81.884318 281.46312 
L 87.776352 268.000887 
L 93.668386 269.461287 
L 99.56042 264.602138 
L 105.452454 165.958756 
L 111.344488 232.97784 
L 117.236522 64.952182 
L 123.128556 286.003636 
L 129.02059 273.417644 
L 134.912624 208.177593 
L 140.804658 72.572815 
L 146.696692 47.666356 
L 152.588726 67.395033 
L 158.48076 166.489811 
L 164.372794 104.515745 
L 170.264828 44.081738 
L 176.156862 45.993535 
L 182.048896 24.485825 
L 187.94093 138.104945 
L 193.832964 53.428298 
L 199.724998 20.476364 
L 205.617032 41.214044 
L 211.509066 20.476364 
L 217.4011 54.994909 
L 223.293134 44.214502 
" style="fill:none;stroke:#cae11f;stroke-linecap:square;stroke-opacity:0.8;stroke-width:3;"/>
   </g>
   <g id="line2d_59">
    <path clip-path="url(#p54342d156d)" d="M 81.884318 286.003636 
L 87.776352 286.003636 
L 93.668386 208.575884 
L 99.56042 147.796691 
L 105.452454 178.65096 
L 111.344488 181.332785 
L 117.236522 231.22536 
L 123.128556 259.742989 
L 129.02059 222.197433 
L 134.912624 83.300116 
L 140.804658 206.823404 
L 146.696692 224.321651 
L 152.588726 140.415033 
L 158.48076 93.629127 
L 164.372794 127.138669 
L 170.264828 286.003636 
L 176.156862 286.003636 
L 182.048896 268.638153 
L 187.94093 261.920313 
L 193.832964 165.772887 
L 199.724998 179.633411 
L 205.617032 137.414575 
L 211.509066 286.003636 
L 217.4011 278.462662 
L 223.293134 20.476364 
" style="fill:none;stroke:#d8e219;stroke-linecap:square;stroke-opacity:0.8;stroke-width:3;"/>
   </g>
   <g id="line2d_60">
    <path clip-path="url(#p54342d156d)" d="M 81.884318 208.575884 
L 87.776352 112.428458 
L 93.668386 143.60136 
L 99.56042 286.003636 
L 105.452454 154.833164 
L 111.344488 263.566582 
L 117.236522 234.703767 
L 123.128556 259.796095 
L 129.02059 271.771375 
L 134.912624 191.475927 
L 140.804658 189.803105 
L 146.696692 166.489811 
L 152.588726 72.572815 
L 158.48076 251.193011 
L 164.372794 174.747709 
L 170.264828 76.369855 
L 176.156862 286.003636 
L 182.048896 64.952182 
L 187.94093 140.839876 
L 193.832964 111.578771 
L 199.724998 44.081738 
L 205.617032 271.638611 
L 211.509066 208.177593 
L 217.4011 266.726356 
L 223.293134 86.274022 
L 229.185168 44.214502 
L 235.077202 20.476364 
L 240.969236 86.114705 
L 246.86127 63.359018 
L 252.753303 47.666356 
L 258.645337 268.638153 
L 264.537371 133.776851 
L 270.429405 156.267011 
L 276.321439 104.037796 
L 282.213473 126.899695 
L 288.105507 63.412124 
L 293.997541 136.936625 
L 299.889575 160.409236 
L 305.781609 114.419913 
L 311.673643 80.458975 
L 317.565677 52.791033 
L 323.457711 92.460807 
L 329.349745 61.314458 
L 335.241779 56.667731 
L 341.133813 62.509331 
L 347.025847 75.360851 
L 352.917881 51.250975 
L 358.809915 61.659644 
L 364.701949 57.278444 
L 370.593983 286.003636 
L 376.486017 92.434255 
L 382.378051 60.809956 
L 388.270085 49.232967 
L 394.162119 121.190858 
L 400.054153 267.363622 
L 405.946187 209.956625 
L 411.838221 269.620604 
L 417.730255 286.003636 
L 423.622289 269.036444 
L 429.514323 209.930073 
L 435.406357 103.559847 
L 441.298391 161.12616 
L 447.190425 68.032298 
L 453.082459 82.636298 
L 458.974493 133.936167 
L 464.866527 49.976444 
L 470.758561 262.504473 
L 476.650595 286.003636 
L 482.542629 178.65096 
L 488.434663 286.003636 
L 494.326697 274.585964 
L 500.21873 264.150742 
L 506.110764 271.479295 
L 512.002798 264.150742 
L 517.894832 274.585964 
L 523.786866 147.796691 
L 529.6789 211.257709 
L 535.570934 286.003636 
L 541.462968 286.003636 
L 547.355002 177.137455 
L 553.247036 104.515745 
L 559.13907 200.052458 
L 565.031104 242.297847 
L 570.923138 176.208109 
L 576.815172 222.277091 
L 582.707206 284.941527 
L 588.59924 251.431985 
L 594.491274 235.208269 
L 600.383308 253.529651 
L 606.275342 49.312625 
L 612.167376 179.633411 
L 618.05941 205.787847 
L 623.951444 225.09168 
L 629.843478 158.152255 
L 635.735512 183.828742 
L 641.627546 41.214044 
L 647.51958 62.881069 
L 653.411614 250.263665 
L 659.303648 260.72544 
L 665.195682 256.105265 
" style="fill:none;stroke:#e5e419;stroke-linecap:square;stroke-opacity:0.8;stroke-width:3;"/>
   </g>
   <g id="line2d_61">
    <path clip-path="url(#p54342d156d)" d="M 81.884318 209.956625 
L 87.776352 265.770458 
L 93.668386 166.064967 
L 99.56042 239.722233 
L 105.452454 104.568851 
L 111.344488 155.443876 
L 117.236522 159.66576 
L 123.128556 53.428298 
L 129.02059 210.248705 
L 134.912624 285.313265 
" style="fill:none;stroke:#f1e51d;stroke-linecap:square;stroke-opacity:0.8;stroke-width:3;"/>
   </g>
   <g id="line2d_62">
    <path clip-path="url(#p54342d156d)" d="M 81.884318 213.036742 
L 87.776352 126.899695 
L 93.668386 279.604429 
L 99.56042 245.749702 
L 105.452454 231.22536 
L 111.344488 286.003636 
L 117.236522 286.003636 
L 123.128556 247.475629 
L 129.02059 286.003636 
L 134.912624 222.277091 
L 140.804658 56.508415 
L 146.696692 157.886727 
L 152.588726 114.419913 
L 158.48076 104.037796 
L 164.372794 143.60136 
L 170.264828 63.412124 
L 176.156862 52.791033 
L 182.048896 56.667731 
L 187.94093 62.509331 
L 193.832964 92.460807 
L 199.724998 61.686196 
L 205.617032 57.278444 
L 211.509066 61.659644 
L 217.4011 62.509331 
L 223.293134 60.809956 
" style="fill:none;stroke:#fde725;stroke-linecap:square;stroke-opacity:0.8;stroke-width:3;"/>
   </g>
   <g id="patch_3">
    <path d="M 52.71875 299.28 
L 52.71875 7.2 
" style="fill:none;stroke:#000000;stroke-linecap:square;stroke-linejoin:miter;stroke-width:0.8;"/>
   </g>
   <g id="patch_4">
    <path d="M 694.36125 299.28 
L 694.36125 7.2 
" style="fill:none;stroke:#000000;stroke-linecap:square;stroke-linejoin:miter;stroke-width:0.8;"/>
   </g>
   <g id="patch_5">
    <path d="M 52.71875 299.28 
L 694.36125 299.28 
" style="fill:none;stroke:#000000;stroke-linecap:square;stroke-linejoin:miter;stroke-width:0.8;"/>
   </g>
   <g id="patch_6">
    <path d="M 52.71875 7.2 
L 694.36125 7.2 
" style="fill:none;stroke:#000000;stroke-linecap:square;stroke-linejoin:miter;stroke-width:0.8;"/>
   </g>
  </g>
 </g>
 <defs>
  <clipPath id="p54342d156d">
   <rect height="292.08" width="641.6425" x="52.71875" y="7.2"/>
  </clipPath>
 </defs>
</svg>
