<?xml version="1.0" encoding="utf-8" standalone="no"?>
<!DOCTYPE svg PUBLIC "-//W3C//DTD SVG 1.1//EN"
  "http://www.w3.org/Graphics/SVG/1.1/DTD/svg11.dtd">
<!-- Created with matplotlib (https://matplotlib.org/) -->
<svg height="340.7075pt" version="1.1" viewBox="0 0 341.56125 340.7075" width="341.56125pt" xmlns="http://www.w3.org/2000/svg" xmlns:xlink="http://www.w3.org/1999/xlink">
 <defs>
  <style type="text/css">
*{stroke-linecap:butt;stroke-linejoin:round;}
  </style>
 </defs>
 <g id="figure_1">
  <g id="patch_1">
   <path d="M 0 340.7075 
L 341.56125 340.7075 
L 341.56125 0 
L 0 0 
z
" style="fill:#ffffff;"/>
  </g>
  <g id="axes_1">
   <g id="patch_2">
    <path d="M 52.71875 299.28 
L 334.36125 299.28 
L 334.36125 7.2 
L 52.71875 7.2 
z
" style="fill:#ffffff;"/>
   </g>
   <g id="matplotlib.axis_1">
    <g id="xtick_1">
     <g id="line2d_1">
      <defs>
       <path d="M 0 0 
L 0 3.5 
" id="m677419caa6" style="stroke:#000000;stroke-width:0.8;"/>
      </defs>
      <g>
       <use style="stroke:#000000;stroke-width:0.8;" x="62.934433" xlink:href="#m677419caa6" y="299.28"/>
      </g>
     </g>
     <g id="text_1">
      <!-- 0 -->
      <defs>
       <path d="M 31.78125 66.40625 
Q 24.171875 66.40625 20.328125 58.90625 
Q 16.5 51.421875 16.5 36.375 
Q 16.5 21.390625 20.328125 13.890625 
Q 24.171875 6.390625 31.78125 6.390625 
Q 39.453125 6.390625 43.28125 13.890625 
Q 47.125 21.390625 47.125 36.375 
Q 47.125 51.421875 43.28125 58.90625 
Q 39.453125 66.40625 31.78125 66.40625 
z
M 31.78125 74.21875 
Q 44.046875 74.21875 50.515625 64.515625 
Q 56.984375 54.828125 56.984375 36.375 
Q 56.984375 17.96875 50.515625 8.265625 
Q 44.046875 -1.421875 31.78125 -1.421875 
Q 19.53125 -1.421875 13.0625 8.265625 
Q 6.59375 17.96875 6.59375 36.375 
Q 6.59375 54.828125 13.0625 64.515625 
Q 19.53125 74.21875 31.78125 74.21875 
z
" id="DejaVuSans-48"/>
      </defs>
      <g transform="translate(59.116933 315.398125)scale(0.12 -0.12)">
       <use xlink:href="#DejaVuSans-48"/>
      </g>
     </g>
    </g>
    <g id="xtick_2">
     <g id="line2d_2">
      <g>
       <use style="stroke:#000000;stroke-width:0.8;" x="114.65941" xlink:href="#m677419caa6" y="299.28"/>
      </g>
     </g>
     <g id="text_2">
      <!-- 20 -->
      <defs>
       <path d="M 19.1875 8.296875 
L 53.609375 8.296875 
L 53.609375 0 
L 7.328125 0 
L 7.328125 8.296875 
Q 12.9375 14.109375 22.625 23.890625 
Q 32.328125 33.6875 34.8125 36.53125 
Q 39.546875 41.84375 41.421875 45.53125 
Q 43.3125 49.21875 43.3125 52.78125 
Q 43.3125 58.59375 39.234375 62.25 
Q 35.15625 65.921875 28.609375 65.921875 
Q 23.96875 65.921875 18.8125 64.3125 
Q 13.671875 62.703125 7.8125 59.421875 
L 7.8125 69.390625 
Q 13.765625 71.78125 18.9375 73 
Q 24.125 74.21875 28.421875 74.21875 
Q 39.75 74.21875 46.484375 68.546875 
Q 53.21875 62.890625 53.21875 53.421875 
Q 53.21875 48.921875 51.53125 44.890625 
Q 49.859375 40.875 45.40625 35.40625 
Q 44.1875 33.984375 37.640625 27.21875 
Q 31.109375 20.453125 19.1875 8.296875 
z
" id="DejaVuSans-50"/>
      </defs>
      <g transform="translate(107.02441 315.398125)scale(0.12 -0.12)">
       <use xlink:href="#DejaVuSans-50"/>
       <use x="63.623047" xlink:href="#DejaVuSans-48"/>
      </g>
     </g>
    </g>
    <g id="xtick_3">
     <g id="line2d_3">
      <g>
       <use style="stroke:#000000;stroke-width:0.8;" x="166.384387" xlink:href="#m677419caa6" y="299.28"/>
      </g>
     </g>
     <g id="text_3">
      <!-- 40 -->
      <defs>
       <path d="M 37.796875 64.3125 
L 12.890625 25.390625 
L 37.796875 25.390625 
z
M 35.203125 72.90625 
L 47.609375 72.90625 
L 47.609375 25.390625 
L 58.015625 25.390625 
L 58.015625 17.1875 
L 47.609375 17.1875 
L 47.609375 0 
L 37.796875 0 
L 37.796875 17.1875 
L 4.890625 17.1875 
L 4.890625 26.703125 
z
" id="DejaVuSans-52"/>
      </defs>
      <g transform="translate(158.749387 315.398125)scale(0.12 -0.12)">
       <use xlink:href="#DejaVuSans-52"/>
       <use x="63.623047" xlink:href="#DejaVuSans-48"/>
      </g>
     </g>
    </g>
    <g id="xtick_4">
     <g id="line2d_4">
      <g>
       <use style="stroke:#000000;stroke-width:0.8;" x="218.109364" xlink:href="#m677419caa6" y="299.28"/>
      </g>
     </g>
     <g id="text_4">
      <!-- 60 -->
      <defs>
       <path d="M 33.015625 40.375 
Q 26.375 40.375 22.484375 35.828125 
Q 18.609375 31.296875 18.609375 23.390625 
Q 18.609375 15.53125 22.484375 10.953125 
Q 26.375 6.390625 33.015625 6.390625 
Q 39.65625 6.390625 43.53125 10.953125 
Q 47.40625 15.53125 47.40625 23.390625 
Q 47.40625 31.296875 43.53125 35.828125 
Q 39.65625 40.375 33.015625 40.375 
z
M 52.59375 71.296875 
L 52.59375 62.3125 
Q 48.875 64.0625 45.09375 64.984375 
Q 41.3125 65.921875 37.59375 65.921875 
Q 27.828125 65.921875 22.671875 59.328125 
Q 17.53125 52.734375 16.796875 39.40625 
Q 19.671875 43.65625 24.015625 45.921875 
Q 28.375 48.1875 33.59375 48.1875 
Q 44.578125 48.1875 50.953125 41.515625 
Q 57.328125 34.859375 57.328125 23.390625 
Q 57.328125 12.15625 50.6875 5.359375 
Q 44.046875 -1.421875 33.015625 -1.421875 
Q 20.359375 -1.421875 13.671875 8.265625 
Q 6.984375 17.96875 6.984375 36.375 
Q 6.984375 53.65625 15.1875 63.9375 
Q 23.390625 74.21875 37.203125 74.21875 
Q 40.921875 74.21875 44.703125 73.484375 
Q 48.484375 72.75 52.59375 71.296875 
z
" id="DejaVuSans-54"/>
      </defs>
      <g transform="translate(210.474364 315.398125)scale(0.12 -0.12)">
       <use xlink:href="#DejaVuSans-54"/>
       <use x="63.623047" xlink:href="#DejaVuSans-48"/>
      </g>
     </g>
    </g>
    <g id="xtick_5">
     <g id="line2d_5">
      <g>
       <use style="stroke:#000000;stroke-width:0.8;" x="269.834341" xlink:href="#m677419caa6" y="299.28"/>
      </g>
     </g>
     <g id="text_5">
      <!-- 80 -->
      <defs>
       <path d="M 31.78125 34.625 
Q 24.75 34.625 20.71875 30.859375 
Q 16.703125 27.09375 16.703125 20.515625 
Q 16.703125 13.921875 20.71875 10.15625 
Q 24.75 6.390625 31.78125 6.390625 
Q 38.8125 6.390625 42.859375 10.171875 
Q 46.921875 13.96875 46.921875 20.515625 
Q 46.921875 27.09375 42.890625 30.859375 
Q 38.875 34.625 31.78125 34.625 
z
M 21.921875 38.8125 
Q 15.578125 40.375 12.03125 44.71875 
Q 8.5 49.078125 8.5 55.328125 
Q 8.5 64.0625 14.71875 69.140625 
Q 20.953125 74.21875 31.78125 74.21875 
Q 42.671875 74.21875 48.875 69.140625 
Q 55.078125 64.0625 55.078125 55.328125 
Q 55.078125 49.078125 51.53125 44.71875 
Q 48 40.375 41.703125 38.8125 
Q 48.828125 37.15625 52.796875 32.3125 
Q 56.78125 27.484375 56.78125 20.515625 
Q 56.78125 9.90625 50.3125 4.234375 
Q 43.84375 -1.421875 31.78125 -1.421875 
Q 19.734375 -1.421875 13.25 4.234375 
Q 6.78125 9.90625 6.78125 20.515625 
Q 6.78125 27.484375 10.78125 32.3125 
Q 14.796875 37.15625 21.921875 38.8125 
z
M 18.3125 54.390625 
Q 18.3125 48.734375 21.84375 45.5625 
Q 25.390625 42.390625 31.78125 42.390625 
Q 38.140625 42.390625 41.71875 45.5625 
Q 45.3125 48.734375 45.3125 54.390625 
Q 45.3125 60.0625 41.71875 63.234375 
Q 38.140625 66.40625 31.78125 66.40625 
Q 25.390625 66.40625 21.84375 63.234375 
Q 18.3125 60.0625 18.3125 54.390625 
z
" id="DejaVuSans-56"/>
      </defs>
      <g transform="translate(262.199341 315.398125)scale(0.12 -0.12)">
       <use xlink:href="#DejaVuSans-56"/>
       <use x="63.623047" xlink:href="#DejaVuSans-48"/>
      </g>
     </g>
    </g>
    <g id="xtick_6">
     <g id="line2d_6">
      <g>
       <use style="stroke:#000000;stroke-width:0.8;" x="321.559318" xlink:href="#m677419caa6" y="299.28"/>
      </g>
     </g>
     <g id="text_6">
      <!-- 100 -->
      <defs>
       <path d="M 12.40625 8.296875 
L 28.515625 8.296875 
L 28.515625 63.921875 
L 10.984375 60.40625 
L 10.984375 69.390625 
L 28.421875 72.90625 
L 38.28125 72.90625 
L 38.28125 8.296875 
L 54.390625 8.296875 
L 54.390625 0 
L 12.40625 0 
z
" id="DejaVuSans-49"/>
      </defs>
      <g transform="translate(310.106818 315.398125)scale(0.12 -0.12)">
       <use xlink:href="#DejaVuSans-49"/>
       <use x="63.623047" xlink:href="#DejaVuSans-48"/>
       <use x="127.246094" xlink:href="#DejaVuSans-48"/>
      </g>
     </g>
    </g>
    <g id="text_7">
     <!-- Experiment -->
     <defs>
      <path d="M 9.8125 72.90625 
L 55.90625 72.90625 
L 55.90625 64.59375 
L 19.671875 64.59375 
L 19.671875 43.015625 
L 54.390625 43.015625 
L 54.390625 34.71875 
L 19.671875 34.71875 
L 19.671875 8.296875 
L 56.78125 8.296875 
L 56.78125 0 
L 9.8125 0 
z
" id="DejaVuSans-69"/>
      <path d="M 54.890625 54.6875 
L 35.109375 28.078125 
L 55.90625 0 
L 45.3125 0 
L 29.390625 21.484375 
L 13.484375 0 
L 2.875 0 
L 24.125 28.609375 
L 4.6875 54.6875 
L 15.28125 54.6875 
L 29.78125 35.203125 
L 44.28125 54.6875 
z
" id="DejaVuSans-120"/>
      <path d="M 18.109375 8.203125 
L 18.109375 -20.796875 
L 9.078125 -20.796875 
L 9.078125 54.6875 
L 18.109375 54.6875 
L 18.109375 46.390625 
Q 20.953125 51.265625 25.265625 53.625 
Q 29.59375 56 35.59375 56 
Q 45.5625 56 51.78125 48.09375 
Q 58.015625 40.1875 58.015625 27.296875 
Q 58.015625 14.40625 51.78125 6.484375 
Q 45.5625 -1.421875 35.59375 -1.421875 
Q 29.59375 -1.421875 25.265625 0.953125 
Q 20.953125 3.328125 18.109375 8.203125 
z
M 48.6875 27.296875 
Q 48.6875 37.203125 44.609375 42.84375 
Q 40.53125 48.484375 33.40625 48.484375 
Q 26.265625 48.484375 22.1875 42.84375 
Q 18.109375 37.203125 18.109375 27.296875 
Q 18.109375 17.390625 22.1875 11.75 
Q 26.265625 6.109375 33.40625 6.109375 
Q 40.53125 6.109375 44.609375 11.75 
Q 48.6875 17.390625 48.6875 27.296875 
z
" id="DejaVuSans-112"/>
      <path d="M 56.203125 29.59375 
L 56.203125 25.203125 
L 14.890625 25.203125 
Q 15.484375 15.921875 20.484375 11.0625 
Q 25.484375 6.203125 34.421875 6.203125 
Q 39.59375 6.203125 44.453125 7.46875 
Q 49.3125 8.734375 54.109375 11.28125 
L 54.109375 2.78125 
Q 49.265625 0.734375 44.1875 -0.34375 
Q 39.109375 -1.421875 33.890625 -1.421875 
Q 20.796875 -1.421875 13.15625 6.1875 
Q 5.515625 13.8125 5.515625 26.8125 
Q 5.515625 40.234375 12.765625 48.109375 
Q 20.015625 56 32.328125 56 
Q 43.359375 56 49.78125 48.890625 
Q 56.203125 41.796875 56.203125 29.59375 
z
M 47.21875 32.234375 
Q 47.125 39.59375 43.09375 43.984375 
Q 39.0625 48.390625 32.421875 48.390625 
Q 24.90625 48.390625 20.390625 44.140625 
Q 15.875 39.890625 15.1875 32.171875 
z
" id="DejaVuSans-101"/>
      <path d="M 41.109375 46.296875 
Q 39.59375 47.171875 37.8125 47.578125 
Q 36.03125 48 33.890625 48 
Q 26.265625 48 22.1875 43.046875 
Q 18.109375 38.09375 18.109375 28.8125 
L 18.109375 0 
L 9.078125 0 
L 9.078125 54.6875 
L 18.109375 54.6875 
L 18.109375 46.1875 
Q 20.953125 51.171875 25.484375 53.578125 
Q 30.03125 56 36.53125 56 
Q 37.453125 56 38.578125 55.875 
Q 39.703125 55.765625 41.0625 55.515625 
z
" id="DejaVuSans-114"/>
      <path d="M 9.421875 54.6875 
L 18.40625 54.6875 
L 18.40625 0 
L 9.421875 0 
z
M 9.421875 75.984375 
L 18.40625 75.984375 
L 18.40625 64.59375 
L 9.421875 64.59375 
z
" id="DejaVuSans-105"/>
      <path d="M 52 44.1875 
Q 55.375 50.25 60.0625 53.125 
Q 64.75 56 71.09375 56 
Q 79.640625 56 84.28125 50.015625 
Q 88.921875 44.046875 88.921875 33.015625 
L 88.921875 0 
L 79.890625 0 
L 79.890625 32.71875 
Q 79.890625 40.578125 77.09375 44.375 
Q 74.3125 48.1875 68.609375 48.1875 
Q 61.625 48.1875 57.5625 43.546875 
Q 53.515625 38.921875 53.515625 30.90625 
L 53.515625 0 
L 44.484375 0 
L 44.484375 32.71875 
Q 44.484375 40.625 41.703125 44.40625 
Q 38.921875 48.1875 33.109375 48.1875 
Q 26.21875 48.1875 22.15625 43.53125 
Q 18.109375 38.875 18.109375 30.90625 
L 18.109375 0 
L 9.078125 0 
L 9.078125 54.6875 
L 18.109375 54.6875 
L 18.109375 46.1875 
Q 21.1875 51.21875 25.484375 53.609375 
Q 29.78125 56 35.6875 56 
Q 41.65625 56 45.828125 52.96875 
Q 50 49.953125 52 44.1875 
z
" id="DejaVuSans-109"/>
      <path d="M 54.890625 33.015625 
L 54.890625 0 
L 45.90625 0 
L 45.90625 32.71875 
Q 45.90625 40.484375 42.875 44.328125 
Q 39.84375 48.1875 33.796875 48.1875 
Q 26.515625 48.1875 22.3125 43.546875 
Q 18.109375 38.921875 18.109375 30.90625 
L 18.109375 0 
L 9.078125 0 
L 9.078125 54.6875 
L 18.109375 54.6875 
L 18.109375 46.1875 
Q 21.34375 51.125 25.703125 53.5625 
Q 30.078125 56 35.796875 56 
Q 45.21875 56 50.046875 50.171875 
Q 54.890625 44.34375 54.890625 33.015625 
z
" id="DejaVuSans-110"/>
      <path d="M 18.3125 70.21875 
L 18.3125 54.6875 
L 36.8125 54.6875 
L 36.8125 47.703125 
L 18.3125 47.703125 
L 18.3125 18.015625 
Q 18.3125 11.328125 20.140625 9.421875 
Q 21.96875 7.515625 27.59375 7.515625 
L 36.8125 7.515625 
L 36.8125 0 
L 27.59375 0 
Q 17.1875 0 13.234375 3.875 
Q 9.28125 7.765625 9.28125 18.015625 
L 9.28125 47.703125 
L 2.6875 47.703125 
L 2.6875 54.6875 
L 9.28125 54.6875 
L 9.28125 70.21875 
z
" id="DejaVuSans-116"/>
     </defs>
     <g transform="translate(158.872187 331.011875)scale(0.12 -0.12)">
      <use xlink:href="#DejaVuSans-69"/>
      <use x="63.183594" xlink:href="#DejaVuSans-120"/>
      <use x="122.363281" xlink:href="#DejaVuSans-112"/>
      <use x="185.839844" xlink:href="#DejaVuSans-101"/>
      <use x="247.363281" xlink:href="#DejaVuSans-114"/>
      <use x="288.476562" xlink:href="#DejaVuSans-105"/>
      <use x="316.259766" xlink:href="#DejaVuSans-109"/>
      <use x="413.671875" xlink:href="#DejaVuSans-101"/>
      <use x="475.195312" xlink:href="#DejaVuSans-110"/>
      <use x="538.574219" xlink:href="#DejaVuSans-116"/>
     </g>
    </g>
   </g>
   <g id="matplotlib.axis_2">
    <g id="ytick_1">
     <g id="line2d_7">
      <defs>
       <path d="M 0 0 
L -3.5 0 
" id="m4c884b88be" style="stroke:#000000;stroke-width:0.8;"/>
      </defs>
      <g>
       <use style="stroke:#000000;stroke-width:0.8;" x="52.71875" xlink:href="#m4c884b88be" y="286.003636"/>
      </g>
     </g>
     <g id="text_8">
      <!-- 0 -->
      <g transform="translate(38.08375 290.562699)scale(0.12 -0.12)">
       <use xlink:href="#DejaVuSans-48"/>
      </g>
     </g>
    </g>
    <g id="ytick_2">
     <g id="line2d_8">
      <g>
       <use style="stroke:#000000;stroke-width:0.8;" x="52.71875" xlink:href="#m4c884b88be" y="232.898182"/>
      </g>
     </g>
     <g id="text_9">
      <!-- 20 -->
      <g transform="translate(30.44875 237.457244)scale(0.12 -0.12)">
       <use xlink:href="#DejaVuSans-50"/>
       <use x="63.623047" xlink:href="#DejaVuSans-48"/>
      </g>
     </g>
    </g>
    <g id="ytick_3">
     <g id="line2d_9">
      <g>
       <use style="stroke:#000000;stroke-width:0.8;" x="52.71875" xlink:href="#m4c884b88be" y="179.792727"/>
      </g>
     </g>
     <g id="text_10">
      <!-- 40 -->
      <g transform="translate(30.44875 184.35179)scale(0.12 -0.12)">
       <use xlink:href="#DejaVuSans-52"/>
       <use x="63.623047" xlink:href="#DejaVuSans-48"/>
      </g>
     </g>
    </g>
    <g id="ytick_4">
     <g id="line2d_10">
      <g>
       <use style="stroke:#000000;stroke-width:0.8;" x="52.71875" xlink:href="#m4c884b88be" y="126.687273"/>
      </g>
     </g>
     <g id="text_11">
      <!-- 60 -->
      <g transform="translate(30.44875 131.246335)scale(0.12 -0.12)">
       <use xlink:href="#DejaVuSans-54"/>
       <use x="63.623047" xlink:href="#DejaVuSans-48"/>
      </g>
     </g>
    </g>
    <g id="ytick_5">
     <g id="line2d_11">
      <g>
       <use style="stroke:#000000;stroke-width:0.8;" x="52.71875" xlink:href="#m4c884b88be" y="73.581818"/>
      </g>
     </g>
     <g id="text_12">
      <!-- 80 -->
      <g transform="translate(30.44875 78.140881)scale(0.12 -0.12)">
       <use xlink:href="#DejaVuSans-56"/>
       <use x="63.623047" xlink:href="#DejaVuSans-48"/>
      </g>
     </g>
    </g>
    <g id="ytick_6">
     <g id="line2d_12">
      <g>
       <use style="stroke:#000000;stroke-width:0.8;" x="52.71875" xlink:href="#m4c884b88be" y="20.476364"/>
      </g>
     </g>
     <g id="text_13">
      <!-- 100 -->
      <g transform="translate(22.81375 25.035426)scale(0.12 -0.12)">
       <use xlink:href="#DejaVuSans-49"/>
       <use x="63.623047" xlink:href="#DejaVuSans-48"/>
       <use x="127.246094" xlink:href="#DejaVuSans-48"/>
      </g>
     </g>
    </g>
    <g id="text_14">
     <!-- %Yield -->
     <defs>
      <path d="M 72.703125 32.078125 
Q 68.453125 32.078125 66.03125 28.46875 
Q 63.625 24.859375 63.625 18.40625 
Q 63.625 12.0625 66.03125 8.421875 
Q 68.453125 4.78125 72.703125 4.78125 
Q 76.859375 4.78125 79.265625 8.421875 
Q 81.6875 12.0625 81.6875 18.40625 
Q 81.6875 24.8125 79.265625 28.4375 
Q 76.859375 32.078125 72.703125 32.078125 
z
M 72.703125 38.28125 
Q 80.421875 38.28125 84.953125 32.90625 
Q 89.5 27.546875 89.5 18.40625 
Q 89.5 9.28125 84.9375 3.921875 
Q 80.375 -1.421875 72.703125 -1.421875 
Q 64.890625 -1.421875 60.34375 3.921875 
Q 55.8125 9.28125 55.8125 18.40625 
Q 55.8125 27.59375 60.375 32.9375 
Q 64.9375 38.28125 72.703125 38.28125 
z
M 22.3125 68.015625 
Q 18.109375 68.015625 15.6875 64.375 
Q 13.28125 60.75 13.28125 54.390625 
Q 13.28125 47.953125 15.671875 44.328125 
Q 18.0625 40.71875 22.3125 40.71875 
Q 26.5625 40.71875 28.96875 44.328125 
Q 31.390625 47.953125 31.390625 54.390625 
Q 31.390625 60.6875 28.953125 64.34375 
Q 26.515625 68.015625 22.3125 68.015625 
z
M 66.40625 74.21875 
L 74.21875 74.21875 
L 28.609375 -1.421875 
L 20.796875 -1.421875 
z
M 22.3125 74.21875 
Q 30.03125 74.21875 34.609375 68.875 
Q 39.203125 63.53125 39.203125 54.390625 
Q 39.203125 45.171875 34.640625 39.84375 
Q 30.078125 34.515625 22.3125 34.515625 
Q 14.546875 34.515625 10.03125 39.859375 
Q 5.515625 45.21875 5.515625 54.390625 
Q 5.515625 63.484375 10.046875 68.84375 
Q 14.59375 74.21875 22.3125 74.21875 
z
" id="DejaVuSans-37"/>
      <path d="M -0.203125 72.90625 
L 10.40625 72.90625 
L 30.609375 42.921875 
L 50.6875 72.90625 
L 61.28125 72.90625 
L 35.5 34.71875 
L 35.5 0 
L 25.59375 0 
L 25.59375 34.71875 
z
" id="DejaVuSans-89"/>
      <path d="M 9.421875 75.984375 
L 18.40625 75.984375 
L 18.40625 0 
L 9.421875 0 
z
" id="DejaVuSans-108"/>
      <path d="M 45.40625 46.390625 
L 45.40625 75.984375 
L 54.390625 75.984375 
L 54.390625 0 
L 45.40625 0 
L 45.40625 8.203125 
Q 42.578125 3.328125 38.25 0.953125 
Q 33.9375 -1.421875 27.875 -1.421875 
Q 17.96875 -1.421875 11.734375 6.484375 
Q 5.515625 14.40625 5.515625 27.296875 
Q 5.515625 40.1875 11.734375 48.09375 
Q 17.96875 56 27.875 56 
Q 33.9375 56 38.25 53.625 
Q 42.578125 51.265625 45.40625 46.390625 
z
M 14.796875 27.296875 
Q 14.796875 17.390625 18.875 11.75 
Q 22.953125 6.109375 30.078125 6.109375 
Q 37.203125 6.109375 41.296875 11.75 
Q 45.40625 17.390625 45.40625 27.296875 
Q 45.40625 37.203125 41.296875 42.84375 
Q 37.203125 48.484375 30.078125 48.484375 
Q 22.953125 48.484375 18.875 42.84375 
Q 14.796875 37.203125 14.796875 27.296875 
z
" id="DejaVuSans-100"/>
     </defs>
     <g transform="translate(16.318125 173.4375)rotate(-90)scale(0.12 -0.12)">
      <use xlink:href="#DejaVuSans-37"/>
      <use x="95.019531" xlink:href="#DejaVuSans-89"/>
      <use x="156.056641" xlink:href="#DejaVuSans-105"/>
      <use x="183.839844" xlink:href="#DejaVuSans-101"/>
      <use x="245.363281" xlink:href="#DejaVuSans-108"/>
      <use x="273.146484" xlink:href="#DejaVuSans-100"/>
     </g>
    </g>
   </g>
   <g id="line2d_13">
    <path clip-path="url(#p5a12d59997)" d="M 65.520682 271.479295 
L 68.106931 285.817767 
L 70.69318 273.417644 
L 73.279428 240.625025 
L 75.865677 237.040407 
L 78.451926 215.267171 
L 81.038175 242.350953 
L 83.624424 286.003636 
L 86.210673 278.436109 
L 88.796921 286.003636 
L 91.38317 279.604429 
L 93.969419 245.749702 
L 96.555668 126.899695 
L 99.141917 222.277091 
L 101.728166 247.475629 
L 104.314415 278.037818 
L 106.900663 147.345295 
L 109.486912 143.60136 
L 112.073161 114.419913 
L 114.65941 143.973098 
L 117.245659 199.149665 
L 119.831908 103.161556 
L 122.418157 286.003636 
L 125.004405 239.430153 
L 127.590654 236.296931 
L 130.176903 122.146756 
L 132.763152 92.434255 
L 135.349401 71.537258 
L 137.93565 102.099447 
L 140.521899 173.6856 
L 143.108147 62.509331 
L 145.694396 94.266393 
L 148.280645 141.238167 
L 150.866894 212.187055 
L 153.453143 267.363622 
L 156.039392 81.521084 
L 158.62564 286.003636 
L 161.211889 267.363622 
L 163.798138 269.461287 
L 166.384387 67.713665 
" style="fill:none;stroke:#440154;stroke-linecap:square;stroke-opacity:0.8;stroke-width:3;"/>
   </g>
   <g id="line2d_14">
    <path clip-path="url(#p5a12d59997)" d="M 65.520682 279.604429 
L 68.106931 285.685004 
L 70.69318 286.003636 
L 73.279428 180.164465 
L 75.865677 285.313265 
L 78.451926 286.003636 
L 81.038175 281.091382 
L 83.624424 205.787847 
L 86.210673 222.197433 
L 88.796921 155.28456 
L 91.38317 223.525069 
L 93.969419 282.551782 
L 96.555668 217.842785 
L 99.141917 246.599389 
L 101.728166 233.323025 
L 104.314415 180.297229 
L 106.900663 271.665164 
L 109.486912 175.305316 
L 112.073161 83.565644 
L 114.65941 197.290975 
L 117.245659 77.2992 
L 119.831908 81.521084 
L 122.418157 218.692473 
L 125.004405 286.003636 
L 127.590654 96.337505 
L 130.176903 77.724044 
L 132.763152 122.252967 
L 135.349401 217.577258 
L 137.93565 160.409236 
L 140.521899 171.242749 
L 143.108147 284.038735 
L 145.694396 253.237571 
L 148.280645 217.842785 
L 150.866894 130.723287 
" style="fill:none;stroke:#46085c;stroke-linecap:square;stroke-opacity:0.8;stroke-width:3;"/>
   </g>
   <g id="line2d_15">
    <path clip-path="url(#p5a12d59997)" d="M 65.520682 271.479295 
L 68.106931 86.274022 
L 70.69318 174.747709 
L 73.279428 264.150742 
L 75.865677 211.257709 
L 78.451926 177.137455 
L 81.038175 151.806153 
L 83.624424 286.003636 
L 86.210673 251.193011 
L 88.796921 76.369855 
L 91.38317 208.177593 
L 93.969419 133.776851 
L 96.555668 82.636298 
L 99.141917 269.036444 
L 101.728166 269.620604 
L 104.314415 286.003636 
L 106.900663 103.559847 
L 109.486912 161.12616 
L 112.073161 72.572815 
L 114.65941 112.428458 
" style="fill:none;stroke:#471063;stroke-linecap:square;stroke-opacity:0.8;stroke-width:3;"/>
   </g>
   <g id="line2d_16">
    <path clip-path="url(#p5a12d59997)" d="M 65.520682 286.003636 
L 68.106931 266.726356 
L 70.69318 72.572815 
L 73.279428 86.274022 
L 75.865677 211.257709 
L 78.451926 47.666356 
L 81.038175 64.952182 
L 83.624424 140.839876 
L 86.210673 176.208109 
L 88.796921 191.475927 
L 91.38317 44.081738 
L 93.969419 62.881069 
L 96.555668 41.214044 
L 99.141917 41.638887 
L 101.728166 112.561222 
L 104.314415 140.415033 
L 106.900663 104.993695 
L 109.486912 259.55712 
L 112.073161 271.001345 
L 114.65941 286.003636 
L 117.245659 157.647753 
L 119.831908 258.149825 
L 122.418157 20.476364 
" style="fill:none;stroke:#481769;stroke-linecap:square;stroke-opacity:0.8;stroke-width:3;"/>
   </g>
   <g id="line2d_17">
    <path clip-path="url(#p5a12d59997)" d="M 65.520682 271.479295 
L 68.106931 112.428458 
L 70.69318 251.193011 
L 73.279428 86.274022 
L 75.865677 174.747709 
L 78.451926 80.458975 
L 81.038175 151.806153 
L 83.624424 177.137455 
L 86.210673 86.539549 
L 88.796921 59.747847 
L 91.38317 230.986385 
L 93.969419 268.797469 
L 96.555668 265.080087 
L 99.141917 83.565644 
L 101.728166 122.252967 
L 104.314415 274.585964 
L 106.900663 82.636298 
L 109.486912 254.379338 
L 112.073161 148.380851 
L 114.65941 266.089091 
L 117.245659 271.001345 
L 119.831908 157.647753 
L 122.418157 49.312625 
L 125.004405 80.007578 
L 127.590654 24.777905 
L 130.176903 20.980865 
L 132.763152 22.547476 
L 135.349401 71.298284 
L 137.93565 146.681476 
L 140.521899 125.917244 
L 143.108147 41.214044 
L 145.694396 71.855891 
L 148.280645 164.578015 
L 150.866894 167.923658 
L 153.453143 215.134407 
" style="fill:none;stroke:#481d6f;stroke-linecap:square;stroke-opacity:0.8;stroke-width:3;"/>
   </g>
   <g id="line2d_18">
    <path clip-path="url(#p5a12d59997)" d="M 65.520682 286.003636 
L 68.106931 138.874975 
L 70.69318 213.036742 
L 73.279428 228.809062 
L 75.865677 208.575884 
L 78.451926 104.037796 
L 81.038175 188.687891 
L 83.624424 74.219084 
L 86.210673 102.497738 
L 88.796921 127.191775 
L 91.38317 199.707273 
L 93.969419 195.857127 
L 96.555668 286.003636 
L 99.141917 85.796073 
L 101.728166 141.158509 
L 104.314415 286.003636 
L 106.900663 262.238945 
L 109.486912 286.003636 
L 112.073161 279.285796 
L 114.65941 168.109527 
L 117.245659 286.003636 
L 119.831908 237.704225 
L 122.418157 241.102975 
L 125.004405 188.475469 
L 127.590654 286.003636 
L 130.176903 201.937702 
L 132.763152 217.922444 
L 135.349401 235.686218 
L 137.93565 147.3984 
L 140.521899 186.776095 
L 143.108147 132.847505 
L 145.694396 144.982102 
L 148.280645 255.17592 
L 150.866894 202.920153 
L 153.453143 146.097316 
L 156.039392 179.633411 
L 158.62564 271.319978 
L 161.211889 89.699324 
L 163.798138 194.529491 
L 166.384387 167.897105 
L 168.970636 91.292487 
L 171.556885 67.527796 
L 174.143134 156.267011 
L 176.729382 85.822625 
L 179.315631 143.973098 
L 181.90188 181.598313 
L 184.488129 82.530087 
L 187.074378 69.174065 
L 189.660627 61.314458 
L 192.246876 61.686196 
L 194.833124 52.791033 
L 197.419373 62.509331 
L 200.005622 60.809956 
L 202.591871 51.250975 
L 205.17812 49.232967 
L 207.764369 75.360851 
L 210.350618 57.278444 
L 212.936866 61.659644 
L 215.523115 64.952182 
L 218.109364 165.958756 
L 220.695613 43.338262 
L 223.281862 32.478196 
L 225.868111 182.979055 
L 228.45436 20.476364 
L 231.040608 169.59648 
" style="fill:none;stroke:#482576;stroke-linecap:square;stroke-opacity:0.8;stroke-width:3;"/>
   </g>
   <g id="line2d_19">
    <path clip-path="url(#p5a12d59997)" d="M 65.520682 286.003636 
L 68.106931 286.003636 
L 70.69318 259.55712 
L 73.279428 249.148451 
L 75.865677 130.935709 
L 78.451926 157.647753 
L 81.038175 104.993695 
L 83.624424 258.149825 
L 86.210673 41.214044 
L 88.796921 140.415033 
L 91.38317 24.777905 
L 93.969419 20.980865 
L 96.555668 22.547476 
L 99.141917 235.208269 
L 101.728166 95.328502 
L 104.314415 225.861709 
L 106.900663 24.485825 
L 109.486912 164.578015 
L 112.073161 53.428298 
L 114.65941 47.161855 
" style="fill:none;stroke:#472c7a;stroke-linecap:square;stroke-opacity:0.8;stroke-width:3;"/>
   </g>
   <g id="line2d_20">
    <path clip-path="url(#p5a12d59997)" d="M 65.520682 286.003636 
L 68.106931 112.428458 
L 70.69318 72.572815 
L 73.279428 266.726356 
L 75.865677 211.257709 
L 78.451926 86.274022 
L 81.038175 251.193011 
L 83.624424 76.369855 
L 86.210673 250.980589 
L 88.796921 65.03184 
L 91.38317 191.475927 
L 93.969419 106.586858 
L 96.555668 149.602276 
L 99.141917 172.835913 
L 101.728166 132.422662 
L 104.314415 146.681476 
L 106.900663 22.547476 
L 109.486912 180.934495 
L 112.073161 266.27496 
L 114.65941 200.477302 
L 117.245659 41.214044 
" style="fill:none;stroke:#46327e;stroke-linecap:square;stroke-opacity:0.8;stroke-width:3;"/>
   </g>
   <g id="line2d_21">
    <path clip-path="url(#p5a12d59997)" d="M 65.520682 286.003636 
L 68.106931 251.193011 
L 70.69318 86.274022 
L 73.279428 76.369855 
L 75.865677 174.747709 
L 78.451926 286.003636 
L 81.038175 211.257709 
L 83.624424 174.747709 
L 86.210673 251.193011 
L 88.796921 72.572815 
L 91.38317 264.602138 
L 93.969419 228.809062 
L 96.555668 242.297847 
L 99.141917 200.052458 
L 101.728166 104.515745 
L 104.314415 258.282589 
L 106.900663 209.956625 
L 109.486912 69.253724 
L 112.073161 140.839876 
L 114.65941 176.208109 
L 117.245659 72.572815 
L 119.831908 71.74968 
L 122.418157 32.478196 
L 125.004405 208.177593 
L 127.590654 24.777905 
L 130.176903 22.547476 
L 132.763152 29.39808 
L 135.349401 125.917244 
L 137.93565 65.03184 
L 140.521899 250.980589 
L 143.108147 20.529469 
L 145.694396 120.500487 
L 148.280645 43.869316 
L 150.866894 169.59648 
L 153.453143 20.476364 
" style="fill:none;stroke:#453882;stroke-linecap:square;stroke-opacity:0.8;stroke-width:3;"/>
   </g>
   <g id="line2d_22">
    <path clip-path="url(#p5a12d59997)" d="M 65.520682 278.436109 
L 68.106931 259.796095 
L 70.69318 174.747709 
L 73.279428 200.928698 
L 75.865677 181.412444 
L 78.451926 115.747549 
L 81.038175 90.602116 
L 83.624424 114.844756 
L 86.210673 84.149804 
L 88.796921 216.196516 
L 91.38317 154.833164 
L 93.969419 162.984851 
L 96.555668 137.414575 
L 99.141917 245.006225 
L 101.728166 146.097316 
L 104.314415 285.817767 
L 106.900663 286.003636 
L 109.486912 209.956625 
L 112.073161 258.282589 
L 114.65941 118.376269 
L 117.245659 80.458975 
L 119.831908 262.504473 
L 122.418157 151.806153 
L 125.004405 47.666356 
L 127.590654 286.003636 
L 130.176903 45.993535 
L 132.763152 24.485825 
L 135.349401 123.793025 
L 137.93565 119.385273 
L 140.521899 138.104945 
L 143.108147 20.980865 
L 145.694396 53.428298 
L 148.280645 47.161855 
L 150.866894 65.03184 
L 153.453143 24.777905 
L 156.039392 22.547476 
L 158.62564 41.214044 
L 161.211889 24.777905 
L 163.798138 72.546262 
L 166.384387 76.42296 
L 168.970636 71.855891 
L 171.556885 164.578015 
L 174.143134 167.923658 
L 176.729382 125.917244 
L 179.315631 146.681476 
L 181.90188 71.298284 
L 184.488129 32.478196 
L 187.074378 69.253724 
L 189.660627 64.952182 
L 192.246876 20.476364 
" style="fill:none;stroke:#423f85;stroke-linecap:square;stroke-opacity:0.8;stroke-width:3;"/>
   </g>
   <g id="line2d_23">
    <path clip-path="url(#p5a12d59997)" d="M 65.520682 211.257709 
L 68.106931 269.434735 
L 70.69318 276.949156 
L 73.279428 280.533775 
L 75.865677 119.199404 
L 78.451926 118.376269 
L 81.038175 147.796691 
L 83.624424 52.791033 
L 86.210673 286.003636 
L 88.796921 251.936487 
L 91.38317 62.509331 
L 93.969419 60.809956 
L 96.555668 49.232967 
L 99.141917 61.686196 
L 101.728166 273.417644 
L 104.314415 94.903658 
L 106.900663 231.80952 
L 109.486912 286.003636 
L 112.073161 43.338262 
L 114.65941 173.340415 
" style="fill:none;stroke:#404588;stroke-linecap:square;stroke-opacity:0.8;stroke-width:3;"/>
   </g>
   <g id="line2d_24">
    <path clip-path="url(#p5a12d59997)" d="M 65.520682 231.305018 
L 68.106931 286.003636 
L 70.69318 286.003636 
L 73.279428 286.003636 
L 75.865677 248.139447 
L 78.451926 269.461287 
L 81.038175 143.654465 
L 83.624424 286.003636 
L 86.210673 224.135782 
L 88.796921 212.426029 
L 91.38317 273.072458 
L 93.969419 120.500487 
L 96.555668 281.224145 
L 99.141917 253.768625 
L 101.728166 240.439156 
L 104.314415 22.547476 
L 106.900663 20.980865 
L 109.486912 202.548415 
L 112.073161 230.003935 
L 114.65941 164.578015 
L 117.245659 24.777905 
L 119.831908 41.214044 
L 122.418157 71.855891 
L 125.004405 167.923658 
L 127.590654 123.793025 
L 130.176903 47.161855 
L 132.763152 47.666356 
L 135.349401 76.42296 
L 137.93565 123.15576 
L 140.521899 283.640444 
" style="fill:none;stroke:#3e4a89;stroke-linecap:square;stroke-opacity:0.8;stroke-width:3;"/>
   </g>
   <g id="line2d_25">
    <path clip-path="url(#p5a12d59997)" d="M 65.520682 112.428458 
L 68.106931 185.023615 
L 70.69318 51.250975 
L 73.279428 138.901527 
L 75.865677 156.267011 
L 78.451926 71.962102 
L 81.038175 60.809956 
L 83.624424 125.412742 
L 86.210673 272.647615 
L 88.796921 86.539549 
L 91.38317 90.283484 
L 93.969419 135.794858 
L 96.555668 265.531484 
L 99.141917 65.03184 
L 101.728166 276.471207 
L 104.314415 68.032298 
L 106.900663 245.059331 
L 109.486912 82.636298 
L 112.073161 76.369855 
L 114.65941 239.722233 
" style="fill:none;stroke:#3c508b;stroke-linecap:square;stroke-opacity:0.8;stroke-width:3;"/>
   </g>
   <g id="line2d_26">
    <path clip-path="url(#p5a12d59997)" d="M 65.520682 270.204764 
L 68.106931 274.585964 
L 70.69318 82.636298 
L 73.279428 254.379338 
L 75.865677 148.380851 
L 78.451926 61.181695 
L 81.038175 147.717033 
L 83.624424 266.089091 
L 86.210673 248.670502 
L 88.796921 59.747847 
L 91.38317 24.777905 
L 93.969419 278.621978 
L 96.555668 286.003636 
L 99.141917 277.161578 
L 101.728166 277.161578 
L 104.314415 20.980865 
L 106.900663 22.547476 
L 109.486912 41.214044 
L 112.073161 71.298284 
L 114.65941 146.681476 
" style="fill:none;stroke:#39558c;stroke-linecap:square;stroke-opacity:0.8;stroke-width:3;"/>
   </g>
   <g id="line2d_27">
    <path clip-path="url(#p5a12d59997)" d="M 65.520682 47.666356 
L 68.106931 258.282589 
L 70.69318 80.458975 
L 73.279428 286.003636 
L 75.865677 286.003636 
L 78.451926 72.572815 
L 81.038175 24.485825 
L 83.624424 53.428298 
L 86.210673 20.980865 
L 88.796921 102.258764 
L 91.38317 202.840495 
L 93.969419 199.893142 
L 96.555668 72.546262 
" style="fill:none;stroke:#365c8d;stroke-linecap:square;stroke-opacity:0.8;stroke-width:3;"/>
   </g>
   <g id="line2d_28">
    <path clip-path="url(#p5a12d59997)" d="M 65.520682 86.274022 
L 68.106931 286.003636 
L 70.69318 264.150742 
L 73.279428 177.137455 
L 75.865677 280.905513 
L 78.451926 240.625025 
L 81.038175 247.87392 
L 83.624424 197.476844 
L 86.210673 273.417644 
L 88.796921 191.475927 
L 91.38317 86.274022 
L 93.969419 286.003636 
L 96.555668 264.150742 
L 99.141917 177.137455 
L 101.728166 280.905513 
L 104.314415 240.625025 
L 106.900663 247.87392 
L 109.486912 197.476844 
L 112.073161 273.417644 
L 114.65941 191.475927 
L 117.245659 59.747847 
L 119.831908 49.312625 
L 122.418157 227.906269 
L 125.004405 272.302429 
L 127.590654 271.665164 
L 130.176903 251.193011 
L 132.763152 94.186735 
L 135.349401 53.34864 
L 137.93565 72.572815 
L 140.521899 24.777905 
L 143.108147 29.39808 
L 145.694396 86.274022 
L 148.280645 286.003636 
L 150.866894 264.150742 
L 153.453143 177.137455 
L 156.039392 280.905513 
L 158.62564 240.625025 
L 161.211889 247.87392 
L 163.798138 197.476844 
L 166.384387 273.417644 
L 168.970636 191.475927 
L 171.556885 59.747847 
L 174.143134 49.312625 
L 176.729382 227.906269 
L 179.315631 272.302429 
L 181.90188 271.665164 
L 184.488129 251.193011 
L 187.074378 94.186735 
L 189.660627 53.34864 
L 192.246876 72.572815 
L 194.833124 24.777905 
L 197.419373 29.39808 
L 200.005622 106.586858 
L 202.591871 50.162313 
L 205.17812 149.602276 
L 207.764369 132.422662 
L 210.350618 69.253724 
L 212.936866 119.438378 
L 215.523115 161.869636 
L 218.109364 24.777905 
L 220.695613 209.266255 
L 223.281862 250.980589 
L 225.868111 24.777905 
L 228.45436 24.777905 
L 231.040608 24.777905 
L 233.626857 24.777905 
L 236.213106 24.777905 
" style="fill:none;stroke:#34618d;stroke-linecap:square;stroke-opacity:0.8;stroke-width:3;"/>
   </g>
   <g id="line2d_29">
    <path clip-path="url(#p5a12d59997)" d="M 65.520682 270.204764 
L 68.106931 274.585964 
L 70.69318 82.636298 
L 73.279428 254.379338 
L 75.865677 148.380851 
L 78.451926 61.181695 
L 81.038175 147.717033 
L 83.624424 266.089091 
L 86.210673 248.670502 
L 88.796921 59.747847 
L 91.38317 24.777905 
L 93.969419 278.621978 
L 96.555668 72.546262 
L 99.141917 61.659644 
L 101.728166 157.647753 
L 104.314415 54.994909 
L 106.900663 209.266255 
L 109.486912 65.03184 
L 112.073161 29.39808 
L 114.65941 125.917244 
L 117.245659 71.298284 
L 119.831908 146.681476 
L 122.418157 20.980865 
L 125.004405 22.547476 
L 127.590654 41.214044 
L 130.176903 71.855891 
L 132.763152 164.578015 
L 135.349401 167.923658 
L 137.93565 119.385273 
L 140.521899 47.666356 
L 143.108147 53.428298 
L 145.694396 47.161855 
L 148.280645 24.485825 
L 150.866894 254.990051 
L 153.453143 226.791055 
" style="fill:none;stroke:#31668e;stroke-linecap:square;stroke-opacity:0.8;stroke-width:3;"/>
   </g>
   <g id="line2d_30">
    <path clip-path="url(#p5a12d59997)" d="M 65.520682 271.426189 
L 68.106931 270.204764 
L 70.69318 270.735818 
L 73.279428 254.990051 
L 75.865677 148.380851 
L 78.451926 78.387862 
L 81.038175 201.4332 
L 83.624424 269.381629 
L 86.210673 266.27496 
L 88.796921 180.934495 
L 91.38317 88.716873 
L 93.969419 233.85408 
L 96.555668 248.139447 
L 99.141917 254.59176 
L 101.728166 47.79912 
L 104.314415 110.038713 
L 106.900663 279.816851 
L 109.486912 43.656895 
L 112.073161 61.261353 
L 114.65941 151.381309 
L 117.245659 63.969731 
L 119.831908 241.474713 
L 122.418157 32.478196 
L 125.004405 191.449375 
L 127.590654 108.525207 
" style="fill:none;stroke:#2f6b8e;stroke-linecap:square;stroke-opacity:0.8;stroke-width:3;"/>
   </g>
   <g id="line2d_31">
    <path clip-path="url(#p5a12d59997)" d="M 65.520682 112.428458 
L 68.106931 80.458975 
L 70.69318 273.417644 
L 73.279428 286.003636 
L 75.865677 211.257709 
L 78.451926 76.369855 
L 81.038175 138.901527 
L 83.624424 156.267011 
L 86.210673 86.274022 
L 88.796921 51.250975 
L 91.38317 67.926087 
L 93.969419 243.333404 
L 96.555668 275.488756 
L 99.141917 121.190858 
L 101.728166 67.926087 
L 104.314415 262.371709 
L 106.900663 49.312625 
L 109.486912 80.007578 
" style="fill:none;stroke:#2d718e;stroke-linecap:square;stroke-opacity:0.8;stroke-width:3;"/>
   </g>
   <g id="line2d_32">
    <path clip-path="url(#p5a12d59997)" d="M 65.520682 272.647615 
L 68.106931 51.250975 
L 70.69318 265.531484 
L 73.279428 245.059331 
L 75.865677 65.03184 
L 78.451926 53.428298 
L 81.038175 69.253724 
L 83.624424 71.962102 
L 86.210673 60.809956 
L 88.796921 185.023615 
L 91.38317 135.794858 
L 93.969419 90.283484 
L 96.555668 107.994153 
L 99.141917 98.780356 
L 101.728166 172.835913 
L 104.314415 61.181695 
L 106.900663 20.980865 
L 109.486912 82.636298 
L 112.073161 254.379338 
L 114.65941 148.380851 
L 117.245659 41.214044 
L 119.831908 95.328502 
L 122.418157 215.134407 
L 125.004405 235.208269 
L 127.590654 202.840495 
L 130.176903 59.747847 
L 132.763152 278.621978 
L 135.349401 147.717033 
L 137.93565 266.089091 
L 140.521899 72.546262 
L 143.108147 171.508276 
L 145.694396 180.934495 
L 148.280645 271.001345 
L 150.866894 265.080087 
L 153.453143 230.986385 
L 156.039392 20.529469 
L 158.62564 120.500487 
L 161.211889 43.869316 
L 163.798138 125.917244 
L 166.384387 146.681476 
" style="fill:none;stroke:#2b758e;stroke-linecap:square;stroke-opacity:0.8;stroke-width:3;"/>
   </g>
   <g id="line2d_33">
    <path clip-path="url(#p5a12d59997)" d="M 65.520682 285.817767 
L 68.106931 258.282589 
L 70.69318 80.458975 
L 73.279428 90.602116 
L 75.865677 118.376269 
L 78.451926 151.806153 
L 81.038175 286.003636 
L 83.624424 209.956625 
L 86.210673 208.575884 
L 88.796921 139.51224 
L 91.38317 285.817767 
L 93.969419 80.458975 
L 96.555668 118.376269 
L 99.141917 286.003636 
L 101.728166 151.806153 
L 104.314415 139.51224 
L 106.900663 71.962102 
L 109.486912 124.032 
L 112.073161 67.527796 
L 114.65941 112.428458 
L 117.245659 157.647753 
L 119.831908 96.337505 
L 122.418157 156.134247 
L 125.004405 120.978436 
L 127.590654 61.659644 
L 130.176903 286.003636 
L 132.763152 262.504473 
L 135.349401 47.666356 
L 137.93565 209.956625 
L 140.521899 184.704982 
L 143.108147 20.980865 
L 145.694396 22.547476 
L 148.280645 20.529469 
L 150.866894 120.500487 
L 153.453143 43.869316 
" style="fill:none;stroke:#297a8e;stroke-linecap:square;stroke-opacity:0.8;stroke-width:3;"/>
   </g>
   <g id="line2d_34">
    <path clip-path="url(#p5a12d59997)" d="M 65.520682 286.003636 
L 68.106931 286.003636 
L 70.69318 286.003636 
L 73.279428 286.003636 
L 75.865677 273.099011 
L 78.451926 156.134247 
L 81.038175 88.716873 
L 83.624424 279.816851 
L 86.210673 179.102356 
L 88.796921 250.608851 
L 91.38317 24.777905 
L 93.969419 239.377047 
L 96.555668 233.030945 
L 99.141917 227.375215 
L 101.728166 260.486465 
L 104.314415 200.477302 
L 106.900663 75.360851 
L 109.486912 61.659644 
L 112.073161 200.477302 
L 114.65941 180.934495 
L 117.245659 72.572815 
L 119.831908 29.39808 
L 122.418157 209.266255 
L 125.004405 147.717033 
L 127.590654 61.181695 
L 130.176903 22.547476 
L 132.763152 20.980865 
L 135.349401 167.923658 
L 137.93565 125.917244 
L 140.521899 43.869316 
L 143.108147 53.428298 
L 145.694396 24.485825 
L 148.280645 164.578015 
L 150.866894 120.500487 
L 153.453143 41.214044 
" style="fill:none;stroke:#277f8e;stroke-linecap:square;stroke-opacity:0.8;stroke-width:3;"/>
   </g>
   <g id="line2d_35">
    <path clip-path="url(#p5a12d59997)" d="M 65.520682 286.003636 
L 68.106931 228.809062 
L 70.69318 208.549331 
L 73.279428 285.817767 
L 75.865677 155.311113 
L 78.451926 200.052458 
L 81.038175 256.848742 
L 83.624424 259.716436 
L 86.210673 90.602116 
L 88.796921 251.936487 
L 91.38317 284.543236 
L 93.969419 258.282589 
L 96.555668 286.003636 
L 99.141917 286.003636 
L 101.728166 260.645782 
L 104.314415 286.003636 
L 106.900663 262.504473 
L 109.486912 286.003636 
L 112.073161 286.003636 
L 114.65941 211.257709 
L 117.245659 280.533775 
L 119.831908 118.376269 
L 122.418157 282.259702 
L 125.004405 274.639069 
L 127.590654 286.003636 
L 130.176903 286.003636 
L 132.763152 246.386967 
L 135.349401 192.883222 
L 137.93565 192.883222 
L 140.521899 192.883222 
L 143.108147 280.905513 
L 145.694396 237.65112 
L 148.280645 270.125105 
L 150.866894 286.003636 
L 153.453143 225.596182 
L 156.039392 157.886727 
L 158.62564 232.340575 
L 161.211889 189.803105 
L 163.798138 286.003636 
L 166.384387 184.704982 
L 168.970636 47.666356 
L 171.556885 151.806153 
L 174.143134 285.817767 
L 176.729382 209.956625 
L 179.315631 209.956625 
L 181.90188 76.369855 
L 184.488129 265.770458 
L 187.074378 208.177593 
L 189.660627 269.036444 
L 192.246876 245.749702 
L 194.833124 119.385273 
L 197.419373 45.993535 
L 200.005622 47.161855 
L 202.591871 53.428298 
L 205.17812 138.104945 
L 207.764369 123.793025 
L 210.350618 24.485825 
L 212.936866 20.980865 
L 215.523115 41.214044 
L 218.109364 22.547476 
" style="fill:none;stroke:#25838e;stroke-linecap:square;stroke-opacity:0.8;stroke-width:3;"/>
   </g>
   <g id="line2d_36">
    <path clip-path="url(#p5a12d59997)" d="M 65.520682 221.985011 
L 68.106931 75.971564 
L 70.69318 72.546262 
L 73.279428 286.003636 
L 75.865677 278.993716 
L 78.451926 65.03184 
L 81.038175 51.250975 
L 83.624424 60.809956 
L 86.210673 24.777905 
L 88.796921 69.253724 
" style="fill:none;stroke:#23898e;stroke-linecap:square;stroke-opacity:0.8;stroke-width:3;"/>
   </g>
   <g id="line2d_37">
    <path clip-path="url(#p5a12d59997)" d="M 65.520682 242.350953 
L 68.106931 242.350953 
L 70.69318 286.003636 
L 73.279428 269.036444 
L 75.865677 286.003636 
L 78.451926 169.808902 
L 81.038175 283.79976 
L 83.624424 271.771375 
L 86.210673 286.003636 
L 88.796921 286.003636 
L 91.38317 112.428458 
L 93.969419 160.409236 
L 96.555668 114.419913 
L 99.141917 211.36392 
L 101.728166 90.283484 
L 104.314415 109.454553 
L 106.900663 278.595425 
L 109.486912 147.345295 
L 112.073161 278.037818 
L 114.65941 126.899695 
L 117.245659 143.973098 
L 119.831908 83.565644 
L 122.418157 146.681476 
L 125.004405 251.166458 
L 127.590654 286.003636 
L 130.176903 266.089091 
L 132.763152 61.181695 
L 135.349401 77.2992 
L 137.93565 122.252967 
L 140.521899 61.659644 
" style="fill:none;stroke:#218e8d;stroke-linecap:square;stroke-opacity:0.8;stroke-width:3;"/>
   </g>
   <g id="line2d_38">
    <path clip-path="url(#p5a12d59997)" d="M 65.520682 47.666356 
L 68.106931 82.397324 
L 70.69318 189.803105 
L 73.279428 200.052458 
L 75.865677 151.806153 
L 78.451926 138.104945 
L 81.038175 53.428298 
L 83.624424 45.993535 
L 86.210673 119.385273 
L 88.796921 47.161855 
L 91.38317 24.485825 
L 93.969419 123.793025 
L 96.555668 20.980865 
L 99.141917 80.166895 
L 101.728166 81.945927 
L 104.314415 71.855891 
L 106.900663 164.578015 
L 109.486912 167.923658 
L 112.073161 235.208269 
L 114.65941 215.134407 
" style="fill:none;stroke:#20928c;stroke-linecap:square;stroke-opacity:0.8;stroke-width:3;"/>
   </g>
   <g id="line2d_39">
    <path clip-path="url(#p5a12d59997)" d="M 65.520682 213.036742 
L 68.106931 208.549331 
L 70.69318 111.578771 
L 73.279428 176.208109 
L 75.865677 264.469375 
L 78.451926 251.193011 
L 81.038175 267.018436 
L 83.624424 286.003636 
L 86.210673 243.014771 
L 88.796921 90.602116 
L 91.38317 286.003636 
L 93.969419 285.074291 
L 96.555668 119.199404 
L 99.141917 269.434735 
L 101.728166 286.003636 
L 104.314415 286.003636 
L 106.900663 286.003636 
L 109.486912 286.003636 
L 112.073161 286.003636 
L 114.65941 286.003636 
L 117.245659 208.177593 
L 119.831908 245.749702 
L 122.418157 143.60136 
L 125.004405 114.419913 
L 127.590654 44.081738 
L 130.176903 114.791651 
L 132.763152 271.479295 
L 135.349401 200.052458 
L 137.93565 166.489811 
L 140.521899 263.566582 
L 143.108147 244.262749 
L 145.694396 154.833164 
L 148.280645 280.905513 
L 150.866894 284.251156 
L 153.453143 269.036444 
L 156.039392 269.036444 
L 158.62564 136.936625 
L 161.211889 107.648967 
L 163.798138 80.458975 
L 166.384387 160.409236 
L 168.970636 118.376269 
L 171.556885 286.003636 
L 174.143134 208.575884 
L 176.729382 47.666356 
L 179.315631 154.833164 
L 181.90188 151.275098 
L 184.488129 118.1904 
L 187.074378 104.515745 
L 189.660627 225.250996 
L 192.246876 95.965767 
L 194.833124 284.941527 
L 197.419373 191.369716 
L 200.005622 205.256793 
L 202.591871 65.03184 
L 205.17812 82.397324 
L 207.764369 225.861709 
L 210.350618 20.980865 
L 212.936866 167.923658 
L 215.523115 278.595425 
L 218.109364 75.360851 
L 220.695613 22.547476 
L 223.281862 24.777905 
L 225.868111 41.214044 
L 228.45436 24.485825 
L 231.040608 72.546262 
L 233.626857 53.428298 
L 236.213106 47.161855 
L 238.799355 76.42296 
L 241.385604 157.647753 
L 243.971853 61.181695 
" style="fill:none;stroke:#1f978b;stroke-linecap:square;stroke-opacity:0.8;stroke-width:3;"/>
   </g>
   <g id="line2d_40">
    <path clip-path="url(#p5a12d59997)" d="M 65.520682 236.748327 
L 68.106931 267.337069 
L 70.69318 260.194385 
L 73.279428 107.994153 
L 75.865677 286.003636 
L 78.451926 286.003636 
L 81.038175 266.27496 
L 83.624424 270.895135 
L 86.210673 286.003636 
L 88.796921 161.869636 
L 91.38317 272.647615 
L 93.969419 265.531484 
L 96.555668 68.032298 
L 99.141917 220.790138 
L 101.728166 51.250975 
L 104.314415 125.412742 
L 106.900663 245.059331 
L 109.486912 86.539549 
L 112.073161 65.03184 
L 114.65941 276.471207 
L 117.245659 208.336909 
L 119.831908 286.003636 
L 122.418157 263.699345 
L 125.004405 280.799302 
L 127.590654 135.794858 
L 130.176903 249.121898 
L 132.763152 227.42832 
L 135.349401 232.68576 
L 137.93565 106.586858 
L 140.521899 286.003636 
L 143.108147 71.962102 
L 145.694396 60.809956 
L 148.280645 158.152255 
L 150.866894 80.007578 
L 153.453143 61.181695 
L 156.039392 53.428298 
L 158.62564 69.253724 
L 161.211889 63.359018 
L 163.798138 29.39808 
L 166.384387 24.777905 
L 168.970636 149.602276 
L 171.556885 265.239404 
L 174.143134 90.283484 
L 176.729382 286.003636 
L 179.315631 229.340116 
L 181.90188 99.444175 
L 184.488129 106.427542 
L 187.074378 250.263665 
L 189.660627 49.312625 
L 192.246876 59.747847 
L 194.833124 104.568851 
L 197.419373 119.783564 
L 200.005622 239.722233 
L 202.591871 49.976444 
L 205.17812 82.636298 
L 207.764369 20.980865 
L 210.350618 22.547476 
L 212.936866 41.214044 
L 215.523115 54.994909 
L 218.109364 209.266255 
" style="fill:none;stroke:#1e9d89;stroke-linecap:square;stroke-opacity:0.8;stroke-width:3;"/>
   </g>
   <g id="line2d_41">
    <path clip-path="url(#p5a12d59997)" d="M 65.520682 272.143113 
L 68.106931 248.059789 
L 70.69318 273.125564 
L 73.279428 185.023615 
L 75.865677 164.206276 
L 78.451926 286.003636 
L 81.038175 250.980589 
L 83.624424 283.189047 
L 86.210673 260.539571 
L 88.796921 281.46312 
L 91.38317 164.206276 
L 93.969419 276.683629 
L 96.555668 241.076422 
L 99.141917 282.657993 
L 101.728166 265.292509 
L 104.314415 164.206276 
L 106.900663 232.97784 
L 109.486912 272.860036 
L 112.073161 274.240778 
L 114.65941 94.186735 
L 117.245659 94.186735 
L 119.831908 187.838204 
L 122.418157 53.34864 
L 125.004405 49.312625 
L 127.590654 49.312625 
L 130.176903 277.66608 
L 132.763152 80.007578 
L 135.349401 227.906269 
L 137.93565 272.302429 
L 140.521899 271.665164 
L 143.108147 232.68576 
L 145.694396 227.906269 
L 148.280645 49.312625 
L 150.866894 67.926087 
L 153.453143 69.652015 
L 156.039392 227.401767 
L 158.62564 250.263665 
L 161.211889 53.34864 
L 163.798138 94.186735 
L 166.384387 49.312625 
L 168.970636 86.539549 
L 171.556885 86.274022 
L 174.143134 53.34864 
" style="fill:none;stroke:#1fa187;stroke-linecap:square;stroke-opacity:0.8;stroke-width:3;"/>
   </g>
   <g id="line2d_42">
    <path clip-path="url(#p5a12d59997)" d="M 65.520682 167.206735 
L 68.106931 254.963498 
L 70.69318 186.802647 
L 73.279428 209.186596 
L 75.865677 107.648967 
L 78.451926 62.509331 
L 81.038175 278.595425 
L 83.624424 60.809956 
L 86.210673 158.152255 
L 88.796921 137.839418 
L 91.38317 61.659644 
L 93.969419 51.250975 
L 96.555668 106.427542 
L 99.141917 275.170124 
L 101.728166 69.253724 
" style="fill:none;stroke:#21a685;stroke-linecap:square;stroke-opacity:0.8;stroke-width:3;"/>
   </g>
   <g id="line2d_43">
    <path clip-path="url(#p5a12d59997)" d="M 65.520682 218.294182 
L 68.106931 185.023615 
L 70.69318 215.638909 
L 73.279428 211.36392 
L 75.865677 169.808902 
L 78.451926 112.428458 
L 81.038175 51.250975 
L 83.624424 107.994153 
L 86.210673 107.648967 
L 88.796921 192.883222 
L 91.38317 80.007578 
L 93.969419 61.181695 
L 96.555668 272.647615 
L 99.141917 220.790138 
L 101.728166 245.059331 
L 104.314415 65.03184 
L 106.900663 265.531484 
L 109.486912 89.407244 
L 112.073161 86.539549 
L 114.65941 68.032298 
" style="fill:none;stroke:#25ab82;stroke-linecap:square;stroke-opacity:0.8;stroke-width:3;"/>
   </g>
   <g id="line2d_44">
    <path clip-path="url(#p5a12d59997)" d="M 65.520682 76.369855 
L 68.106931 174.747709 
L 70.69318 266.726356 
L 73.279428 211.257709 
L 75.865677 286.003636 
L 78.451926 112.428458 
L 81.038175 271.479295 
L 83.624424 86.274022 
L 86.210673 269.036444 
L 88.796921 286.003636 
L 91.38317 269.620604 
L 93.969419 103.559847 
L 96.555668 133.776851 
L 99.141917 68.032298 
L 101.728166 208.177593 
L 104.314415 209.956625 
L 106.900663 161.12616 
L 109.486912 86.539549 
L 112.073161 232.68576 
L 114.65941 267.337069 
" style="fill:none;stroke:#29af7f;stroke-linecap:square;stroke-opacity:0.8;stroke-width:3;"/>
   </g>
   <g id="line2d_45">
    <path clip-path="url(#p5a12d59997)" d="M 65.520682 151.806153 
L 68.106931 184.704982 
L 70.69318 90.602116 
L 73.279428 285.817767 
L 75.865677 47.666356 
L 78.451926 138.104945 
L 81.038175 53.428298 
L 83.624424 45.993535 
L 86.210673 24.485825 
L 88.796921 200.052458 
L 91.38317 20.980865 
L 93.969419 20.476364 
L 96.555668 54.994909 
L 99.141917 20.476364 
L 101.728166 199.893142 
L 104.314415 20.980865 
" style="fill:none;stroke:#31b57b;stroke-linecap:square;stroke-opacity:0.8;stroke-width:3;"/>
   </g>
   <g id="line2d_46">
    <path clip-path="url(#p5a12d59997)" d="M 65.520682 165.958756 
L 68.106931 166.489811 
L 70.69318 251.936487 
L 73.279428 63.412124 
L 75.865677 285.074291 
L 78.451926 114.791651 
L 81.038175 81.521084 
L 83.624424 98.010327 
L 86.210673 77.724044 
L 88.796921 96.337505 
L 91.38317 92.434255 
L 93.969419 286.003636 
L 96.555668 215.134407 
L 99.141917 270.390633 
L 101.728166 197.476844 
L 104.314415 56.508415 
L 106.900663 52.791033 
L 109.486912 112.428458 
L 112.073161 80.458975 
L 114.65941 126.899695 
L 117.245659 61.659644 
L 119.831908 49.232967 
L 122.418157 62.509331 
L 125.004405 107.648967 
L 127.590654 143.60136 
L 130.176903 51.250975 
L 132.763152 75.360851 
L 135.349401 124.032 
L 137.93565 205.787847 
L 140.521899 183.828742 
L 143.108147 188.687891 
L 145.694396 92.460807 
L 148.280645 94.266393 
L 150.866894 202.335993 
L 153.453143 225.277549 
" style="fill:none;stroke:#38b977;stroke-linecap:square;stroke-opacity:0.8;stroke-width:3;"/>
   </g>
   <g id="line2d_47">
    <path clip-path="url(#p5a12d59997)" d="M 65.520682 270.204764 
L 68.106931 61.181695 
L 70.69318 59.747847 
L 73.279428 82.636298 
L 75.865677 274.585964 
L 78.451926 187.838204 
L 81.038175 171.508276 
L 83.624424 180.934495 
L 86.210673 271.001345 
L 88.796921 116.384815 
L 91.38317 230.986385 
L 93.969419 268.797469 
L 96.555668 265.080087 
L 99.141917 267.337069 
L 101.728166 271.665164 
L 104.314415 24.777905 
L 106.900663 147.717033 
L 109.486912 248.670502 
L 112.073161 148.380851 
L 114.65941 278.621978 
L 117.245659 54.994909 
L 119.831908 209.266255 
L 122.418157 232.924735 
L 125.004405 71.298284 
L 127.590654 20.529469 
L 130.176903 95.328502 
L 132.763152 120.500487 
L 135.349401 43.869316 
L 137.93565 95.328502 
L 140.521899 215.134407 
L 143.108147 235.208269 
" style="fill:none;stroke:#40bd72;stroke-linecap:square;stroke-opacity:0.8;stroke-width:3;"/>
   </g>
   <g id="line2d_48">
    <path clip-path="url(#p5a12d59997)" d="M 65.520682 61.659644 
L 68.106931 179.102356 
L 70.69318 236.589011 
L 73.279428 200.477302 
L 75.865677 284.649447 
L 78.451926 61.181695 
L 81.038175 72.546262 
L 83.624424 157.647753 
L 86.210673 60.809956 
L 88.796921 61.686196 
L 91.38317 266.27496 
L 93.969419 180.934495 
L 96.555668 22.547476 
L 99.141917 81.521084 
L 101.728166 269.461287 
L 104.314415 20.529469 
L 106.900663 120.500487 
L 109.486912 43.869316 
L 112.073161 41.214044 
L 114.65941 20.980865 
" style="fill:none;stroke:#4ac16d;stroke-linecap:square;stroke-opacity:0.8;stroke-width:3;"/>
   </g>
   <g id="line2d_49">
    <path clip-path="url(#p5a12d59997)" d="M 65.520682 157.992938 
L 68.106931 114.791651 
L 70.69318 102.444633 
L 73.279428 223.604727 
L 75.865677 265.584589 
L 78.451926 50.162313 
L 81.038175 98.780356 
L 83.624424 106.586858 
L 86.210673 95.965767 
L 88.796921 151.275098 
L 91.38317 69.253724 
L 93.969419 132.422662 
L 96.555668 119.438378 
L 99.141917 263.93832 
L 101.728166 229.127695 
L 104.314415 286.003636 
L 106.900663 265.584589 
L 109.486912 275.9136 
L 112.073161 251.246116 
L 114.65941 249.493636 
" style="fill:none;stroke:#56c667;stroke-linecap:square;stroke-opacity:0.8;stroke-width:3;"/>
   </g>
   <g id="line2d_50">
    <path clip-path="url(#p5a12d59997)" d="M 65.520682 270.204764 
L 68.106931 274.585964 
L 70.69318 82.636298 
L 73.279428 254.379338 
L 75.865677 148.380851 
L 78.451926 61.181695 
L 81.038175 147.717033 
L 83.624424 266.089091 
L 86.210673 248.670502 
L 88.796921 59.747847 
L 91.38317 24.777905 
L 93.969419 278.621978 
L 96.555668 171.508276 
L 99.141917 180.934495 
L 101.728166 271.001345 
L 104.314415 20.980865 
L 106.900663 22.547476 
L 109.486912 41.214044 
L 112.073161 71.298284 
L 114.65941 146.681476 
L 117.245659 71.855891 
L 119.831908 164.578015 
L 122.418157 167.923658 
L 125.004405 47.161855 
L 127.590654 53.428298 
L 130.176903 123.793025 
L 132.763152 24.485825 
L 135.349401 119.385273 
L 137.93565 45.993535 
L 140.521899 138.104945 
L 143.108147 230.986385 
L 145.694396 268.797469 
L 148.280645 265.080087 
L 150.866894 86.539549 
L 153.453143 49.312625 
" style="fill:none;stroke:#60ca60;stroke-linecap:square;stroke-opacity:0.8;stroke-width:3;"/>
   </g>
   <g id="line2d_51">
    <path clip-path="url(#p5a12d59997)" d="M 65.520682 24.777905 
L 68.106931 54.994909 
L 70.69318 209.266255 
L 73.279428 20.980865 
L 75.865677 22.547476 
L 78.451926 41.214044 
L 81.038175 63.359018 
L 83.624424 41.638887 
L 86.210673 85.636756 
L 88.796921 95.328502 
" style="fill:none;stroke:#6ccd5a;stroke-linecap:square;stroke-opacity:0.8;stroke-width:3;"/>
   </g>
   <g id="line2d_52">
    <path clip-path="url(#p5a12d59997)" d="M 65.520682 286.003636 
L 68.106931 211.841869 
L 70.69318 83.326669 
L 73.279428 158.152255 
L 75.865677 286.003636 
L 78.451926 54.145222 
L 81.038175 56.428756 
L 83.624424 89.407244 
L 86.210673 196.813025 
L 88.796921 147.796691 
L 91.38317 241.819898 
L 93.969419 251.246116 
L 96.555668 272.886589 
L 99.141917 47.79912 
L 101.728166 78.387862 
L 104.314415 56.428756 
L 106.900663 69.652015 
L 109.486912 77.2992 
L 112.073161 237.783884 
L 114.65941 108.525207 
L 117.245659 32.478196 
L 119.831908 47.161855 
L 122.418157 69.253724 
L 125.004405 22.547476 
L 127.590654 53.428298 
L 130.176903 20.980865 
" style="fill:none;stroke:#77d153;stroke-linecap:square;stroke-opacity:0.8;stroke-width:3;"/>
   </g>
   <g id="line2d_53">
    <path clip-path="url(#p5a12d59997)" d="M 65.520682 280.905513 
L 68.106931 286.003636 
L 70.69318 286.003636 
L 73.279428 274.798385 
L 75.865677 274.108015 
L 78.451926 286.003636 
L 81.038175 49.312625 
L 83.624424 279.498218 
L 86.210673 266.301513 
L 88.796921 243.572378 
L 91.38317 227.906269 
L 93.969419 272.302429 
L 96.555668 271.665164 
L 99.141917 53.34864 
L 101.728166 59.747847 
L 104.314415 69.652015 
L 106.900663 227.401767 
L 109.486912 94.186735 
L 112.073161 187.838204 
L 114.65941 164.206276 
L 117.245659 94.903658 
L 119.831908 180.934495 
L 122.418157 86.539549 
L 125.004405 271.001345 
L 127.590654 260.72544 
L 130.176903 67.926087 
L 132.763152 142.43304 
L 135.349401 171.508276 
L 137.93565 254.990051 
L 140.521899 99.444175 
L 143.108147 121.270516 
L 145.694396 164.259382 
L 148.280645 254.113811 
L 150.866894 49.976444 
L 153.453143 277.66608 
L 156.039392 80.007578 
L 158.62564 277.161578 
L 161.211889 280.347905 
L 163.798138 29.39808 
L 166.384387 249.175004 
L 168.970636 107.542756 
L 171.556885 205.256793 
L 174.143134 24.777905 
L 176.729382 54.994909 
L 179.315631 47.161855 
" style="fill:none;stroke:#84d44b;stroke-linecap:square;stroke-opacity:0.8;stroke-width:3;"/>
   </g>
   <g id="line2d_54">
    <path clip-path="url(#p5a12d59997)" d="M 65.520682 71.962102 
L 68.106931 285.313265 
L 70.69318 159.66576 
L 73.279428 99.444175 
L 75.865677 210.248705 
L 78.451926 150.770596 
L 81.038175 109.454553 
L 83.624424 167.206735 
L 86.210673 158.152255 
L 88.796921 51.250975 
L 91.38317 60.809956 
L 93.969419 138.901527 
L 96.555668 156.267011 
L 99.141917 112.428458 
L 101.728166 80.007578 
L 104.314415 61.181695 
" style="fill:none;stroke:#93d741;stroke-linecap:square;stroke-opacity:0.8;stroke-width:3;"/>
   </g>
   <g id="line2d_55">
    <path clip-path="url(#p5a12d59997)" d="M 65.520682 277.480211 
L 68.106931 119.199404 
L 70.69318 274.798385 
L 73.279428 258.123273 
L 75.865677 147.796691 
L 78.451926 52.791033 
L 81.038175 273.417644 
L 83.624424 208.177593 
L 86.210673 177.137455 
L 88.796921 165.958756 
L 91.38317 62.509331 
L 93.969419 60.809956 
L 96.555668 49.232967 
L 99.141917 61.686196 
L 101.728166 112.428458 
" style="fill:none;stroke:#a0da39;stroke-linecap:square;stroke-opacity:0.8;stroke-width:3;"/>
   </g>
   <g id="line2d_56">
    <path clip-path="url(#p5a12d59997)" d="M 65.520682 284.543236 
L 68.106931 246.254204 
L 70.69318 258.123273 
L 73.279428 107.648967 
L 75.865677 286.003636 
L 78.451926 104.515745 
L 81.038175 52.791033 
L 83.624424 63.412124 
L 86.210673 56.508415 
L 88.796921 179.713069 
L 91.38317 112.428458 
L 93.969419 80.458975 
L 96.555668 208.575884 
L 99.141917 62.509331 
L 101.728166 60.809956 
L 104.314415 51.250975 
L 106.900663 61.659644 
L 109.486912 61.686196 
L 112.073161 49.232967 
L 114.65941 57.278444 
L 117.245659 75.360851 
L 119.831908 173.340415 
L 122.418157 281.091382 
L 125.004405 94.903658 
L 127.590654 168.507818 
L 130.176903 231.80952 
L 132.763152 252.520647 
L 135.349401 43.338262 
L 137.93565 286.003636 
L 140.521899 286.003636 
L 143.108147 105.843382 
L 145.694396 183.695978 
L 148.280645 176.871927 
L 150.866894 64.952182 
L 153.453143 20.476364 
" style="fill:none;stroke:#addc30;stroke-linecap:square;stroke-opacity:0.8;stroke-width:3;"/>
   </g>
   <g id="line2d_57">
    <path clip-path="url(#p5a12d59997)" d="M 65.520682 242.271295 
L 68.106931 268.90368 
L 70.69318 151.142335 
L 73.279428 98.780356 
L 75.865677 150.770596 
L 78.451926 95.965767 
L 81.038175 71.855891 
L 83.624424 85.636756 
L 86.210673 256.317687 
L 88.796921 102.258764 
" style="fill:none;stroke:#bade28;stroke-linecap:square;stroke-opacity:0.8;stroke-width:3;"/>
   </g>
   <g id="line2d_58">
    <path clip-path="url(#p5a12d59997)" d="M 65.520682 281.46312 
L 68.106931 268.000887 
L 70.69318 269.461287 
L 73.279428 264.602138 
L 75.865677 165.958756 
L 78.451926 232.97784 
L 81.038175 64.952182 
L 83.624424 286.003636 
L 86.210673 273.417644 
L 88.796921 208.177593 
L 91.38317 72.572815 
L 93.969419 47.666356 
L 96.555668 67.395033 
L 99.141917 166.489811 
L 101.728166 104.515745 
L 104.314415 44.081738 
L 106.900663 45.993535 
L 109.486912 24.485825 
L 112.073161 138.104945 
L 114.65941 53.428298 
L 117.245659 20.476364 
L 119.831908 41.214044 
L 122.418157 20.476364 
L 125.004405 54.994909 
L 127.590654 44.214502 
" style="fill:none;stroke:#cae11f;stroke-linecap:square;stroke-opacity:0.8;stroke-width:3;"/>
   </g>
   <g id="line2d_59">
    <path clip-path="url(#p5a12d59997)" d="M 65.520682 286.003636 
L 68.106931 286.003636 
L 70.69318 208.575884 
L 73.279428 147.796691 
L 75.865677 178.65096 
L 78.451926 181.332785 
L 81.038175 231.22536 
L 83.624424 259.742989 
L 86.210673 222.197433 
L 88.796921 83.300116 
L 91.38317 206.823404 
L 93.969419 224.321651 
L 96.555668 140.415033 
L 99.141917 93.629127 
L 101.728166 127.138669 
L 104.314415 286.003636 
L 106.900663 286.003636 
L 109.486912 268.638153 
L 112.073161 261.920313 
L 114.65941 165.772887 
L 117.245659 179.633411 
L 119.831908 137.414575 
L 122.418157 286.003636 
L 125.004405 278.462662 
L 127.590654 20.476364 
" style="fill:none;stroke:#d8e219;stroke-linecap:square;stroke-opacity:0.8;stroke-width:3;"/>
   </g>
   <g id="line2d_60">
    <path clip-path="url(#p5a12d59997)" d="M 65.520682 208.575884 
L 68.106931 112.428458 
L 70.69318 143.60136 
L 73.279428 286.003636 
L 75.865677 154.833164 
L 78.451926 263.566582 
L 81.038175 234.703767 
L 83.624424 259.796095 
L 86.210673 271.771375 
L 88.796921 191.475927 
L 91.38317 189.803105 
L 93.969419 166.489811 
L 96.555668 72.572815 
L 99.141917 251.193011 
L 101.728166 174.747709 
L 104.314415 76.369855 
L 106.900663 286.003636 
L 109.486912 64.952182 
L 112.073161 140.839876 
L 114.65941 111.578771 
L 117.245659 44.081738 
L 119.831908 271.638611 
L 122.418157 208.177593 
L 125.004405 266.726356 
L 127.590654 86.274022 
L 130.176903 44.214502 
L 132.763152 20.476364 
L 135.349401 86.114705 
L 137.93565 63.359018 
L 140.521899 47.666356 
L 143.108147 268.638153 
L 145.694396 133.776851 
L 148.280645 156.267011 
L 150.866894 104.037796 
L 153.453143 126.899695 
L 156.039392 63.412124 
L 158.62564 136.936625 
L 161.211889 160.409236 
L 163.798138 114.419913 
L 166.384387 80.458975 
L 168.970636 52.791033 
L 171.556885 92.460807 
L 174.143134 61.314458 
L 176.729382 56.667731 
L 179.315631 62.509331 
L 181.90188 75.360851 
L 184.488129 51.250975 
L 187.074378 61.659644 
L 189.660627 57.278444 
L 192.246876 286.003636 
L 194.833124 92.434255 
L 197.419373 60.809956 
L 200.005622 49.232967 
L 202.591871 121.190858 
L 205.17812 267.363622 
L 207.764369 209.956625 
L 210.350618 269.620604 
L 212.936866 286.003636 
L 215.523115 269.036444 
L 218.109364 209.930073 
L 220.695613 103.559847 
L 223.281862 161.12616 
L 225.868111 68.032298 
L 228.45436 82.636298 
L 231.040608 133.936167 
L 233.626857 49.976444 
L 236.213106 262.504473 
L 238.799355 286.003636 
L 241.385604 178.65096 
L 243.971853 286.003636 
L 246.558101 274.585964 
L 249.14435 264.150742 
L 251.730599 271.479295 
L 254.316848 264.150742 
L 256.903097 274.585964 
L 259.489346 147.796691 
L 262.075595 211.257709 
L 264.661843 286.003636 
L 267.248092 286.003636 
L 269.834341 177.137455 
L 272.42059 104.515745 
L 275.006839 200.052458 
L 277.593088 242.297847 
L 280.179337 176.208109 
L 282.765585 222.277091 
L 285.351834 284.941527 
L 287.938083 251.431985 
L 290.524332 235.208269 
L 293.110581 253.529651 
L 295.69683 49.312625 
L 298.283079 179.633411 
L 300.869327 205.787847 
L 303.455576 225.09168 
L 306.041825 158.152255 
L 308.628074 183.828742 
L 311.214323 41.214044 
L 313.800572 62.881069 
L 316.38682 250.263665 
L 318.973069 260.72544 
L 321.559318 256.105265 
" style="fill:none;stroke:#e5e419;stroke-linecap:square;stroke-opacity:0.8;stroke-width:3;"/>
   </g>
   <g id="line2d_61">
    <path clip-path="url(#p5a12d59997)" d="M 65.520682 209.956625 
L 68.106931 265.770458 
L 70.69318 166.064967 
L 73.279428 239.722233 
L 75.865677 104.568851 
L 78.451926 155.443876 
L 81.038175 159.66576 
L 83.624424 53.428298 
L 86.210673 210.248705 
L 88.796921 285.313265 
" style="fill:none;stroke:#f1e51d;stroke-linecap:square;stroke-opacity:0.8;stroke-width:3;"/>
   </g>
   <g id="line2d_62">
    <path clip-path="url(#p5a12d59997)" d="M 65.520682 213.036742 
L 68.106931 126.899695 
L 70.69318 279.604429 
L 73.279428 245.749702 
L 75.865677 231.22536 
L 78.451926 286.003636 
L 81.038175 286.003636 
L 83.624424 247.475629 
L 86.210673 286.003636 
L 88.796921 222.277091 
L 91.38317 56.508415 
L 93.969419 157.886727 
L 96.555668 114.419913 
L 99.141917 104.037796 
L 101.728166 143.60136 
L 104.314415 63.412124 
L 106.900663 52.791033 
L 109.486912 56.667731 
L 112.073161 62.509331 
L 114.65941 92.460807 
L 117.245659 61.686196 
L 119.831908 57.278444 
L 122.418157 61.659644 
L 125.004405 62.509331 
L 127.590654 60.809956 
" style="fill:none;stroke:#fde725;stroke-linecap:square;stroke-opacity:0.8;stroke-width:3;"/>
   </g>
   <g id="patch_3">
    <path d="M 52.71875 299.28 
L 52.71875 7.2 
" style="fill:none;stroke:#000000;stroke-linecap:square;stroke-linejoin:miter;stroke-width:0.8;"/>
   </g>
   <g id="patch_4">
    <path d="M 334.36125 299.28 
L 334.36125 7.2 
" style="fill:none;stroke:#000000;stroke-linecap:square;stroke-linejoin:miter;stroke-width:0.8;"/>
   </g>
   <g id="patch_5">
    <path d="M 52.71875 299.28 
L 334.36125 299.28 
" style="fill:none;stroke:#000000;stroke-linecap:square;stroke-linejoin:miter;stroke-width:0.8;"/>
   </g>
   <g id="patch_6">
    <path d="M 52.71875 7.2 
L 334.36125 7.2 
" style="fill:none;stroke:#000000;stroke-linecap:square;stroke-linejoin:miter;stroke-width:0.8;"/>
   </g>
  </g>
 </g>
 <defs>
  <clipPath id="p5a12d59997">
   <rect height="292.08" width="281.6425" x="52.71875" y="7.2"/>
  </clipPath>
 </defs>
</svg>
