<?xml version="1.0" encoding="utf-8" standalone="no"?>
<!DOCTYPE svg PUBLIC "-//W3C//DTD SVG 1.1//EN"
  "http://www.w3.org/Graphics/SVG/1.1/DTD/svg11.dtd">
<!-- Created with matplotlib (https://matplotlib.org/) -->
<svg height="340.7075pt" version="1.1" viewBox="0 0 341.56125 340.7075" width="341.56125pt" xmlns="http://www.w3.org/2000/svg" xmlns:xlink="http://www.w3.org/1999/xlink">
 <defs>
  <style type="text/css">
*{stroke-linecap:butt;stroke-linejoin:round;}
  </style>
 </defs>
 <g id="figure_1">
  <g id="patch_1">
   <path d="M 0 340.7075 
L 341.56125 340.7075 
L 341.56125 0 
L 0 0 
z
" style="fill:#ffffff;"/>
  </g>
  <g id="axes_1">
   <g id="patch_2">
    <path d="M 52.71875 299.28 
L 334.36125 299.28 
L 334.36125 7.2 
L 52.71875 7.2 
z
" style="fill:#ffffff;"/>
   </g>
   <g id="matplotlib.axis_1">
    <g id="xtick_1">
     <g id="line2d_1">
      <defs>
       <path d="M 0 0 
L 0 3.5 
" id="m353592d30d" style="stroke:#000000;stroke-width:0.8;"/>
      </defs>
      <g>
       <use style="stroke:#000000;stroke-width:0.8;" x="119.423553" xlink:href="#m353592d30d" y="299.28"/>
      </g>
     </g>
     <g id="text_1">
      <!-- 5 -->
      <defs>
       <path d="M 10.796875 72.90625 
L 49.515625 72.90625 
L 49.515625 64.59375 
L 19.828125 64.59375 
L 19.828125 46.734375 
Q 21.96875 47.46875 24.109375 47.828125 
Q 26.265625 48.1875 28.421875 48.1875 
Q 40.625 48.1875 47.75 41.5 
Q 54.890625 34.8125 54.890625 23.390625 
Q 54.890625 11.625 47.5625 5.09375 
Q 40.234375 -1.421875 26.90625 -1.421875 
Q 22.3125 -1.421875 17.546875 -0.640625 
Q 12.796875 0.140625 7.71875 1.703125 
L 7.71875 11.625 
Q 12.109375 9.234375 16.796875 8.0625 
Q 21.484375 6.890625 26.703125 6.890625 
Q 35.15625 6.890625 40.078125 11.328125 
Q 45.015625 15.765625 45.015625 23.390625 
Q 45.015625 31 40.078125 35.4375 
Q 35.15625 39.890625 26.703125 39.890625 
Q 22.75 39.890625 18.8125 39.015625 
Q 14.890625 38.140625 10.796875 36.28125 
z
" id="DejaVuSans-53"/>
      </defs>
      <g transform="translate(115.606053 315.398125)scale(0.12 -0.12)">
       <use xlink:href="#DejaVuSans-53"/>
      </g>
     </g>
    </g>
    <g id="xtick_2">
     <g id="line2d_2">
      <g>
       <use style="stroke:#000000;stroke-width:0.8;" x="186.802141" xlink:href="#m353592d30d" y="299.28"/>
      </g>
     </g>
     <g id="text_2">
      <!-- 10 -->
      <defs>
       <path d="M 12.40625 8.296875 
L 28.515625 8.296875 
L 28.515625 63.921875 
L 10.984375 60.40625 
L 10.984375 69.390625 
L 28.421875 72.90625 
L 38.28125 72.90625 
L 38.28125 8.296875 
L 54.390625 8.296875 
L 54.390625 0 
L 12.40625 0 
z
" id="DejaVuSans-49"/>
       <path d="M 31.78125 66.40625 
Q 24.171875 66.40625 20.328125 58.90625 
Q 16.5 51.421875 16.5 36.375 
Q 16.5 21.390625 20.328125 13.890625 
Q 24.171875 6.390625 31.78125 6.390625 
Q 39.453125 6.390625 43.28125 13.890625 
Q 47.125 21.390625 47.125 36.375 
Q 47.125 51.421875 43.28125 58.90625 
Q 39.453125 66.40625 31.78125 66.40625 
z
M 31.78125 74.21875 
Q 44.046875 74.21875 50.515625 64.515625 
Q 56.984375 54.828125 56.984375 36.375 
Q 56.984375 17.96875 50.515625 8.265625 
Q 44.046875 -1.421875 31.78125 -1.421875 
Q 19.53125 -1.421875 13.0625 8.265625 
Q 6.59375 17.96875 6.59375 36.375 
Q 6.59375 54.828125 13.0625 64.515625 
Q 19.53125 74.21875 31.78125 74.21875 
z
" id="DejaVuSans-48"/>
      </defs>
      <g transform="translate(179.167141 315.398125)scale(0.12 -0.12)">
       <use xlink:href="#DejaVuSans-49"/>
       <use x="63.623047" xlink:href="#DejaVuSans-48"/>
      </g>
     </g>
    </g>
    <g id="xtick_3">
     <g id="line2d_3">
      <g>
       <use style="stroke:#000000;stroke-width:0.8;" x="254.18073" xlink:href="#m353592d30d" y="299.28"/>
      </g>
     </g>
     <g id="text_3">
      <!-- 15 -->
      <g transform="translate(246.54573 315.398125)scale(0.12 -0.12)">
       <use xlink:href="#DejaVuSans-49"/>
       <use x="63.623047" xlink:href="#DejaVuSans-53"/>
      </g>
     </g>
    </g>
    <g id="xtick_4">
     <g id="line2d_4">
      <g>
       <use style="stroke:#000000;stroke-width:0.8;" x="321.559318" xlink:href="#m353592d30d" y="299.28"/>
      </g>
     </g>
     <g id="text_4">
      <!-- 20 -->
      <defs>
       <path d="M 19.1875 8.296875 
L 53.609375 8.296875 
L 53.609375 0 
L 7.328125 0 
L 7.328125 8.296875 
Q 12.9375 14.109375 22.625 23.890625 
Q 32.328125 33.6875 34.8125 36.53125 
Q 39.546875 41.84375 41.421875 45.53125 
Q 43.3125 49.21875 43.3125 52.78125 
Q 43.3125 58.59375 39.234375 62.25 
Q 35.15625 65.921875 28.609375 65.921875 
Q 23.96875 65.921875 18.8125 64.3125 
Q 13.671875 62.703125 7.8125 59.421875 
L 7.8125 69.390625 
Q 13.765625 71.78125 18.9375 73 
Q 24.125 74.21875 28.421875 74.21875 
Q 39.75 74.21875 46.484375 68.546875 
Q 53.21875 62.890625 53.21875 53.421875 
Q 53.21875 48.921875 51.53125 44.890625 
Q 49.859375 40.875 45.40625 35.40625 
Q 44.1875 33.984375 37.640625 27.21875 
Q 31.109375 20.453125 19.1875 8.296875 
z
" id="DejaVuSans-50"/>
      </defs>
      <g transform="translate(313.924318 315.398125)scale(0.12 -0.12)">
       <use xlink:href="#DejaVuSans-50"/>
       <use x="63.623047" xlink:href="#DejaVuSans-48"/>
      </g>
     </g>
    </g>
    <g id="text_5">
     <!-- Experiment Batch -->
     <defs>
      <path d="M 9.8125 72.90625 
L 55.90625 72.90625 
L 55.90625 64.59375 
L 19.671875 64.59375 
L 19.671875 43.015625 
L 54.390625 43.015625 
L 54.390625 34.71875 
L 19.671875 34.71875 
L 19.671875 8.296875 
L 56.78125 8.296875 
L 56.78125 0 
L 9.8125 0 
z
" id="DejaVuSans-69"/>
      <path d="M 54.890625 54.6875 
L 35.109375 28.078125 
L 55.90625 0 
L 45.3125 0 
L 29.390625 21.484375 
L 13.484375 0 
L 2.875 0 
L 24.125 28.609375 
L 4.6875 54.6875 
L 15.28125 54.6875 
L 29.78125 35.203125 
L 44.28125 54.6875 
z
" id="DejaVuSans-120"/>
      <path d="M 18.109375 8.203125 
L 18.109375 -20.796875 
L 9.078125 -20.796875 
L 9.078125 54.6875 
L 18.109375 54.6875 
L 18.109375 46.390625 
Q 20.953125 51.265625 25.265625 53.625 
Q 29.59375 56 35.59375 56 
Q 45.5625 56 51.78125 48.09375 
Q 58.015625 40.1875 58.015625 27.296875 
Q 58.015625 14.40625 51.78125 6.484375 
Q 45.5625 -1.421875 35.59375 -1.421875 
Q 29.59375 -1.421875 25.265625 0.953125 
Q 20.953125 3.328125 18.109375 8.203125 
z
M 48.6875 27.296875 
Q 48.6875 37.203125 44.609375 42.84375 
Q 40.53125 48.484375 33.40625 48.484375 
Q 26.265625 48.484375 22.1875 42.84375 
Q 18.109375 37.203125 18.109375 27.296875 
Q 18.109375 17.390625 22.1875 11.75 
Q 26.265625 6.109375 33.40625 6.109375 
Q 40.53125 6.109375 44.609375 11.75 
Q 48.6875 17.390625 48.6875 27.296875 
z
" id="DejaVuSans-112"/>
      <path d="M 56.203125 29.59375 
L 56.203125 25.203125 
L 14.890625 25.203125 
Q 15.484375 15.921875 20.484375 11.0625 
Q 25.484375 6.203125 34.421875 6.203125 
Q 39.59375 6.203125 44.453125 7.46875 
Q 49.3125 8.734375 54.109375 11.28125 
L 54.109375 2.78125 
Q 49.265625 0.734375 44.1875 -0.34375 
Q 39.109375 -1.421875 33.890625 -1.421875 
Q 20.796875 -1.421875 13.15625 6.1875 
Q 5.515625 13.8125 5.515625 26.8125 
Q 5.515625 40.234375 12.765625 48.109375 
Q 20.015625 56 32.328125 56 
Q 43.359375 56 49.78125 48.890625 
Q 56.203125 41.796875 56.203125 29.59375 
z
M 47.21875 32.234375 
Q 47.125 39.59375 43.09375 43.984375 
Q 39.0625 48.390625 32.421875 48.390625 
Q 24.90625 48.390625 20.390625 44.140625 
Q 15.875 39.890625 15.1875 32.171875 
z
" id="DejaVuSans-101"/>
      <path d="M 41.109375 46.296875 
Q 39.59375 47.171875 37.8125 47.578125 
Q 36.03125 48 33.890625 48 
Q 26.265625 48 22.1875 43.046875 
Q 18.109375 38.09375 18.109375 28.8125 
L 18.109375 0 
L 9.078125 0 
L 9.078125 54.6875 
L 18.109375 54.6875 
L 18.109375 46.1875 
Q 20.953125 51.171875 25.484375 53.578125 
Q 30.03125 56 36.53125 56 
Q 37.453125 56 38.578125 55.875 
Q 39.703125 55.765625 41.0625 55.515625 
z
" id="DejaVuSans-114"/>
      <path d="M 9.421875 54.6875 
L 18.40625 54.6875 
L 18.40625 0 
L 9.421875 0 
z
M 9.421875 75.984375 
L 18.40625 75.984375 
L 18.40625 64.59375 
L 9.421875 64.59375 
z
" id="DejaVuSans-105"/>
      <path d="M 52 44.1875 
Q 55.375 50.25 60.0625 53.125 
Q 64.75 56 71.09375 56 
Q 79.640625 56 84.28125 50.015625 
Q 88.921875 44.046875 88.921875 33.015625 
L 88.921875 0 
L 79.890625 0 
L 79.890625 32.71875 
Q 79.890625 40.578125 77.09375 44.375 
Q 74.3125 48.1875 68.609375 48.1875 
Q 61.625 48.1875 57.5625 43.546875 
Q 53.515625 38.921875 53.515625 30.90625 
L 53.515625 0 
L 44.484375 0 
L 44.484375 32.71875 
Q 44.484375 40.625 41.703125 44.40625 
Q 38.921875 48.1875 33.109375 48.1875 
Q 26.21875 48.1875 22.15625 43.53125 
Q 18.109375 38.875 18.109375 30.90625 
L 18.109375 0 
L 9.078125 0 
L 9.078125 54.6875 
L 18.109375 54.6875 
L 18.109375 46.1875 
Q 21.1875 51.21875 25.484375 53.609375 
Q 29.78125 56 35.6875 56 
Q 41.65625 56 45.828125 52.96875 
Q 50 49.953125 52 44.1875 
z
" id="DejaVuSans-109"/>
      <path d="M 54.890625 33.015625 
L 54.890625 0 
L 45.90625 0 
L 45.90625 32.71875 
Q 45.90625 40.484375 42.875 44.328125 
Q 39.84375 48.1875 33.796875 48.1875 
Q 26.515625 48.1875 22.3125 43.546875 
Q 18.109375 38.921875 18.109375 30.90625 
L 18.109375 0 
L 9.078125 0 
L 9.078125 54.6875 
L 18.109375 54.6875 
L 18.109375 46.1875 
Q 21.34375 51.125 25.703125 53.5625 
Q 30.078125 56 35.796875 56 
Q 45.21875 56 50.046875 50.171875 
Q 54.890625 44.34375 54.890625 33.015625 
z
" id="DejaVuSans-110"/>
      <path d="M 18.3125 70.21875 
L 18.3125 54.6875 
L 36.8125 54.6875 
L 36.8125 47.703125 
L 18.3125 47.703125 
L 18.3125 18.015625 
Q 18.3125 11.328125 20.140625 9.421875 
Q 21.96875 7.515625 27.59375 7.515625 
L 36.8125 7.515625 
L 36.8125 0 
L 27.59375 0 
Q 17.1875 0 13.234375 3.875 
Q 9.28125 7.765625 9.28125 18.015625 
L 9.28125 47.703125 
L 2.6875 47.703125 
L 2.6875 54.6875 
L 9.28125 54.6875 
L 9.28125 70.21875 
z
" id="DejaVuSans-116"/>
      <path id="DejaVuSans-32"/>
      <path d="M 19.671875 34.8125 
L 19.671875 8.109375 
L 35.5 8.109375 
Q 43.453125 8.109375 47.28125 11.40625 
Q 51.125 14.703125 51.125 21.484375 
Q 51.125 28.328125 47.28125 31.5625 
Q 43.453125 34.8125 35.5 34.8125 
z
M 19.671875 64.796875 
L 19.671875 42.828125 
L 34.28125 42.828125 
Q 41.5 42.828125 45.03125 45.53125 
Q 48.578125 48.25 48.578125 53.8125 
Q 48.578125 59.328125 45.03125 62.0625 
Q 41.5 64.796875 34.28125 64.796875 
z
M 9.8125 72.90625 
L 35.015625 72.90625 
Q 46.296875 72.90625 52.390625 68.21875 
Q 58.5 63.53125 58.5 54.890625 
Q 58.5 48.1875 55.375 44.234375 
Q 52.25 40.28125 46.1875 39.3125 
Q 53.46875 37.75 57.5 32.78125 
Q 61.53125 27.828125 61.53125 20.40625 
Q 61.53125 10.640625 54.890625 5.3125 
Q 48.25 0 35.984375 0 
L 9.8125 0 
z
" id="DejaVuSans-66"/>
      <path d="M 34.28125 27.484375 
Q 23.390625 27.484375 19.1875 25 
Q 14.984375 22.515625 14.984375 16.5 
Q 14.984375 11.71875 18.140625 8.90625 
Q 21.296875 6.109375 26.703125 6.109375 
Q 34.1875 6.109375 38.703125 11.40625 
Q 43.21875 16.703125 43.21875 25.484375 
L 43.21875 27.484375 
z
M 52.203125 31.203125 
L 52.203125 0 
L 43.21875 0 
L 43.21875 8.296875 
Q 40.140625 3.328125 35.546875 0.953125 
Q 30.953125 -1.421875 24.3125 -1.421875 
Q 15.921875 -1.421875 10.953125 3.296875 
Q 6 8.015625 6 15.921875 
Q 6 25.140625 12.171875 29.828125 
Q 18.359375 34.515625 30.609375 34.515625 
L 43.21875 34.515625 
L 43.21875 35.40625 
Q 43.21875 41.609375 39.140625 45 
Q 35.0625 48.390625 27.6875 48.390625 
Q 23 48.390625 18.546875 47.265625 
Q 14.109375 46.140625 10.015625 43.890625 
L 10.015625 52.203125 
Q 14.9375 54.109375 19.578125 55.046875 
Q 24.21875 56 28.609375 56 
Q 40.484375 56 46.34375 49.84375 
Q 52.203125 43.703125 52.203125 31.203125 
z
" id="DejaVuSans-97"/>
      <path d="M 48.78125 52.59375 
L 48.78125 44.1875 
Q 44.96875 46.296875 41.140625 47.34375 
Q 37.3125 48.390625 33.40625 48.390625 
Q 24.65625 48.390625 19.8125 42.84375 
Q 14.984375 37.3125 14.984375 27.296875 
Q 14.984375 17.28125 19.8125 11.734375 
Q 24.65625 6.203125 33.40625 6.203125 
Q 37.3125 6.203125 41.140625 7.25 
Q 44.96875 8.296875 48.78125 10.40625 
L 48.78125 2.09375 
Q 45.015625 0.34375 40.984375 -0.53125 
Q 36.96875 -1.421875 32.421875 -1.421875 
Q 20.0625 -1.421875 12.78125 6.34375 
Q 5.515625 14.109375 5.515625 27.296875 
Q 5.515625 40.671875 12.859375 48.328125 
Q 20.21875 56 33.015625 56 
Q 37.15625 56 41.109375 55.140625 
Q 45.0625 54.296875 48.78125 52.59375 
z
" id="DejaVuSans-99"/>
      <path d="M 54.890625 33.015625 
L 54.890625 0 
L 45.90625 0 
L 45.90625 32.71875 
Q 45.90625 40.484375 42.875 44.328125 
Q 39.84375 48.1875 33.796875 48.1875 
Q 26.515625 48.1875 22.3125 43.546875 
Q 18.109375 38.921875 18.109375 30.90625 
L 18.109375 0 
L 9.078125 0 
L 9.078125 75.984375 
L 18.109375 75.984375 
L 18.109375 46.1875 
Q 21.34375 51.125 25.703125 53.5625 
Q 30.078125 56 35.796875 56 
Q 45.21875 56 50.046875 50.171875 
Q 54.890625 44.34375 54.890625 33.015625 
z
" id="DejaVuSans-104"/>
     </defs>
     <g transform="translate(139.718125 331.011875)scale(0.12 -0.12)">
      <use xlink:href="#DejaVuSans-69"/>
      <use x="63.183594" xlink:href="#DejaVuSans-120"/>
      <use x="122.363281" xlink:href="#DejaVuSans-112"/>
      <use x="185.839844" xlink:href="#DejaVuSans-101"/>
      <use x="247.363281" xlink:href="#DejaVuSans-114"/>
      <use x="288.476562" xlink:href="#DejaVuSans-105"/>
      <use x="316.259766" xlink:href="#DejaVuSans-109"/>
      <use x="413.671875" xlink:href="#DejaVuSans-101"/>
      <use x="475.195312" xlink:href="#DejaVuSans-110"/>
      <use x="538.574219" xlink:href="#DejaVuSans-116"/>
      <use x="577.783203" xlink:href="#DejaVuSans-32"/>
      <use x="609.570312" xlink:href="#DejaVuSans-66"/>
      <use x="678.173828" xlink:href="#DejaVuSans-97"/>
      <use x="739.453125" xlink:href="#DejaVuSans-116"/>
      <use x="778.662109" xlink:href="#DejaVuSans-99"/>
      <use x="833.642578" xlink:href="#DejaVuSans-104"/>
     </g>
    </g>
   </g>
   <g id="matplotlib.axis_2">
    <g id="ytick_1">
     <g id="line2d_5">
      <defs>
       <path d="M 0 0 
L -3.5 0 
" id="m9fb08f600a" style="stroke:#000000;stroke-width:0.8;"/>
      </defs>
      <g>
       <use style="stroke:#000000;stroke-width:0.8;" x="52.71875" xlink:href="#m9fb08f600a" y="298.457177"/>
      </g>
     </g>
     <g id="text_6">
      <!-- 0 -->
      <g transform="translate(38.08375 303.016239)scale(0.12 -0.12)">
       <use xlink:href="#DejaVuSans-48"/>
      </g>
     </g>
    </g>
    <g id="ytick_2">
     <g id="line2d_6">
      <g>
       <use style="stroke:#000000;stroke-width:0.8;" x="52.71875" xlink:href="#m9fb08f600a" y="242.861014"/>
      </g>
     </g>
     <g id="text_7">
      <!-- 20 -->
      <g transform="translate(30.44875 247.420077)scale(0.12 -0.12)">
       <use xlink:href="#DejaVuSans-50"/>
       <use x="63.623047" xlink:href="#DejaVuSans-48"/>
      </g>
     </g>
    </g>
    <g id="ytick_3">
     <g id="line2d_7">
      <g>
       <use style="stroke:#000000;stroke-width:0.8;" x="52.71875" xlink:href="#m9fb08f600a" y="187.264852"/>
      </g>
     </g>
     <g id="text_8">
      <!-- 40 -->
      <defs>
       <path d="M 37.796875 64.3125 
L 12.890625 25.390625 
L 37.796875 25.390625 
z
M 35.203125 72.90625 
L 47.609375 72.90625 
L 47.609375 25.390625 
L 58.015625 25.390625 
L 58.015625 17.1875 
L 47.609375 17.1875 
L 47.609375 0 
L 37.796875 0 
L 37.796875 17.1875 
L 4.890625 17.1875 
L 4.890625 26.703125 
z
" id="DejaVuSans-52"/>
      </defs>
      <g transform="translate(30.44875 191.823914)scale(0.12 -0.12)">
       <use xlink:href="#DejaVuSans-52"/>
       <use x="63.623047" xlink:href="#DejaVuSans-48"/>
      </g>
     </g>
    </g>
    <g id="ytick_4">
     <g id="line2d_8">
      <g>
       <use style="stroke:#000000;stroke-width:0.8;" x="52.71875" xlink:href="#m9fb08f600a" y="131.668689"/>
      </g>
     </g>
     <g id="text_9">
      <!-- 60 -->
      <defs>
       <path d="M 33.015625 40.375 
Q 26.375 40.375 22.484375 35.828125 
Q 18.609375 31.296875 18.609375 23.390625 
Q 18.609375 15.53125 22.484375 10.953125 
Q 26.375 6.390625 33.015625 6.390625 
Q 39.65625 6.390625 43.53125 10.953125 
Q 47.40625 15.53125 47.40625 23.390625 
Q 47.40625 31.296875 43.53125 35.828125 
Q 39.65625 40.375 33.015625 40.375 
z
M 52.59375 71.296875 
L 52.59375 62.3125 
Q 48.875 64.0625 45.09375 64.984375 
Q 41.3125 65.921875 37.59375 65.921875 
Q 27.828125 65.921875 22.671875 59.328125 
Q 17.53125 52.734375 16.796875 39.40625 
Q 19.671875 43.65625 24.015625 45.921875 
Q 28.375 48.1875 33.59375 48.1875 
Q 44.578125 48.1875 50.953125 41.515625 
Q 57.328125 34.859375 57.328125 23.390625 
Q 57.328125 12.15625 50.6875 5.359375 
Q 44.046875 -1.421875 33.015625 -1.421875 
Q 20.359375 -1.421875 13.671875 8.265625 
Q 6.984375 17.96875 6.984375 36.375 
Q 6.984375 53.65625 15.1875 63.9375 
Q 23.390625 74.21875 37.203125 74.21875 
Q 40.921875 74.21875 44.703125 73.484375 
Q 48.484375 72.75 52.59375 71.296875 
z
" id="DejaVuSans-54"/>
      </defs>
      <g transform="translate(30.44875 136.227751)scale(0.12 -0.12)">
       <use xlink:href="#DejaVuSans-54"/>
       <use x="63.623047" xlink:href="#DejaVuSans-48"/>
      </g>
     </g>
    </g>
    <g id="ytick_5">
     <g id="line2d_9">
      <g>
       <use style="stroke:#000000;stroke-width:0.8;" x="52.71875" xlink:href="#m9fb08f600a" y="76.072526"/>
      </g>
     </g>
     <g id="text_10">
      <!-- 80 -->
      <defs>
       <path d="M 31.78125 34.625 
Q 24.75 34.625 20.71875 30.859375 
Q 16.703125 27.09375 16.703125 20.515625 
Q 16.703125 13.921875 20.71875 10.15625 
Q 24.75 6.390625 31.78125 6.390625 
Q 38.8125 6.390625 42.859375 10.171875 
Q 46.921875 13.96875 46.921875 20.515625 
Q 46.921875 27.09375 42.890625 30.859375 
Q 38.875 34.625 31.78125 34.625 
z
M 21.921875 38.8125 
Q 15.578125 40.375 12.03125 44.71875 
Q 8.5 49.078125 8.5 55.328125 
Q 8.5 64.0625 14.71875 69.140625 
Q 20.953125 74.21875 31.78125 74.21875 
Q 42.671875 74.21875 48.875 69.140625 
Q 55.078125 64.0625 55.078125 55.328125 
Q 55.078125 49.078125 51.53125 44.71875 
Q 48 40.375 41.703125 38.8125 
Q 48.828125 37.15625 52.796875 32.3125 
Q 56.78125 27.484375 56.78125 20.515625 
Q 56.78125 9.90625 50.3125 4.234375 
Q 43.84375 -1.421875 31.78125 -1.421875 
Q 19.734375 -1.421875 13.25 4.234375 
Q 6.78125 9.90625 6.78125 20.515625 
Q 6.78125 27.484375 10.78125 32.3125 
Q 14.796875 37.15625 21.921875 38.8125 
z
M 18.3125 54.390625 
Q 18.3125 48.734375 21.84375 45.5625 
Q 25.390625 42.390625 31.78125 42.390625 
Q 38.140625 42.390625 41.71875 45.5625 
Q 45.3125 48.734375 45.3125 54.390625 
Q 45.3125 60.0625 41.71875 63.234375 
Q 38.140625 66.40625 31.78125 66.40625 
Q 25.390625 66.40625 21.84375 63.234375 
Q 18.3125 60.0625 18.3125 54.390625 
z
" id="DejaVuSans-56"/>
      </defs>
      <g transform="translate(30.44875 80.631589)scale(0.12 -0.12)">
       <use xlink:href="#DejaVuSans-56"/>
       <use x="63.623047" xlink:href="#DejaVuSans-48"/>
      </g>
     </g>
    </g>
    <g id="ytick_6">
     <g id="line2d_10">
      <g>
       <use style="stroke:#000000;stroke-width:0.8;" x="52.71875" xlink:href="#m9fb08f600a" y="20.476364"/>
      </g>
     </g>
     <g id="text_11">
      <!-- 100 -->
      <g transform="translate(22.81375 25.035426)scale(0.12 -0.12)">
       <use xlink:href="#DejaVuSans-49"/>
       <use x="63.623047" xlink:href="#DejaVuSans-48"/>
       <use x="127.246094" xlink:href="#DejaVuSans-48"/>
      </g>
     </g>
    </g>
    <g id="text_12">
     <!-- Max Observed Yield -->
     <defs>
      <path d="M 9.8125 72.90625 
L 24.515625 72.90625 
L 43.109375 23.296875 
L 61.8125 72.90625 
L 76.515625 72.90625 
L 76.515625 0 
L 66.890625 0 
L 66.890625 64.015625 
L 48.09375 14.015625 
L 38.1875 14.015625 
L 19.390625 64.015625 
L 19.390625 0 
L 9.8125 0 
z
" id="DejaVuSans-77"/>
      <path d="M 39.40625 66.21875 
Q 28.65625 66.21875 22.328125 58.203125 
Q 16.015625 50.203125 16.015625 36.375 
Q 16.015625 22.609375 22.328125 14.59375 
Q 28.65625 6.59375 39.40625 6.59375 
Q 50.140625 6.59375 56.421875 14.59375 
Q 62.703125 22.609375 62.703125 36.375 
Q 62.703125 50.203125 56.421875 58.203125 
Q 50.140625 66.21875 39.40625 66.21875 
z
M 39.40625 74.21875 
Q 54.734375 74.21875 63.90625 63.9375 
Q 73.09375 53.65625 73.09375 36.375 
Q 73.09375 19.140625 63.90625 8.859375 
Q 54.734375 -1.421875 39.40625 -1.421875 
Q 24.03125 -1.421875 14.8125 8.828125 
Q 5.609375 19.09375 5.609375 36.375 
Q 5.609375 53.65625 14.8125 63.9375 
Q 24.03125 74.21875 39.40625 74.21875 
z
" id="DejaVuSans-79"/>
      <path d="M 48.6875 27.296875 
Q 48.6875 37.203125 44.609375 42.84375 
Q 40.53125 48.484375 33.40625 48.484375 
Q 26.265625 48.484375 22.1875 42.84375 
Q 18.109375 37.203125 18.109375 27.296875 
Q 18.109375 17.390625 22.1875 11.75 
Q 26.265625 6.109375 33.40625 6.109375 
Q 40.53125 6.109375 44.609375 11.75 
Q 48.6875 17.390625 48.6875 27.296875 
z
M 18.109375 46.390625 
Q 20.953125 51.265625 25.265625 53.625 
Q 29.59375 56 35.59375 56 
Q 45.5625 56 51.78125 48.09375 
Q 58.015625 40.1875 58.015625 27.296875 
Q 58.015625 14.40625 51.78125 6.484375 
Q 45.5625 -1.421875 35.59375 -1.421875 
Q 29.59375 -1.421875 25.265625 0.953125 
Q 20.953125 3.328125 18.109375 8.203125 
L 18.109375 0 
L 9.078125 0 
L 9.078125 75.984375 
L 18.109375 75.984375 
z
" id="DejaVuSans-98"/>
      <path d="M 44.28125 53.078125 
L 44.28125 44.578125 
Q 40.484375 46.53125 36.375 47.5 
Q 32.28125 48.484375 27.875 48.484375 
Q 21.1875 48.484375 17.84375 46.4375 
Q 14.5 44.390625 14.5 40.28125 
Q 14.5 37.15625 16.890625 35.375 
Q 19.28125 33.59375 26.515625 31.984375 
L 29.59375 31.296875 
Q 39.15625 29.25 43.1875 25.515625 
Q 47.21875 21.78125 47.21875 15.09375 
Q 47.21875 7.46875 41.1875 3.015625 
Q 35.15625 -1.421875 24.609375 -1.421875 
Q 20.21875 -1.421875 15.453125 -0.5625 
Q 10.6875 0.296875 5.421875 2 
L 5.421875 11.28125 
Q 10.40625 8.6875 15.234375 7.390625 
Q 20.0625 6.109375 24.8125 6.109375 
Q 31.15625 6.109375 34.5625 8.28125 
Q 37.984375 10.453125 37.984375 14.40625 
Q 37.984375 18.0625 35.515625 20.015625 
Q 33.0625 21.96875 24.703125 23.78125 
L 21.578125 24.515625 
Q 13.234375 26.265625 9.515625 29.90625 
Q 5.8125 33.546875 5.8125 39.890625 
Q 5.8125 47.609375 11.28125 51.796875 
Q 16.75 56 26.8125 56 
Q 31.78125 56 36.171875 55.265625 
Q 40.578125 54.546875 44.28125 53.078125 
z
" id="DejaVuSans-115"/>
      <path d="M 2.984375 54.6875 
L 12.5 54.6875 
L 29.59375 8.796875 
L 46.6875 54.6875 
L 56.203125 54.6875 
L 35.6875 0 
L 23.484375 0 
z
" id="DejaVuSans-118"/>
      <path d="M 45.40625 46.390625 
L 45.40625 75.984375 
L 54.390625 75.984375 
L 54.390625 0 
L 45.40625 0 
L 45.40625 8.203125 
Q 42.578125 3.328125 38.25 0.953125 
Q 33.9375 -1.421875 27.875 -1.421875 
Q 17.96875 -1.421875 11.734375 6.484375 
Q 5.515625 14.40625 5.515625 27.296875 
Q 5.515625 40.1875 11.734375 48.09375 
Q 17.96875 56 27.875 56 
Q 33.9375 56 38.25 53.625 
Q 42.578125 51.265625 45.40625 46.390625 
z
M 14.796875 27.296875 
Q 14.796875 17.390625 18.875 11.75 
Q 22.953125 6.109375 30.078125 6.109375 
Q 37.203125 6.109375 41.296875 11.75 
Q 45.40625 17.390625 45.40625 27.296875 
Q 45.40625 37.203125 41.296875 42.84375 
Q 37.203125 48.484375 30.078125 48.484375 
Q 22.953125 48.484375 18.875 42.84375 
Q 14.796875 37.203125 14.796875 27.296875 
z
" id="DejaVuSans-100"/>
      <path d="M -0.203125 72.90625 
L 10.40625 72.90625 
L 30.609375 42.921875 
L 50.6875 72.90625 
L 61.28125 72.90625 
L 35.5 34.71875 
L 35.5 0 
L 25.59375 0 
L 25.59375 34.71875 
z
" id="DejaVuSans-89"/>
      <path d="M 9.421875 75.984375 
L 18.40625 75.984375 
L 18.40625 0 
L 9.421875 0 
z
" id="DejaVuSans-108"/>
     </defs>
     <g transform="translate(16.318125 212.82375)rotate(-90)scale(0.12 -0.12)">
      <use xlink:href="#DejaVuSans-77"/>
      <use x="86.279297" xlink:href="#DejaVuSans-97"/>
      <use x="147.558594" xlink:href="#DejaVuSans-120"/>
      <use x="206.738281" xlink:href="#DejaVuSans-32"/>
      <use x="238.525391" xlink:href="#DejaVuSans-79"/>
      <use x="317.236328" xlink:href="#DejaVuSans-98"/>
      <use x="380.712891" xlink:href="#DejaVuSans-115"/>
      <use x="432.8125" xlink:href="#DejaVuSans-101"/>
      <use x="494.335938" xlink:href="#DejaVuSans-114"/>
      <use x="535.449219" xlink:href="#DejaVuSans-118"/>
      <use x="594.628906" xlink:href="#DejaVuSans-101"/>
      <use x="656.152344" xlink:href="#DejaVuSans-100"/>
      <use x="719.628906" xlink:href="#DejaVuSans-32"/>
      <use x="751.416016" xlink:href="#DejaVuSans-89"/>
      <use x="812.453125" xlink:href="#DejaVuSans-105"/>
      <use x="840.236328" xlink:href="#DejaVuSans-101"/>
      <use x="901.759766" xlink:href="#DejaVuSans-108"/>
      <use x="929.542969" xlink:href="#DejaVuSans-100"/>
     </g>
    </g>
   </g>
   <g id="line2d_11">
    <path clip-path="url(#p92d1563d91)" d="M 65.520682 247.197515 
L 78.9964 224.403088 
L 92.472117 131.891074 
L 105.947835 118.825975 
L 119.423553 107.039589 
L 132.89927 73.932074 
L 146.374988 64.480726 
L 159.850706 64.480726 
" style="fill:none;stroke:#440154;stroke-linecap:square;stroke-opacity:0.8;stroke-width:3;"/>
   </g>
   <g id="line2d_12">
    <path clip-path="url(#p92d1563d91)" d="M 65.520682 187.654025 
L 78.9964 161.607222 
L 92.472117 161.607222 
L 105.947835 86.524605 
L 119.423553 79.964258 
L 132.89927 79.964258 
L 146.374988 79.964258 
" style="fill:none;stroke:#46085c;stroke-linecap:square;stroke-opacity:0.8;stroke-width:3;"/>
   </g>
   <g id="line2d_13">
    <path clip-path="url(#p92d1563d91)" d="M 65.520682 89.360009 
L 78.9964 78.991325 
L 92.472117 78.991325 
L 105.947835 75.016199 
" style="fill:none;stroke:#471063;stroke-linecap:square;stroke-opacity:0.8;stroke-width:3;"/>
   </g>
   <g id="line2d_14">
    <path clip-path="url(#p92d1563d91)" d="M 65.520682 75.016199 
L 78.9964 48.941599 
L 92.472117 42.186665 
L 105.947835 42.186665 
L 119.423553 20.476364 
" style="fill:none;stroke:#481769;stroke-linecap:square;stroke-opacity:0.8;stroke-width:3;"/>
   </g>
   <g id="line2d_15">
    <path clip-path="url(#p92d1563d91)" d="M 65.520682 89.360009 
L 78.9964 61.589726 
L 92.472117 61.589726 
L 105.947835 61.589726 
L 119.423553 24.979653 
L 132.89927 21.004527 
L 146.374988 21.004527 
" style="fill:none;stroke:#481d6f;stroke-linecap:square;stroke-opacity:0.8;stroke-width:3;"/>
   </g>
   <g id="line2d_16">
    <path clip-path="url(#p92d1563d91)" d="M 65.520682 144.428008 
L 78.9964 76.73968 
L 92.472117 76.73968 
L 105.947835 76.73968 
L 119.423553 76.73968 
L 132.89927 76.73968 
L 146.374988 76.73968 
L 159.850706 76.73968 
L 173.326423 69.734564 
L 186.802141 63.229813 
L 200.277859 50.581686 
L 213.753577 50.581686 
L 227.229294 20.476364 
" style="fill:none;stroke:#482576;stroke-linecap:square;stroke-opacity:0.8;stroke-width:3;"/>
   </g>
   <g id="line2d_17">
    <path clip-path="url(#p92d1563d91)" d="M 65.520682 136.116382 
L 78.9964 42.186665 
L 92.472117 21.004527 
L 105.947835 21.004527 
" style="fill:none;stroke:#472c7a;stroke-linecap:square;stroke-opacity:0.8;stroke-width:3;"/>
   </g>
   <g id="line2d_18">
    <path clip-path="url(#p92d1563d91)" d="M 65.520682 75.016199 
L 78.9964 67.121544 
L 92.472117 67.121544 
L 105.947835 22.644614 
" style="fill:none;stroke:#46327e;stroke-linecap:square;stroke-opacity:0.8;stroke-width:3;"/>
   </g>
   <g id="line2d_19">
    <path clip-path="url(#p92d1563d91)" d="M 65.520682 78.991325 
L 78.9964 75.016199 
L 92.472117 75.016199 
L 105.947835 71.541439 
L 119.423553 24.979653 
L 132.89927 22.644614 
L 146.374988 20.476364 
" style="fill:none;stroke:#453882;stroke-linecap:square;stroke-opacity:0.8;stroke-width:3;"/>
   </g>
   <g id="line2d_20">
    <path clip-path="url(#p92d1563d91)" d="M 65.520682 181.983216 
L 78.9964 87.136163 
L 92.472117 87.136163 
L 105.947835 87.136163 
L 119.423553 48.941599 
L 132.89927 24.673874 
L 146.374988 21.004527 
L 159.850706 21.004527 
L 173.326423 21.004527 
L 186.802141 20.476364 
" style="fill:none;stroke:#423f85;stroke-linecap:square;stroke-opacity:0.8;stroke-width:3;"/>
   </g>
   <g id="line2d_21">
    <path clip-path="url(#p92d1563d91)" d="M 65.520682 123.82963 
L 78.9964 54.306629 
L 92.472117 50.581686 
L 105.947835 44.410512 
" style="fill:none;stroke:#404588;stroke-linecap:square;stroke-opacity:0.8;stroke-width:3;"/>
   </g>
   <g id="line2d_22">
    <path clip-path="url(#p92d1563d91)" d="M 65.520682 241.193129 
L 78.9964 149.431663 
L 92.472117 125.191736 
L 105.947835 21.004527 
L 119.423553 21.004527 
L 132.89927 21.004527 
" style="fill:none;stroke:#3e4a89;stroke-linecap:square;stroke-opacity:0.8;stroke-width:3;"/>
   </g>
   <g id="line2d_23">
    <path clip-path="url(#p92d1563d91)" d="M 65.520682 52.69434 
L 78.9964 52.69434 
L 92.472117 52.69434 
L 105.947835 52.69434 
" style="fill:none;stroke:#3c508b;stroke-linecap:square;stroke-opacity:0.8;stroke-width:3;"/>
   </g>
   <g id="line2d_24">
    <path clip-path="url(#p92d1563d91)" d="M 65.520682 85.551672 
L 78.9964 61.589726 
L 92.472117 24.979653 
L 105.947835 21.004527 
" style="fill:none;stroke:#39558c;stroke-linecap:square;stroke-opacity:0.8;stroke-width:3;"/>
   </g>
   <g id="line2d_25">
    <path clip-path="url(#p92d1563d91)" d="M 65.520682 48.941599 
L 78.9964 21.004527 
L 92.472117 21.004527 
" style="fill:none;stroke:#365c8d;stroke-linecap:square;stroke-opacity:0.8;stroke-width:3;"/>
   </g>
   <g id="line2d_26">
    <path clip-path="url(#p92d1563d91)" d="M 65.520682 89.360009 
L 78.9964 89.360009 
L 92.472117 89.360009 
L 105.947835 89.360009 
L 119.423553 50.66508 
L 132.89927 24.979653 
L 146.374988 24.979653 
L 159.850706 24.979653 
L 173.326423 24.979653 
L 186.802141 24.979653 
L 200.277859 24.979653 
L 213.753577 24.979653 
L 227.229294 24.979653 
" style="fill:none;stroke:#34618d;stroke-linecap:square;stroke-opacity:0.8;stroke-width:3;"/>
   </g>
   <g id="line2d_27">
    <path clip-path="url(#p92d1563d91)" d="M 65.520682 85.551672 
L 78.9964 61.589726 
L 92.472117 24.979653 
L 105.947835 24.979653 
L 119.423553 21.004527 
L 132.89927 21.004527 
L 146.374988 21.004527 
" style="fill:none;stroke:#31668e;stroke-linecap:square;stroke-opacity:0.8;stroke-width:3;"/>
   </g>
   <g id="line2d_28">
    <path clip-path="url(#p92d1563d91)" d="M 65.520682 154.379721 
L 78.9964 81.103979 
L 92.472117 49.080589 
L 105.947835 44.744089 
L 119.423553 33.041096 
" style="fill:none;stroke:#2f6b8e;stroke-linecap:square;stroke-opacity:0.8;stroke-width:3;"/>
   </g>
   <g id="line2d_29">
    <path clip-path="url(#p92d1563d91)" d="M 65.520682 83.272229 
L 78.9964 52.69434 
L 92.472117 52.69434 
L 105.947835 50.66508 
" style="fill:none;stroke:#2d718e;stroke-linecap:square;stroke-opacity:0.8;stroke-width:3;"/>
   </g>
   <g id="line2d_30">
    <path clip-path="url(#p92d1563d91)" d="M 65.520682 52.69434 
L 78.9964 52.69434 
L 92.472117 52.69434 
L 105.947835 21.004527 
L 119.423553 21.004527 
L 132.89927 21.004527 
L 146.374988 21.004527 
L 159.850706 20.53196 
" style="fill:none;stroke:#2b758e;stroke-linecap:square;stroke-opacity:0.8;stroke-width:3;"/>
   </g>
   <g id="line2d_31">
    <path clip-path="url(#p92d1563d91)" d="M 65.520682 83.272229 
L 78.9964 83.272229 
L 92.472117 83.272229 
L 105.947835 69.734564 
L 119.423553 63.591188 
L 132.89927 48.941599 
L 146.374988 20.53196 
" style="fill:none;stroke:#297a8e;stroke-linecap:square;stroke-opacity:0.8;stroke-width:3;"/>
   </g>
   <g id="line2d_32">
    <path clip-path="url(#p92d1563d91)" d="M 65.520682 284.947309 
L 78.9964 91.917433 
L 92.472117 24.979653 
L 105.947835 24.979653 
L 119.423553 24.979653 
L 132.89927 21.004527 
L 146.374988 21.004527 
" style="fill:none;stroke:#277f8e;stroke-linecap:square;stroke-opacity:0.8;stroke-width:3;"/>
   </g>
   <g id="line2d_33">
    <path clip-path="url(#p92d1563d91)" d="M 65.520682 161.635021 
L 78.9964 93.891096 
L 92.472117 93.891096 
L 105.947835 93.891096 
L 119.423553 93.891096 
L 132.89927 93.891096 
L 146.374988 93.891096 
L 159.850706 93.891096 
L 173.326423 48.941599 
L 186.802141 48.941599 
L 200.277859 47.19032 
L 213.753577 21.004527 
" style="fill:none;stroke:#25838e;stroke-linecap:square;stroke-opacity:0.8;stroke-width:3;"/>
   </g>
   <g id="line2d_34">
    <path clip-path="url(#p92d1563d91)" d="M 65.520682 74.988401 
L 78.9964 24.979653 
" style="fill:none;stroke:#23898e;stroke-linecap:square;stroke-opacity:0.8;stroke-width:3;"/>
   </g>
   <g id="line2d_35">
    <path clip-path="url(#p92d1563d91)" d="M 65.520682 252.757131 
L 78.9964 176.812773 
L 92.472117 93.557519 
L 105.947835 93.557519 
L 119.423553 86.524605 
L 132.89927 63.090822 
" style="fill:none;stroke:#218e8d;stroke-linecap:square;stroke-opacity:0.8;stroke-width:3;"/>
   </g>
   <g id="line2d_36">
    <path clip-path="url(#p92d1563d91)" d="M 65.520682 48.941599 
L 78.9964 47.19032 
L 92.472117 21.004527 
L 105.947835 21.004527 
" style="fill:none;stroke:#20928c;stroke-linecap:square;stroke-opacity:0.8;stroke-width:3;"/>
   </g>
   <g id="line2d_37">
    <path clip-path="url(#p92d1563d91)" d="M 65.520682 115.851581 
L 78.9964 93.891096 
L 92.472117 93.891096 
L 105.947835 93.891096 
L 119.423553 45.188858 
L 132.89927 45.188858 
L 146.374988 45.188858 
L 159.850706 45.188858 
L 173.326423 45.188858 
L 186.802141 45.188858 
L 200.277859 45.188858 
L 213.753577 21.004527 
L 227.229294 21.004527 
L 240.705012 21.004527 
" style="fill:none;stroke:#1f978b;stroke-linecap:square;stroke-opacity:0.8;stroke-width:3;"/>
   </g>
   <g id="line2d_38">
    <path clip-path="url(#p92d1563d91)" d="M 65.520682 112.09884 
L 78.9964 112.09884 
L 92.472117 52.69434 
L 105.947835 52.69434 
L 119.423553 52.69434 
L 132.89927 52.69434 
L 146.374988 52.69434 
L 159.850706 24.979653 
L 173.326423 24.979653 
L 186.802141 24.979653 
L 200.277859 24.979653 
L 213.753577 21.004527 
" style="fill:none;stroke:#1e9d89;stroke-linecap:square;stroke-opacity:0.8;stroke-width:3;"/>
   </g>
   <g id="line2d_39">
    <path clip-path="url(#p92d1563d91)" d="M 65.520682 170.947378 
L 78.9964 170.947378 
L 92.472117 170.947378 
L 105.947835 97.643837 
L 119.423553 50.66508 
L 132.89927 50.66508 
L 146.374988 50.66508 
L 159.850706 50.66508 
L 173.326423 50.66508 
" style="fill:none;stroke:#1fa187;stroke-linecap:square;stroke-opacity:0.8;stroke-width:3;"/>
   </g>
   <g id="line2d_40">
    <path clip-path="url(#p92d1563d91)" d="M 65.520682 111.737465 
L 78.9964 62.701649 
L 92.472117 52.69434 
" style="fill:none;stroke:#21a685;stroke-linecap:square;stroke-opacity:0.8;stroke-width:3;"/>
   </g>
   <g id="line2d_41">
    <path clip-path="url(#p92d1563d91)" d="M 65.520682 176.812773 
L 78.9964 52.69434 
L 92.472117 52.69434 
L 105.947835 52.69434 
" style="fill:none;stroke:#25ab82;stroke-linecap:square;stroke-opacity:0.8;stroke-width:3;"/>
   </g>
   <g id="line2d_42">
    <path clip-path="url(#p92d1563d91)" d="M 65.520682 78.991325 
L 78.9964 78.991325 
L 92.472117 70.262727 
L 105.947835 70.262727 
" style="fill:none;stroke:#29af7f;stroke-linecap:square;stroke-opacity:0.8;stroke-width:3;"/>
   </g>
   <g id="line2d_43">
    <path clip-path="url(#p92d1563d91)" d="M 65.520682 48.941599 
L 78.9964 24.673874 
L 92.472117 20.476364 
" style="fill:none;stroke:#31b57b;stroke-linecap:square;stroke-opacity:0.8;stroke-width:3;"/>
   </g>
   <g id="line2d_44">
    <path clip-path="url(#p92d1563d91)" d="M 65.520682 65.425861 
L 78.9964 65.425861 
L 92.472117 65.425861 
L 105.947835 54.306629 
L 119.423553 50.581686 
L 132.89927 50.581686 
L 146.374988 50.581686 
" style="fill:none;stroke:#38b977;stroke-linecap:square;stroke-opacity:0.8;stroke-width:3;"/>
   </g>
   <g id="line2d_45">
    <path clip-path="url(#p92d1563d91)" d="M 65.520682 61.589726 
L 78.9964 61.589726 
L 92.472117 61.589726 
L 105.947835 24.979653 
L 119.423553 20.53196 
L 132.89927 20.53196 
" style="fill:none;stroke:#40bd72;stroke-linecap:square;stroke-opacity:0.8;stroke-width:3;"/>
   </g>
   <g id="line2d_46">
    <path clip-path="url(#p92d1563d91)" d="M 65.520682 63.591188 
L 78.9964 62.701649 
L 92.472117 22.644614 
L 105.947835 20.53196 
" style="fill:none;stroke:#4ac16d;stroke-linecap:square;stroke-opacity:0.8;stroke-width:3;"/>
   </g>
   <g id="line2d_47">
    <path clip-path="url(#p92d1563d91)" d="M 65.520682 106.289041 
L 78.9964 51.554619 
L 92.472117 51.554619 
L 105.947835 51.554619 
" style="fill:none;stroke:#56c667;stroke-linecap:square;stroke-opacity:0.8;stroke-width:3;"/>
   </g>
   <g id="line2d_48">
    <path clip-path="url(#p92d1563d91)" d="M 65.520682 85.551672 
L 78.9964 61.589726 
L 92.472117 24.979653 
L 105.947835 21.004527 
L 119.423553 21.004527 
L 132.89927 21.004527 
L 146.374988 21.004527 
" style="fill:none;stroke:#60ca60;stroke-linecap:square;stroke-opacity:0.8;stroke-width:3;"/>
   </g>
   <g id="line2d_49">
    <path clip-path="url(#p92d1563d91)" d="M 65.520682 21.004527 
L 78.9964 21.004527 
" style="fill:none;stroke:#6ccd5a;stroke-linecap:square;stroke-opacity:0.8;stroke-width:3;"/>
   </g>
   <g id="line2d_50">
    <path clip-path="url(#p92d1563d91)" d="M 65.520682 86.274422 
L 78.9964 55.724331 
L 92.472117 49.080589 
L 105.947835 49.080589 
L 119.423553 22.644614 
" style="fill:none;stroke:#77d153;stroke-linecap:square;stroke-opacity:0.8;stroke-width:3;"/>
   </g>
   <g id="line2d_51">
    <path clip-path="url(#p92d1563d91)" d="M 65.520682 286.003636 
L 78.9964 50.66508 
L 92.472117 50.66508 
L 105.947835 50.66508 
L 119.423553 50.66508 
L 132.89927 50.66508 
L 146.374988 50.66508 
L 159.850706 29.816519 
L 173.326423 24.979653 
" style="fill:none;stroke:#84d44b;stroke-linecap:square;stroke-opacity:0.8;stroke-width:3;"/>
   </g>
   <g id="line2d_52">
    <path clip-path="url(#p92d1563d91)" d="M 65.520682 74.376843 
L 78.9964 52.69434 
L 92.472117 52.69434 
" style="fill:none;stroke:#93d741;stroke-linecap:square;stroke-opacity:0.8;stroke-width:3;"/>
   </g>
   <g id="line2d_53">
    <path clip-path="url(#p92d1563d91)" d="M 65.520682 123.82963 
L 78.9964 54.306629 
L 92.472117 50.581686 
" style="fill:none;stroke:#a0da39;stroke-linecap:square;stroke-opacity:0.8;stroke-width:3;"/>
   </g>
   <g id="line2d_54">
    <path clip-path="url(#p92d1563d91)" d="M 65.520682 111.737465 
L 78.9964 54.306629 
L 92.472117 54.306629 
L 105.947835 50.581686 
L 119.423553 50.581686 
L 132.89927 44.410512 
L 146.374988 20.476364 
" style="fill:none;stroke:#addc30;stroke-linecap:square;stroke-opacity:0.8;stroke-width:3;"/>
   </g>
   <g id="line2d_55">
    <path clip-path="url(#p92d1563d91)" d="M 65.520682 102.452905 
L 78.9964 74.265651 
" style="fill:none;stroke:#bade28;stroke-linecap:square;stroke-opacity:0.8;stroke-width:3;"/>
   </g>
   <g id="line2d_56">
    <path clip-path="url(#p92d1563d91)" d="M 65.520682 172.782051 
L 78.9964 67.03815 
L 92.472117 48.941599 
L 105.947835 24.673874 
L 119.423553 20.476364 
" style="fill:none;stroke:#cae11f;stroke-linecap:square;stroke-opacity:0.8;stroke-width:3;"/>
   </g>
   <g id="line2d_57">
    <path clip-path="url(#p92d1563d91)" d="M 65.520682 153.768164 
L 78.9964 86.246624 
L 92.472117 86.246624 
L 105.947835 86.246624 
L 119.423553 20.476364 
" style="fill:none;stroke:#d8e219;stroke-linecap:square;stroke-opacity:0.8;stroke-width:3;"/>
   </g>
   <g id="line2d_58">
    <path clip-path="url(#p92d1563d91)" d="M 65.520682 116.741119 
L 78.9964 116.741119 
L 92.472117 75.016199 
L 105.947835 67.03815 
L 119.423553 45.188858 
L 132.89927 20.476364 
L 146.374988 20.476364 
L 159.850706 20.476364 
L 173.326423 20.476364 
L 186.802141 20.476364 
L 200.277859 20.476364 
L 213.753577 20.476364 
L 227.229294 20.476364 
L 240.705012 20.476364 
L 254.18073 20.476364 
L 267.656447 20.476364 
L 281.132165 20.476364 
L 294.607883 20.476364 
L 308.0836 20.476364 
L 321.559318 20.476364 
" style="fill:none;stroke:#e5e419;stroke-linecap:square;stroke-opacity:0.8;stroke-width:3;"/>
   </g>
   <g id="line2d_59">
    <path clip-path="url(#p92d1563d91)" d="M 65.520682 108.512887 
L 78.9964 54.973783 
" style="fill:none;stroke:#f1e51d;stroke-linecap:square;stroke-opacity:0.8;stroke-width:3;"/>
   </g>
   <g id="line2d_60">
    <path clip-path="url(#p92d1563d91)" d="M 65.520682 131.891074 
L 78.9964 131.891074 
L 92.472117 58.19836 
L 105.947835 54.306629 
L 119.423553 54.306629 
" style="fill:none;stroke:#fde725;stroke-linecap:square;stroke-opacity:0.8;stroke-width:3;"/>
   </g>
   <g id="patch_3">
    <path d="M 52.71875 299.28 
L 52.71875 7.2 
" style="fill:none;stroke:#000000;stroke-linecap:square;stroke-linejoin:miter;stroke-width:0.8;"/>
   </g>
   <g id="patch_4">
    <path d="M 334.36125 299.28 
L 334.36125 7.2 
" style="fill:none;stroke:#000000;stroke-linecap:square;stroke-linejoin:miter;stroke-width:0.8;"/>
   </g>
   <g id="patch_5">
    <path d="M 52.71875 299.28 
L 334.36125 299.28 
" style="fill:none;stroke:#000000;stroke-linecap:square;stroke-linejoin:miter;stroke-width:0.8;"/>
   </g>
   <g id="patch_6">
    <path d="M 52.71875 7.2 
L 334.36125 7.2 
" style="fill:none;stroke:#000000;stroke-linecap:square;stroke-linejoin:miter;stroke-width:0.8;"/>
   </g>
  </g>
 </g>
 <defs>
  <clipPath id="p92d1563d91">
   <rect height="292.08" width="281.6425" x="52.71875" y="7.2"/>
  </clipPath>
 </defs>
</svg>
